<?xml version="1.0" standalone="no"?>
<!DOCTYPE svg PUBLIC "-//W3C//DTD SVG 1.1//EN" "http://www.w3.org/Graphics/SVG/1.1/DTD/svg11.dtd" >
<svg>
<metadata>
Created by FontForge 20090914 at Mon Apr  4 13:40:39 2016
 By www-data
&#194;&#169; 2006 Microsoft Corporation. All Rights Reserved.
</metadata>
<defs>
<font id="Georgia" horiz-adv-x="1024" >
  <font-face 
    font-family="Georgia"
    font-weight="400"
    font-stretch="normal"
    units-per-em="2048"
    panose-1="2 4 5 2 5 4 5 2 3 3"
    ascent="1638"
    descent="-410"
    x-height="985.999"
    cap-height="1419"
    bbox="-355 -621 2389 1945"
    underline-thickness="101"
    underline-position="-131"
    unicode-range="U+0020-U+FB02"
  />
<missing-glyph horiz-adv-x="2048" 
d="M256 0v1536h1536v-1536h-1536zM384 128h1280v1280h-1280v-1280z" />
    <glyph glyph-name=".notdef" horiz-adv-x="2048" 
d="M256 0v1536h1536v-1536h-1536zM384 128h1280v1280h-1280v-1280z" />
    <glyph glyph-name="space" unicode=" " horiz-adv-x="494" 
 />
    <glyph glyph-name="space" unicode="&#xa0;" horiz-adv-x="494" 
 />
    <glyph glyph-name="exclam" unicode="!" horiz-adv-x="678" 
d="M472 1321c0 -33.333 -10.999 -145.332 -32.999 -335.999s-41.333 -375 -58 -553h-78c-14.667 178 -32.834 362.333 -54.501 553s-32.5 302.667 -32.5 336c0 38 12 70 36 96s54.667 39 92 39s68 -12.833 92 -38.5s36 -57.834 36 -96.501zM481.001 115.001
c0 -37.333 -13.5 -69.166 -40.5 -95.499s-59.167 -39.5 -96.5 -39.5s-69.5 13.167 -96.5 39.5s-40.5 58.166 -40.5 95.499s13.5 69.5 40.5 96.5s59.167 40.5 96.5 40.5s69.5 -13.5 96.5 -40.5s40.5 -59.167 40.5 -96.5z" />
    <glyph glyph-name="quotedbl" unicode="&#x22;" horiz-adv-x="843" 
d="M725 1417c0 -26.667 -8.66797 -78 -26.001 -154s-36.666 -174.667 -57.999 -296h-62c-15.333 98.667 -32.5 192.667 -51.5 282s-28.5 145.333 -28.5 168c0 30.667 9.33301 57 28 79s47 33 85 33c36.667 0 64.667 -11 84 -33s29 -48.333 29 -79zM342.999 1417
c0 -26.667 -8.66797 -77.999 -26.001 -153.999s-36.666 -174.667 -57.999 -296h-61c-18 113.333 -35.833 210.166 -53.5 290.499s-26.5 133.5 -26.5 159.5c0 30.667 9.33301 57 28 79s47 33 85 33c36 0 63.667 -11 83 -33s29 -48.333 29 -79z" />
    <glyph glyph-name="numbersign" unicode="#" horiz-adv-x="1317" 
d="M1163 745h-249l-72 -251h261v-123h-296l-107 -371h-111l107 371h-217l-107 -371h-111l107 371h-214v123h249l73 251h-262v123h296l105 362h111l-105 -362h217l105 362h111l-105 -362h214v-123zM807 747h-222l-74 -255h221z" />
    <glyph glyph-name="dollar" unicode="$" horiz-adv-x="1249" 
d="M1018 580c26.667 -26 47.498 -56.333 62.498 -91s22.5 -76 22.5 -124c0 -104.667 -40 -192.5 -120 -263.5s-180.667 -110.5 -302 -118.5v-282h-82v280c-132 2.66699 -239 34.167 -321 94.5s-123 135.166 -123 224.499c0 39.333 8.66699 69.5 26 90.5
s41.666 31.5 72.999 31.5c35.333 0 63 -8.83301 83 -26.5s30 -38.5 30 -62.5c0 -18 -6.33301 -45.167 -19 -81.5s-20.667 -61.166 -24 -74.499c19.333 -34.667 52.833 -62.667 100.5 -84s105.834 -32.333 174.501 -33v506l-76.5 28c-21.667 8 -50.167 19.333 -85.5 34
c-76.667 31.333 -136.667 72.5 -180 123.5s-65 117.167 -65 198.5c0 96 40 177 120 243s175.667 100 287 102v229h82v-229c66 -1.33301 124.333 -11 175 -29s92 -40.333 124 -67s56.167 -56 72.5 -88s24.5 -63 24.5 -93s-7 -55.5 -21 -76.5s-37 -31.5 -69 -31.5
c-32.667 0 -59.834 8.33301 -81.501 25s-32.5 35.334 -32.5 56.001c0 24.667 2.66699 49.167 8 73.5l14 64.5c-2 4 -8.66699 11.167 -20 21.5s-24.666 19.833 -39.999 28.5c-16.667 9.33301 -38.667 17.666 -66 24.999s-56.666 11 -87.999 11v-464
c26 -9.33301 47.833 -17.5 65.5 -24.5l65.5 -25.5c41.333 -16 79.333 -33.5 114 -52.5s65.334 -41.833 92.001 -68.5zM598.998 775l0.000976562 440.001c-64.667 0 -119 -18.333 -163 -55s-66 -81.667 -66 -135c0 -58 13.667 -104.333 41 -139
s68.666 -63.334 123.999 -86.001l30 -12zM914.999 284.001c0 54.667 -14.166 102.165 -42.499 142.498s-76.5 73.833 -144.5 100.5c-8.66699 3.33301 -16.834 6.33301 -24.501 9l-22.5 8v-483c78 4.66699 136.5 26.834 175.5 66.501s58.5 91.834 58.5 156.501z" />
    <glyph glyph-name="percent" unicode="%" horiz-adv-x="1674" 
d="M788 1083c0 -117.333 -31.667 -208.333 -95 -273s-145 -97 -245 -97s-181.5 32.333 -244.5 97s-94.5 155.667 -94.5 273c0 110.667 30.833 200 92.5 268s144.167 102 247.5 102c102 0 184 -34 246 -102s93 -157.333 93 -268zM619 1083
c0 86.667 -14.334 157.667 -43.001 213s-71 83 -127 83c-57.333 0 -100.166 -27.667 -128.499 -83s-42.5 -126.333 -42.5 -213c0 -88.667 14.333 -160.167 43 -214.5s71 -81.5 127 -81.5s98.5 27.167 127.5 81.5s43.5 125.833 43.5 214.5zM1565 338
c0 -117.333 -31.667 -208.333 -95 -273s-145 -97 -245 -97s-181.5 32.333 -244.5 97s-94.5 155.667 -94.5 273c0 110.667 30.833 200 92.5 268s144.167 102 247.5 102c102 0 184 -34 246 -102s93 -157.333 93 -268zM1396 338c0 86.667 -14.334 157.667 -43.001 213
s-71 83 -127 83c-57.333 0 -100.166 -27.667 -128.499 -83s-42.5 -126.333 -42.5 -213c0 -88.667 14.333 -160.167 43 -214.5s71 -81.5 127 -81.5s98.5 27.167 127.5 81.5s43.5 125.833 43.5 214.5zM1499 1424l-1179 -1424h-138l1176 1424h141z" />
    <glyph glyph-name="ampersand" unicode="&#x26;" horiz-adv-x="1455" 
d="M1454 828c-39.333 -3.33301 -78.998 -11.1641 -118.998 -23.4971s-70.667 -31.833 -92 -58.5c-14 -16 -28.167 -39.667 -42.5 -71l-51.5 -111l-61 -126c-20.667 -41.333 -47.334 -82.666 -80.001 -123.999c26.667 -32 59.334 -66.833 98.001 -104.5
s71.667 -64.834 99 -81.501c26.667 -15.333 64.5 -28.333 113.5 -39s89.167 -16.667 120.5 -18v-71h-412l-149 170c-22 -24 -47.167 -48.833 -75.5 -74.5s-58.166 -47.834 -89.499 -66.501c-34.667 -20 -69.5 -35.667 -104.5 -47s-76.167 -17 -123.5 -17
c-49.333 0 -98.333 7.16699 -147 21.5s-93 37.166 -133 68.499c-38.667 30.667 -70 70 -94 118s-36 105.333 -36 172c0 82.667 21.833 157.5 65.5 224.5s125.167 138.167 244.5 213.5c-54 71.333 -96 133 -126 185s-45 110.333 -45 175c0 46 9.16699 88.167 27.5 126.5
s44.166 71.833 77.499 100.5c30.667 26 68 46.333 112 61s88.667 22 134 22c53.333 0 100.166 -8.5 140.499 -25.5s73.166 -39.167 98.499 -66.5c23.333 -25.333 41.166 -54.666 53.499 -87.999s18.5 -66.666 18.5 -99.999c0 -80 -24.833 -148.833 -74.5 -206.5
s-118.167 -109.5 -205.5 -155.5c62.667 -84.667 124 -161.834 184 -231.501l173 -205.5c44.667 71.333 79.334 138.5 104.001 201.5s37 118.5 37 166.5c0 21.333 -15.5 38.166 -46.5 50.499s-73.833 24.166 -128.5 35.499v71h535v-71zM747.002 1153
c0 68 -14.999 120.167 -44.999 156.5s-72.667 54.5 -128 54.5c-31.333 0 -57.333 -6.33301 -78 -19s-38.334 -28.667 -53.001 -48c-13.333 -18.667 -23 -38.667 -29 -60s-9 -40.333 -9 -57c0 -46 12 -92.5 36 -139.5s61.333 -103.833 112 -170.5
c68.667 38.667 118.167 80.5 148.5 125.5s45.5 97.5 45.5 157.5zM825.003 228.002l-209.5 258.499c-77.667 93.667 -139.834 172.834 -186.501 237.501c-54 -37.333 -92.167 -81.166 -114.5 -131.499s-33.5 -107.833 -33.5 -172.5c0 -90.667 25.833 -165.834 77.5 -225.501
s120.834 -89.5 207.501 -89.5c48.667 0 96.5 10.5 143.5 31.5s85.5 51.5 115.5 91.5z" />
    <glyph glyph-name="quotesingle" unicode="'" horiz-adv-x="441" 
d="M333 1417c0 -26.667 -8.66797 -77.999 -26.001 -153.999s-36.666 -174.667 -57.999 -296h-61c-18 113.333 -35.833 210.166 -53.5 290.499s-26.5 133.5 -26.5 159.5c0 30.667 9.33301 57 28 79s47 33 85 33c36 0 63.667 -11 83 -33s29 -48.333 29 -79z" />
    <glyph glyph-name="parenleft" unicode="(" horiz-adv-x="768" 
d="M701 -328c-182 22.667 -324.833 114.332 -428.5 274.999s-155.5 377 -155.5 649c0 276.667 51.833 495.834 155.5 657.501s246.5 254.5 428.5 278.5v-83c-128 -23.333 -225.333 -105 -292 -245s-100 -343.333 -100 -610c0 -254 32.667 -451.5 98 -592.5
s163.333 -223.5 294 -247.5v-82z" />
    <glyph glyph-name="parenright" unicode=")" horiz-adv-x="768" 
d="M651 596c0 -272 -51.833 -488.331 -155.5 -648.998s-246.5 -252.334 -428.5 -275.001v82c130.667 24 228.667 106.5 294 247.5s98 338.5 98 592.5c0 266.667 -33.333 470 -100 610s-164 221.667 -292 245v83c182 -24 324.833 -116.833 428.5 -278.5
s155.5 -380.834 155.5 -657.501z" />
    <glyph glyph-name="asterisk" unicode="*" horiz-adv-x="967" 
d="M882 1099c0 -24.667 -6.99805 -42.6689 -20.998 -54.002s-32 -17 -54 -17c-14.667 0 -49.834 7.16699 -105.501 21.5s-118.167 25.5 -187.5 33.5c30 -41.333 58 -75.833 84 -103.5l65 -69.5c18 -19.333 32 -36.333 42 -51s15 -30.334 15 -47.001
c0 -18 -8 -33.667 -24 -47s-33 -20 -51 -20c-12 0 -23.333 3.5 -34 10.5s-19.667 16.833 -27 29.5c-10.667 19.333 -21.167 50.333 -31.5 93s-33.166 105.334 -68.499 188.001c-32 -79.333 -54.333 -142.166 -67 -188.499s-23.667 -77.166 -33 -92.499
c-8.66699 -13.333 -17.5 -23.333 -26.5 -30s-20.5 -10 -34.5 -10c-18.667 0 -35.834 6.33301 -51.501 19s-23.5 28.667 -23.5 48c0 16 4.66699 31 14 45s23.666 31.667 42.999 53l66.5 71c27.667 30 55.167 64 82.5 102c-65.333 -6.66699 -126.166 -17.5 -182.499 -32.5
s-93.166 -22.5 -110.499 -22.5c-22 0 -40 5.5 -54 16.5s-21 29.167 -21 54.5c0 22.667 7 40.167 21 52.5s32 18.5 54 18.5c20 0 55.167 -7 105.5 -21s112.833 -24.667 187.5 -32c-26 35.333 -53.333 68.833 -82 100.5l-67 72.5c-18.667 20 -32.834 37.167 -42.501 51.5
s-14.5 29.833 -14.5 46.5c0 18 8 33.667 24 47s33 20 51 20c12 0 23.167 -3.33301 33.5 -10s19.5 -16.667 27.5 -30c9.33301 -16 21.666 -51.833 36.999 -107.5s36.333 -113.5 63 -173.5c30 68 51.833 127.5 65.5 178.5s25.167 85.167 34.5 102.5
c7.33301 12.667 16.166 22.5 26.499 29.5s21.833 10.5 34.5 10.5c18.667 0 35.834 -6.33301 51.501 -19s23.5 -28.667 23.5 -48c0 -27.333 -18.5 -59.333 -55.5 -96s-87.167 -95 -150.5 -175c72 8 134.5 18.833 187.5 32.5s88.167 20.5 105.5 20.5c22 0 40 -6 54 -18
s21 -29.667 21 -53z" />
    <glyph glyph-name="plus" unicode="+" horiz-adv-x="1317" 
d="M1173 497h-451v-451h-127v451h-451v125h451v451h127v-451h451v-125z" />
    <glyph glyph-name="comma" unicode="," horiz-adv-x="552" 
d="M429 35c0 -48 -10.833 -93.3301 -32.5 -135.997s-46.5 -79.334 -74.5 -110.001c-28.667 -32 -59 -60.333 -91 -85s-61.333 -44 -88 -58l-46 67c32 20 60.667 40 86 60s46 40 62 60c20 23.333 37 48.666 51 75.999s23 58.333 27 93h-51c-44.667 0 -79.5 11.667 -104.5 35
s-37.5 54.666 -37.5 93.999c0 28 11.333 55.167 34 81.5s53.667 39.5 93 39.5c57.333 0 100.333 -19.167 129 -57.5s43 -91.5 43 -159.5z" />
    <glyph glyph-name="hyphen" unicode="-" horiz-adv-x="766" 
d="M681 465h-596v157h596v-157z" />
    <glyph glyph-name="hyphen" unicode="&#xad;" horiz-adv-x="766" 
d="M681 465h-596v157h596v-157z" />
    <glyph glyph-name="period" unicode="." horiz-adv-x="552" 
d="M415 115c0 -37.333 -13.5 -69.166 -40.5 -95.499s-59.167 -39.5 -96.5 -39.5s-69.5 13.167 -96.5 39.5s-40.5 58.166 -40.5 95.499s13.5 69.5 40.5 96.5s59.167 40.5 96.5 40.5s69.5 -13.5 96.5 -40.5s40.5 -59.167 40.5 -96.5z" />
    <glyph glyph-name="slash" unicode="/" horiz-adv-x="960" 
d="M870 1523l-691 -1947h-130l689 1947h132z" />
    <glyph glyph-name="zero" unicode="0" horiz-adv-x="1257" 
d="M1027 934c42.667 -51.333 74.502 -111.498 95.502 -180.498s31.5 -141.167 31.5 -216.5c0 -90.667 -13 -171.834 -39 -243.501s-61.667 -131.167 -107 -178.5c-46.667 -48.667 -102 -85.334 -166 -110.001s-135.333 -37 -214 -37c-86 0 -162.667 14.333 -230 43
s-122 68 -164 118c-44 52 -76.833 112.833 -98.5 182.5s-32.5 144.834 -32.5 225.501c0 79.333 10.5 152.333 31.5 219s53.833 127 98.5 181c42.667 52 97.667 93 165 123s144.333 45 231 45c91.333 0 169.666 -15.333 234.999 -46s119.666 -72.334 162.999 -125.001z
M933.002 537.002c0 158.667 -27.167 281.667 -81.5 369s-128.166 131 -221.499 131c-94.667 0 -169.334 -43.667 -224.001 -131s-82 -210.333 -82 -369c0 -150.667 26.167 -271.834 78.5 -363.501s127.5 -137.5 225.5 -137.5s173.333 45.833 226 137.5
s79 212.834 79 363.501z" />
    <glyph glyph-name="one" unicode="1" horiz-adv-x="880" 
d="M809 0l-673.997 -0.000976562v71c20 1.33301 51.167 4.16602 93.5 8.49902s71.5 8.83301 87.5 13.5c20.667 6.66699 36.5 17.5 47.5 32.5s16.5 37.5 16.5 67.5v702h-249v84h55c72 0 136.5 13.333 193.5 40s97.833 55.334 122.5 86.001h83c-2 -43.333 -4 -94 -6 -152
s-3 -110 -3 -156v-593c0 -23.333 5.16699 -44.166 15.5 -62.499s25.166 -31.833 44.499 -40.5c17.333 -7.33301 45.666 -14 84.999 -20s68.666 -9.33301 87.999 -10v-71z" />
    <glyph glyph-name="two" unicode="2" horiz-adv-x="1144" 
d="M1047 0l-937 -0.00195312v136c18 20.667 43 43.834 75 69.501s70 53.5 114 83.5c26.667 18 58.667 37.667 96 59l127 70c52.667 28 93.167 52.667 121.5 74s54.166 47.666 77.499 78.999c15.333 20.667 27.666 46.5 36.999 77.5s14 75.167 14 132.5
c0 83.333 -22.333 144.5 -67 183.5s-102 58.5 -172 58.5c-43.333 0 -84.333 -8.5 -123 -25.5s-67.667 -40.5 -87 -70.5c4.66699 -21.333 10.5 -46.666 17.5 -75.999s10.5 -58 10.5 -86c0 -25.333 -10.5 -47.833 -31.5 -67.5s-52.167 -29.5 -93.5 -29.5
c-33.333 0 -59 11.5 -77 34.5s-27 53.833 -27 92.5c0 36 10 72.167 30 108.5s48.667 69.833 86 100.5c36.667 30 82 54.333 136 73s112.333 28 175 28c136.667 0 245.167 -30.5 325.5 -91.5s120.5 -142.5 120.5 -244.5c0 -48.667 -7.16699 -93 -21.5 -133
s-37.5 -75.333 -69.5 -106c-35.333 -34 -76.666 -63.167 -123.999 -87.5s-119.666 -58.166 -216.999 -101.499c-58 -26 -112 -53.167 -162 -81.5s-91 -55.833 -123 -82.5h769v-177z" />
    <glyph glyph-name="three" unicode="3" horiz-adv-x="1130" 
d="M487 -365c-62.667 0 -119.998 7.83398 -171.998 23.501s-96.667 36.834 -134 63.501s-66.166 57.334 -86.499 92.001s-30.5 70.334 -30.5 107.001c0 32.667 8 62.167 24 88.5s41.667 39.5 77 39.5c40 0 70.5 -9.83301 91.5 -29.5s31.5 -42.167 31.5 -67.5
c0 -21.333 -3.5 -48.333 -10.5 -81s-12.5 -56 -16.5 -70c4.66699 -6 13.167 -14 25.5 -24s27.5 -19 45.5 -27c21.333 -10 43.666 -18 66.999 -24s56.333 -9 99 -9c40 0 78.5 6.66699 115.5 20s69.5 34.666 97.5 63.999c29.333 30.667 52.166 66.5 68.499 107.5
s24.5 94.833 24.5 161.5c0 36 -3.83301 71.667 -11.5 107s-21.834 66 -42.501 92s-48.834 46.167 -84.501 60.5s-80.834 21.5 -135.501 21.5h-131v115h87c92 0 158.333 25.333 199 76s61 127 61 229c0 83.333 -19.667 146.166 -59 188.499s-95 63.5 -167 63.5
c-34.667 0 -63.167 -4.16699 -85.5 -12.5s-40.5 -16.5 -54.5 -24.5c-16.667 -9.33301 -30.334 -19.666 -41.001 -30.999l-24 -25l17 -78.5c6.66699 -31 10 -60.5 10 -88.5c0 -24.667 -10.5 -46.834 -31.5 -66.501s-51.833 -29.5 -92.5 -29.5
c-35.333 0 -61.166 12.667 -77.499 38s-24.5 54.666 -24.5 87.999c0 34.667 9.66699 70 29 106s48 69.667 86 101s84.333 56.666 139 75.999s117.667 29 189 29c82 0 149.833 -12.167 203.5 -36.5s95.834 -53.833 126.501 -88.5c30 -34 50.667 -69.667 62 -107
s17 -69.333 17 -96c0 -33.333 -4.66699 -66.833 -14 -100.5s-24.666 -64.834 -45.999 -93.501c-23.333 -31.333 -54.166 -59.833 -92.499 -85.5s-86.5 -46.5 -144.5 -62.5v-16c37.333 -3.33301 77.166 -11.666 119.499 -24.999s80.5 -33 114.5 -59
c35.333 -27.333 64.333 -62.5 87 -105.5s34 -97.5 34 -163.5c0 -128 -51.333 -231.833 -154 -311.5s-231 -119.5 -385 -119.5z" />
    <glyph glyph-name="four" unicode="4" horiz-adv-x="1157" 
d="M1084 90h-203v-455h-192v455h-640v154l701 855h131v-878h203v-131zM689 221v655l-540 -655h540z" />
    <glyph glyph-name="five" unicode="5" horiz-adv-x="1082" 
d="M843 469c44 -34.667 80.498 -79.333 109.498 -134s43.5 -123 43.5 -205c0 -143.333 -49 -261.666 -147 -354.999s-222.333 -140 -373 -140c-116.667 0 -215.334 27.667 -296.001 83s-121 119.666 -121 192.999c0 34 8.33301 63.667 25 89s42.334 38 77.001 38
c40 0 70.5 -10.5 91.5 -31.5s31.5 -43.833 31.5 -68.5c0 -21.333 -3.66699 -48 -11 -80s-13 -55.667 -17 -71c5.33301 -4.66699 14 -11 26 -19s26.333 -15.667 43 -23c17.333 -7.33301 38.5 -13.833 63.5 -19.5s54.167 -8.5 87.5 -8.5c42.667 0 83 8.66699 121 26
s70 43 96 77c28.667 37.333 50.167 79.833 64.5 127.5s21.5 108.167 21.5 181.5c0 94 -26.167 171.833 -78.5 233.5s-121.166 92.5 -206.499 92.5c-53.333 0 -103.166 -10 -149.499 -30s-87.833 -53.333 -124.5 -100l-67 26l85 722h716v-178h-635l-52 -424
c30 21.333 69.5 42.5 118.5 63.5s102.833 31.5 161.5 31.5c48.667 0 99.167 -7.5 151.5 -22.5s100.5 -39.833 144.5 -74.5z" />
    <glyph glyph-name="six" unicode="6" horiz-adv-x="1159" 
d="M1075 461c0 -69.333 -12.5 -134.33 -37.5 -194.997s-58.5 -112.334 -100.5 -155.001c-48.667 -48.667 -102.5 -84.667 -161.5 -108s-120.5 -35 -184.5 -35c-74 0 -141 13.667 -201 41s-111 66 -153 116c-42.667 50.667 -75.667 112.667 -99 186s-35 155.666 -35 246.999
c0 238 70.833 438.667 212.5 602s331.5 261.333 569.5 294l18 -90l-90 -16c-144.667 -46.667 -256.5 -119.334 -335.5 -218.001s-130.167 -218.334 -153.5 -359.001c57.333 50 114 85.333 170 106s115 31 177 31c111.333 0 206.5 -42.667 285.5 -128
s118.5 -191.666 118.5 -318.999zM858 434.003c0 108 -24.833 194.667 -74.5 260s-116.167 98 -199.5 98c-50 0 -96.5 -9.33301 -139.5 -28s-84.5 -50 -124.5 -94c-0.666992 -8 -1.66699 -26.5 -3 -55.5s-2 -51.833 -2 -68.5c0 -156 25.5 -278.167 76.5 -366.5
s118.167 -132.5 201.5 -132.5c79.333 0 143.333 34.5 192 103.5s73 163.5 73 283.5z" />
    <glyph glyph-name="seven" unicode="7" horiz-adv-x="1029" 
d="M1029 1008l-713 -1373h-125l671 1270h-393c-58 0 -103.333 -0.666992 -136 -2s-62.667 -7.66602 -90 -18.999c-20.667 -8.66699 -39.167 -30.834 -55.5 -66.501s-28.833 -81.167 -37.5 -136.5h-61v392h940v-65z" />
    <glyph glyph-name="eight" unicode="8" horiz-adv-x="1221" 
d="M1117 376c0 -112 -48.334 -208.335 -145.001 -289.002s-223.667 -121 -381 -121c-147.333 0 -265.333 37 -354 111s-133 169.333 -133 286c0 86 26.167 157.833 78.5 215.5s129.833 106.5 232.5 146.5c-84.667 47.333 -148 99.333 -190 156s-63 120.667 -63 192
c0 108.667 46.167 199.667 138.5 273s202.833 110 331.5 110s232.834 -34.667 312.501 -104s119.5 -156.333 119.5 -261c0 -67.333 -22 -131.166 -66 -191.499s-108.667 -109.833 -194 -148.5c110.667 -47.333 190.5 -99.666 239.5 -156.999s73.5 -130 73.5 -218z
M874.999 1102c0 81.333 -24.168 147.499 -72.501 198.499s-110.166 76.5 -185.499 76.5s-137 -24.5 -185 -73.5s-72 -109.833 -72 -182.5c0 -70 27.333 -129.333 82 -178s152 -100.667 292 -156c50 32 86 74.333 108 127s33 115.334 33 188.001zM916.998 328.997
c0 42 -9 78.834 -27 110.501s-44 60.5 -78 86.5c-32.667 25.333 -78.167 51.833 -136.5 79.5s-121.5 55.834 -189.5 84.501c-64 -34.667 -111 -78.834 -141 -132.501s-45 -114.834 -45 -183.501c0 -98 28.833 -177.167 86.5 -237.5s134.5 -90.5 230.5 -90.5
c92 0 165 26.667 219 80s81 121 81 203z" />
    <glyph glyph-name="nine" unicode="9" horiz-adv-x="1159" 
d="M1056 516c0 -116 -18.332 -225.168 -54.999 -327.501s-89.334 -192.166 -158.001 -269.499c-67.333 -76 -149.5 -139.167 -246.5 -189.5s-205.5 -83.5 -325.5 -99.5l-18 90l90 16c143.333 45.333 255.333 115 336 209s132.667 213.333 156 358
c-54.667 -46.667 -109.167 -80.834 -163.5 -102.501s-115.5 -32.5 -183.5 -32.5c-108.667 0 -203.167 42.333 -283.5 127s-120.5 191.334 -120.5 320.001c0 138 46.5 254.333 139.5 349s207.833 142 344.5 142c148.667 0 267.167 -53 355.5 -159s132.5 -249.667 132.5 -431z
M844.001 527.999c0 156 -25.499 278.169 -76.499 366.502s-118.167 132.5 -201.5 132.5c-79.333 0 -143.333 -34.167 -192 -102.5s-73 -162.5 -73 -282.5c0 -108 24.833 -194.667 74.5 -260s116.167 -98 199.5 -98c52 0 99.667 9.5 143 28.5s83.666 49.5 120.999 91.5
c0 2.66699 0.5 8 1.5 16s1.5 19.333 1.5 34c0 9.33301 0.333008 20.666 1 33.999s1 26.666 1 39.999z" />
    <glyph glyph-name="colon" unicode=":" horiz-adv-x="640" 
d="M457 853c0 -37.333 -13.5 -69.333 -40.5 -96s-59.167 -40 -96.5 -40s-69.5 13.333 -96.5 40s-40.5 58.667 -40.5 96s13.333 69.5 40 96.5s59 40.5 97 40.5s70.333 -13.5 97 -40.5s40 -59.167 40 -96.5zM457 115c0 -37.333 -13.5 -69.166 -40.5 -95.499
s-59.167 -39.5 -96.5 -39.5s-69.5 13.167 -96.5 39.5s-40.5 58.166 -40.5 95.499s13.5 69.5 40.5 96.5s59.167 40.5 96.5 40.5s69.5 -13.5 96.5 -40.5s40.5 -59.167 40.5 -96.5z" />
    <glyph glyph-name="semicolon" unicode=";" horiz-adv-x="640" 
d="M457 853c0 -37.333 -13.5 -69.333 -40.5 -96s-59.167 -40 -96.5 -40s-69.5 13.333 -96.5 40s-40.5 58.667 -40.5 96s13.333 69.5 40 96.5s59 40.5 97 40.5s70.333 -13.5 97 -40.5s40 -59.167 40 -96.5zM474 35c0 -48 -10.833 -93.165 -32.5 -135.498
s-46.5 -79.166 -74.5 -110.499c-28.667 -32 -59 -60.333 -91 -85s-61.333 -44 -88 -58l-46 67c32 20 60.5 40.167 85.5 60.5s45.833 40.166 62.5 59.499c20 23.333 37 48.666 51 75.999s23 58.333 27 93h-51c-44.667 0 -79.5 11.667 -104.5 35s-37.5 54.666 -37.5 93.999
c0 28 11.333 55.167 34 81.5s53.667 39.5 93 39.5c57.333 0 100.333 -19.167 129 -57.5s43 -91.5 43 -159.5z" />
    <glyph glyph-name="semicolon" unicode="&#x37e;" horiz-adv-x="640" 
d="M457 853c0 -37.333 -13.5 -69.333 -40.5 -96s-59.167 -40 -96.5 -40s-69.5 13.333 -96.5 40s-40.5 58.667 -40.5 96s13.333 69.5 40 96.5s59 40.5 97 40.5s70.333 -13.5 97 -40.5s40 -59.167 40 -96.5zM474 35c0 -48 -10.833 -93.165 -32.5 -135.498
s-46.5 -79.166 -74.5 -110.499c-28.667 -32 -59 -60.333 -91 -85s-61.333 -44 -88 -58l-46 67c32 20 60.5 40.167 85.5 60.5s45.833 40.166 62.5 59.499c20 23.333 37 48.666 51 75.999s23 58.333 27 93h-51c-44.667 0 -79.5 11.667 -104.5 35s-37.5 54.666 -37.5 93.999
c0 28 11.333 55.167 34 81.5s53.667 39.5 93 39.5c57.333 0 100.333 -19.167 129 -57.5s43 -91.5 43 -159.5z" />
    <glyph glyph-name="less" unicode="&#x3c;" horiz-adv-x="1317" 
d="M1118 22l-925 481v113l925 481v-137l-769 -400l769 -401v-137z" />
    <glyph glyph-name="equal" unicode="=" horiz-adv-x="1317" 
d="M1163 683h-1009v125h1009v-125zM1163 311h-1009v125h1009v-125z" />
    <glyph glyph-name="greater" unicode="&#x3e;" horiz-adv-x="1317" 
d="M1124 503l-925 -481v137l769 401l-769 400v137l925 -481v-113z" />
    <glyph glyph-name="question" unicode="?" horiz-adv-x="980" 
d="M771 1329c36.667 -38.667 63.8301 -82.167 81.4971 -130.5s26.5 -100.833 26.5 -157.5c0 -123.333 -39.333 -224 -118 -302s-186.667 -125 -324 -141v-221h-92v379c42 3.33301 83.667 10.166 125 20.499s78.333 27.166 111 50.499c34 24.667 60.5 54.5 79.5 89.5
s28.5 83.833 28.5 146.5c0 100 -21.167 176.667 -63.5 230s-104.166 80 -185.499 80c-30.667 0 -57.5 -4.5 -80.5 -13.5s-39.833 -17.5 -50.5 -25.5c3.33301 -16 7.83301 -39 13.5 -69s8.5 -53 8.5 -69c0 -24.667 -10.667 -47.167 -32 -67.5s-52.333 -30.5 -93 -30.5
c-36 0 -61.667 12.333 -77 37s-23 53.334 -23 86.001c0 26.667 7.33301 52.834 22 78.501s37.667 50.5 69 74.5c26.667 21.333 62.834 39.666 108.501 54.999s93.167 23 142.5 23c70.667 0 133.334 -11.167 188.001 -33.5s99.667 -52.166 135 -89.499zM530.996 115
c0 -37.333 -13.5 -69.166 -40.5 -95.499s-59.167 -39.5 -96.5 -39.5s-69.5 13.167 -96.5 39.5s-40.5 58.166 -40.5 95.499s13.5 69.5 40.5 96.5s59.167 40.5 96.5 40.5s69.5 -13.5 96.5 -40.5s40.5 -59.167 40.5 -96.5z" />
    <glyph glyph-name="at" unicode="@" horiz-adv-x="1902" 
d="M1530 -119c-66.667 -58 -145.83 -104.83 -237.497 -140.497s-193.834 -53.5 -306.501 -53.5c-100.667 0 -199.667 16.167 -297 48.5s-185 81.5 -263 147.5c-77.333 66 -139.666 148.167 -186.999 246.5s-71 214.166 -71 347.499c0 114 21.333 224.667 64 332
s103.667 203 183 287c76.667 82 171.5 148.167 284.5 198.5s236.167 75.5 369.5 75.5c115.333 0 215.333 -18.5 300 -55.5s154 -85.833 208 -146.5c54 -60 94.5 -129 121.5 -207s40.5 -159.333 40.5 -244c0 -162.667 -44.667 -300.167 -134 -412.5
s-202.333 -168.5 -339 -168.5c-56.667 0 -104.667 14.167 -144 42.5s-61.333 68.166 -66 119.499l-7 2c-32 -48.667 -68.5 -87.5 -109.5 -116.5s-82.5 -43.5 -124.5 -43.5c-27.333 0 -55.166 4.5 -83.499 13.5s-53.5 23.833 -75.5 44.5c-22 22 -39.5 50.667 -52.5 86
s-19.5 79 -19.5 131c0 48.667 11.167 103.167 33.5 163.5s52.5 117.833 90.5 172.5c38 55.333 87.167 103.333 147.5 144s125.5 61 195.5 61c37.333 0 70.5 -10.5 99.5 -31.5s46.833 -51.833 53.5 -92.5h6l43 112h149l-189 -538c-6 -16.667 -10.833 -35.834 -14.5 -57.501
s-5.5 -38.834 -5.5 -51.501c0 -34 8.66699 -58.833 26 -74.5s39.666 -23.5 66.999 -23.5c103.333 0 189.666 48.5 258.999 145.5s104 224.833 104 383.5c0 78.667 -12.333 151.5 -37 218.5s-62.334 126.167 -113.001 177.5c-48.667 50.667 -110 90.667 -184 120
s-158.667 44 -254 44c-90.667 0 -179 -17.667 -265 -53s-164.333 -87.333 -235 -156c-68.667 -66.667 -124.334 -149.667 -167.001 -249s-64 -211.666 -64 -336.999c0 -120.667 16.667 -226.834 50 -318.501s80.333 -168.5 141 -230.5c59.333 -60 129.333 -105 210 -135
s168 -45 262 -45c106 0 200.333 14.333 283 43s157 70.334 223 125.001zM1182 742.003c-9.33301 54 -24.3311 93.3311 -44.998 117.998s-51 37 -91 37c-42.667 0 -81.834 -17.167 -117.501 -51.5s-65.834 -75.166 -90.501 -122.499
c-26 -49.333 -46.167 -103.166 -60.5 -161.499s-21.5 -112.166 -21.5 -161.499c0 -56.667 6.83301 -100.167 20.5 -130.5s36.167 -45.5 67.5 -45.5c45.333 0 86 15.667 122 47s69.667 75.666 101 132.999z" />
    <glyph glyph-name="A" unicode="A" horiz-adv-x="1374" 
d="M1421 0l-591.002 0.000976562v71c52 3.33301 95.167 10 129.5 20s51.5 22.333 51.5 37c0 6 -0.666992 13.333 -2 22s-3.33301 16.334 -6 23.001l-118 318h-497c-18.667 -46.667 -33.834 -87.334 -45.501 -122.001l-31.5 -96c-8.66699 -28.667 -14.667 -52 -18 -70
s-5 -32.667 -5 -44c0 -26.667 21 -47.334 63 -62.001s89.333 -23.334 142 -26.001v-71h-534v71c17.333 1.33301 39 5.16602 65 11.499s47.333 14.833 64 25.5c26.667 18 47.334 36.833 62.001 56.5s29 46.834 43 81.501l236 600l230 593h80l473 -1224
c10 -26 21.333 -47 34 -63s30.334 -31.667 53.001 -47c15.333 -9.33301 35.333 -17.166 60 -23.499s45.334 -9.83301 62.001 -10.5v-71zM848.998 580.001l-215 550l-211 -550h426z" />
    <glyph glyph-name="B" unicode="B" horiz-adv-x="1339" 
d="M1104 661c41.333 -28 75.6709 -64.665 103.004 -109.998s41 -100.333 41 -165c0 -66 -14.333 -123.333 -43 -172s-66 -88.667 -112 -120c-44.667 -30.667 -95.167 -54 -151.5 -70s-114.5 -24 -174.5 -24h-672v71c16 1.33301 39.333 4.16602 70 8.49902
s52.667 9.5 66 15.5c20.667 9.33301 35.334 21.833 44.001 37.5s13 35.834 13 60.501v1020c0 22.667 -3.83301 42.667 -11.5 60s-22.834 31.333 -45.501 42c-20 10 -42.333 17.667 -67 23s-45.334 8.66602 -62.001 9.99902v71h655c50.667 0 99.167 -5 145.5 -15
s90.5 -27.667 132.5 -53c39.333 -23.333 71.666 -55 96.999 -95s38 -88.667 38 -146c0 -50 -9 -94.5 -27 -133.5s-43.333 -72.5 -76 -100.5c-30.667 -26.667 -65.834 -49.167 -105.501 -67.5s-82.5 -32.5 -128.5 -42.5v-9c40.667 -4.66699 86.167 -14.834 136.5 -30.501
s95.166 -37.5 134.499 -65.5zM863.005 875.002c24.667 28.667 41.832 60 51.499 94s14.5 74.333 14.5 121c0 78 -21.333 139.167 -64 183.5s-110 66.5 -202 66.5c-21.333 0 -48.166 -0.5 -80.499 -1.5l-81.5 -2.5v-545h127c54.667 0 101.5 7 140.5 21s70.5 35 94.5 63z
M1001 422.002c0 84 -28.167 153 -84.5 207s-136.833 81 -241.5 81c-42.667 0 -78.667 -0.5 -108 -1.5s-51.333 -1.83301 -66 -2.5v-500c0 -42 17 -73.667 51 -95s81.333 -32 142 -32c99.333 0 175.333 29 228 87s79 143.333 79 256z" />
    <glyph glyph-name="C" unicode="C" horiz-adv-x="1315" 
d="M723 -33c-84.667 0 -165.83 16.6699 -243.497 50.0029s-146.5 81.333 -206.5 144c-59.333 62.667 -106.666 139.167 -141.999 229.5s-53 192.166 -53 305.499s17.333 216.166 52 308.499s82.667 171.833 144 238.5c60.667 66 132.334 117 215.001 153s171 54 265 54
c70 0 133.333 -8.66699 190 -26s110.667 -41.666 162 -72.999l41 68h80l9 -506h-82c-10.667 49.333 -26.667 102.833 -48 160.5s-46.333 106.5 -75 146.5c-32 45.333 -70 80.833 -114 106.5s-94.333 38.5 -151 38.5c-64.667 0 -124.834 -14.333 -180.501 -43
s-103.834 -71 -144.501 -127c-38.667 -54 -69 -122.667 -91 -206s-33 -176.333 -33 -279c0 -90.667 11.5 -173.834 34.5 -249.501s55.833 -142.167 98.5 -199.5c42.667 -56.667 93.167 -101 151.5 -133s123.5 -48 195.5 -48c54 0 103.667 8.5 149 25.5
s84.666 39.5 117.999 67.5c33.333 29.333 62.666 62.666 87.999 99.999s46 78 62 122l75 -36c-57.333 -140.667 -133.333 -241.167 -228 -301.5s-207.334 -90.5 -338.001 -90.5z" />
    <glyph glyph-name="D" unicode="D" horiz-adv-x="1534" 
d="M1457 701c0 -120.667 -22.667 -225.333 -68 -314s-104.333 -161.334 -177 -218.001c-73.333 -56.667 -155.666 -99 -246.999 -127s-185.666 -42 -282.999 -42h-588v71c19.333 0 44.5 1.83301 75.5 5.5s51.5 7.83398 61.5 12.501c20 8.66699 34.5 21.5 43.5 38.5
s13.5 37.5 13.5 61.5v1024c0 22.667 -3.83301 43 -11.5 61s-22.834 32.333 -45.501 43c-20.667 10 -43 17.333 -67 22s-44.667 7.66699 -62 9v71h620c85.333 0 169.333 -13.167 252 -39.5s154.667 -61.833 216 -106.5c83.333 -59.333 148.666 -137 195.999 -233
s71 -209 71 -339zM1212 702.001c0 95.333 -12.666 181.499 -37.999 258.499s-62.333 144.167 -111 201.5c-46 54.667 -102.5 97.667 -169.5 129s-141.5 47 -223.5 47c-27.333 0 -58.166 -0.5 -92.499 -1.5s-59.833 -1.83301 -76.5 -2.5v-1091
c0 -60.667 17.667 -102.667 53 -126s89.666 -35 162.999 -35c84.667 0 158.667 15 222 45s114.666 71.667 153.999 125c41.333 56 71.5 120.833 90.5 194.5s28.5 158.834 28.5 255.501z" />
    <glyph glyph-name="E" unicode="E" horiz-adv-x="1338" 
d="M1291 418l-26.998 -417.997h-1178v71c20 1.33301 46.667 4.16602 80 8.49902s55 8.83301 65 13.5c21.333 10 36.166 23 44.499 39s12.5 36.333 12.5 61v1020c0 22 -3.66699 41.5 -11 58.5s-22.666 30.833 -45.999 41.5c-18 8.66699 -42.167 16.334 -72.5 23.001
s-54.5 10.667 -72.5 12v71h1098v-342h-75c-13.333 50.667 -42.166 104.5 -86.499 161.5s-86.5 88.167 -126.5 93.5c-20.667 2.66699 -45.334 4.66699 -74.001 6s-61.334 2 -98.001 2h-223v-564h160c51.333 0 88.833 4.83301 112.5 14.5s44.5 25.834 62.5 48.501
c14.667 19.333 27.167 45.166 37.5 77.499s17.166 62.833 20.499 91.5h75v-555h-75c-2.66699 32 -9.83398 65.833 -21.501 101.5s-23.834 61.5 -36.501 77.5c-20.667 26 -44.167 43 -70.5 51s-61.166 12 -104.499 12h-160v-426c0 -42.667 3 -76.334 9 -101.001
s17.667 -43.334 35 -56.001s41 -20.834 71 -24.501s72.667 -5.5 128 -5.5h87c36 0 66.333 1.33301 91 4c25.333 2.66699 51.5 7.5 78.5 14.5s46.167 16.5 57.5 28.5c30.667 32 62.834 80.5 96.501 145.5s55.167 112.833 64.5 143.5h72z" />
    <glyph glyph-name="F" unicode="F" horiz-adv-x="1227" 
d="M1199 1064l-74.998 0.00292969c-14 52.667 -43.167 109 -87.5 169s-86.833 93 -127.5 99c-20.667 2.66699 -45.167 4.66699 -73.5 6s-60.5 2 -96.5 2h-238v-570h163c49.333 0 87.666 5.16699 114.999 15.5s50.666 26.166 69.999 47.499
c13.333 14.667 25.5 37.5 36.5 68.5s18.167 64.167 21.5 99.5h76v-557h-76c-2 29.333 -8.83301 62.666 -20.5 99.999s-24.167 64.333 -37.5 81c-20 24.667 -45.167 41.5 -75.5 50.5s-66.833 13.5 -109.5 13.5h-163v-489c0 -22 4.33301 -41.667 13 -59s24 -31.333 46 -42
c10 -4.66699 31.667 -10.334 65 -17.001s58.666 -10.334 75.999 -11.001v-71h-615v71c20 1.33301 46.667 3.5 80 6.5s55 6.83301 65 11.5c20 8.66699 34.5 21.5 43.5 38.5s13.5 37.5 13.5 61.5v1024c0 22 -3.66699 41.5 -11 58.5s-22.666 30.833 -45.999 41.5
c-18 8.66699 -42.167 16.334 -72.5 23.001s-54.5 10.667 -72.5 12v71h1113v-355z" />
    <glyph glyph-name="G" unicode="G" horiz-adv-x="1485" 
d="M1471 567c-16 -2 -37.498 -5.16797 -64.498 -9.50098s-48.833 -10.5 -65.5 -18.5c-20 -10 -34.167 -24.167 -42.5 -42.5s-12.5 -39.833 -12.5 -64.5v-110c0 -80 0.5 -134 1.5 -162s2.16699 -51 3.5 -69c-88.667 -40 -177 -70.667 -265 -92s-174.333 -32 -259 -32
c-90.667 0 -178 17 -262 51s-157.333 82.333 -220 145c-63.333 63.333 -113.666 140.333 -150.999 231s-56 192 -56 304c0 108 17.833 208.167 53.5 300.5s86.167 172.5 151.5 240.5c63.333 66.667 138.833 118.5 226.5 155.5s181.5 55.5 281.5 55.5
c80 0 149.667 -9.66699 209 -29s111.666 -42.666 156.999 -69.999l41 68h80l9 -496h-82c-14 54.667 -31.333 108.5 -52 161.5s-47.334 100.5 -80.001 142.5s-72.5 75.5 -119.5 100.5s-103.167 37.5 -168.5 37.5c-71.333 0 -135 -14.5 -191 -43.5
s-104.667 -72.167 -146 -129.5c-40.667 -55.333 -72 -124.333 -94 -207s-33 -175 -33 -277c0 -90 10.833 -174.833 32.5 -254.5s53.167 -148.5 94.5 -206.5c41.333 -59.333 93 -106 155 -140s132.333 -51 211 -51c58.667 0 112.167 9 160.5 27s82.5 37 102.5 57
c5.33301 34.667 8.16602 69.667 8.49902 105s0.5 65.333 0.5 90v78c0 28 -3.83301 52.833 -11.5 74.5s-23.5 37.5 -47.5 47.5c-22 10 -51.833 17.5 -89.5 22.5s-67.167 8.16699 -88.5 9.5v73h622v-73z" />
    <glyph glyph-name="H" unicode="H" horiz-adv-x="1669" 
d="M1567 0l-588.996 -0.00195312v71l69.5 6c30.333 2.66699 51.166 6.66699 62.499 12c20 8 34.667 20.167 44 36.5s14 37.5 14 63.5v505h-667v-494c0 -23.333 3.83301 -43 11.5 -59s22.834 -30 45.501 -42c11.333 -6 31.5 -12 60.5 -18s51.833 -9.33301 68.5 -10v-71h-589
v71l69.5 6c30.333 2.66699 51.166 6.66699 62.499 12c20 8 34.667 20.167 44 36.5s14 37.5 14 63.5v1024c0 21.333 -4.33301 40.833 -13 58.5s-23.667 31.5 -45 41.5c-18 8.66699 -39.833 16.334 -65.5 23.001s-47.834 10.667 -66.501 12v71h589v-71
c-18.667 -0.666992 -41.5 -3.66699 -68.5 -9s-47.167 -10.333 -60.5 -15c-22.667 -8 -37.834 -21.333 -45.501 -40s-11.5 -39 -11.5 -61v-440h667v430c0 21.333 -4.33301 40.833 -13 58.5s-23.667 31.5 -45 41.5c-18 8.66699 -39.833 16.334 -65.5 23.001
s-47.834 10.667 -66.501 12v71h589v-71c-18.667 -0.666992 -41.5 -3.66699 -68.5 -9s-47.167 -10.333 -60.5 -15c-22.667 -8 -37.834 -21.333 -45.501 -40s-11.5 -39 -11.5 -61v-1023c0 -23.333 3.83301 -43 11.5 -59s22.834 -30 45.501 -42c11.333 -6 31.5 -12 60.5 -18
s51.833 -9.33301 68.5 -10v-71z" />
    <glyph glyph-name="I" unicode="I" horiz-adv-x="798" 
d="M718 0l-639.001 -0.00195312v71l78 6c34 2.66699 58 6.66699 72 12c22 8.66699 38 20.5 48 35.5s15 35.833 15 62.5v1028c0 23.333 -3.66699 42.833 -11 58.5s-24.666 28.834 -51.999 39.501c-20 8 -45.167 15.5 -75.5 22.5s-55.166 11.167 -74.499 12.5v71h639v-71
c-20.667 -0.666992 -45.334 -3.16699 -74.001 -7.5s-53.667 -9.83301 -75 -16.5c-25.333 -8 -42.333 -21 -51 -39s-13 -38 -13 -60v-1027c0 -22 4.83301 -41.5 14.5 -58.5s26.167 -30.5 49.5 -40.5c14 -5.33301 36.833 -11.166 68.5 -17.499s58.5 -9.83301 80.5 -10.5v-71z
" />
    <glyph glyph-name="J" unicode="J" horiz-adv-x="1060" 
d="M1006 1348c-18.667 -0.666992 -41.832 -3.16992 -69.499 -7.50293s-51.167 -9.83301 -70.5 -16.5c-22.667 -8 -38 -21.333 -46 -40s-12 -39 -12 -61v-841c0 -44 -8.83301 -90.667 -26.5 -140s-43.5 -93.333 -77.5 -132
c-39.333 -45.333 -86.166 -80.666 -140.499 -105.999s-116.5 -38 -186.5 -38c-108.667 0 -196.834 30.5 -264.501 91.5s-101.5 143.167 -101.5 246.5c0 45.333 11.667 85.5 35 120.5s57.333 52.5 102 52.5c40 0 72.167 -11.167 96.5 -33.5s36.5 -51.833 36.5 -88.5
c0 -21.333 -4.33301 -42.666 -13 -63.999s-18.334 -40.333 -29.001 -57l-34 -54c-12.667 -20.667 -21.667 -39.334 -27 -56.001c14 -22 35.833 -41.333 65.5 -58s69.5 -25 119.5 -25c48.667 0 88.5 11.167 119.5 33.5s54.167 52.166 69.5 89.499
c14.667 34.667 25.167 77.334 31.5 128.001s9.5 107.334 9.5 170.001v751c0 23.333 -3.83301 42.833 -11.5 58.5s-23.5 29.5 -47.5 41.5c-20.667 10.667 -46.5 18.834 -77.5 24.501s-56.5 9.16699 -76.5 10.5v71h626v-71z" />
    <glyph glyph-name="K" unicode="K" horiz-adv-x="1422" 
d="M1475 0l-397.996 0.00390625c-76.667 118.667 -161.834 236.5 -255.501 353.5s-191.834 230.5 -294.501 340.5h-26v-494c0 -22 4.16699 -41.667 12.5 -59s23.5 -31.333 45.5 -42c10.667 -4.66699 30.5 -10.334 59.5 -17.001s53.167 -10.334 72.5 -11.001v-71h-589v71
l67 6c29.333 2.66699 50 6.66699 62 12c20 8.66699 34.5 21.5 43.5 38.5s13.5 37.5 13.5 61.5v1024c0 22.667 -3.83301 42.334 -11.5 59.001s-22.834 30.334 -45.501 41.001c-18 8.66699 -39.333 16.334 -64 23.001s-46.334 10.667 -65.001 12v71h589v-71
c-18.667 -0.666992 -42 -3.66699 -70 -9s-48.667 -10.333 -62 -15c-22.667 -8 -38 -21.333 -46 -40s-12 -39 -12 -61v-490h20c60 50.667 119 103.5 177 158.5s110.667 109.833 158 164.5c52.667 60.667 91.167 109.167 115.5 145.5s36.5 68.5 36.5 96.5
c0 10 -6.16699 18.167 -18.5 24.5s-26.5 11.5 -42.5 15.5c-18.667 4 -35.334 6.5 -50.001 7.5l-36 2.5v71h532v-71c-2 0 -6.33301 -0.333008 -13 -1s-14.334 -1.33398 -23.001 -2.00098c-9.33301 -0.666992 -18.666 -2 -27.999 -4s-21.333 -4.33301 -36 -7
c-23.333 -5.33301 -47.5 -13.833 -72.5 -25.5s-45.5 -26.167 -61.5 -43.5l-215 -242c-74.667 -83.333 -148.667 -159.333 -222 -228c101.333 -114.667 185.166 -213.334 251.499 -296.001l211.5 -265c28.667 -36 57.334 -64.833 86.001 -86.5s53.334 -37.834 74.001 -48.501
c17.333 -8.66699 39 -15.334 65 -20.001s47.667 -7.33398 65 -8.00098v-71z" />
    <glyph glyph-name="L" unicode="L" horiz-adv-x="1236" 
d="M1237 422l-29.9971 -422h-1109v71c16 1.33301 39.167 3.66602 69.5 6.99902s51.5 7.66602 63.5 12.999c20 8.66699 34.5 21.334 43.5 38.001s13.5 38 13.5 64v1016c0 22.667 -3.83301 42.667 -11.5 60s-22.834 31.333 -45.501 42c-15.333 8 -36.833 15.833 -64.5 23.5
s-50.5 12.167 -68.5 13.5v71h599v-71c-18.667 -0.666992 -42.834 -4 -72.501 -10s-51.167 -11.333 -64.5 -16c-22.667 -8 -38.167 -21.667 -46.5 -41s-12.5 -40 -12.5 -62v-953c0 -44 2.16699 -78.167 6.5 -102.5s14.5 -43.166 30.5 -56.499
c15.333 -12 38.166 -19.833 68.499 -23.5s72.833 -5.5 127.5 -5.5c24.667 0 50.334 0.666992 77.001 2s52 4 76 8c23.333 4 44.833 9.5 64.5 16.5s34.167 15.833 43.5 26.5c27.333 30.667 59.166 77.167 95.499 139.5s61.5 112.833 75.5 151.5h71z" />
    <glyph glyph-name="M" unicode="M" horiz-adv-x="1899" 
d="M1806 0h-627.001v71c22.667 0.666992 51.834 3 87.501 7s60.167 9.66699 73.5 17c20.667 12.667 35.834 27.167 45.501 43.5s14.5 36.833 14.5 61.5v1032h-15l-484 -1209h-50l-461 1234h-13v-847c0 -82 5.16699 -144.333 15.5 -187s26.166 -73.334 47.499 -92.001
c14.667 -14 45 -27.333 91 -40s76 -19.334 90 -20.001v-71h-573v71c30 2.66699 61.5 7.66699 94.5 15s58.5 18.333 76.5 33c23.333 18.667 39.333 47.334 48 86.001s13 103.334 13 194.001v726c0 42 -5 76.333 -15 103s-24.333 48.334 -43 65.001
c-20.667 18 -46 31.333 -76 40s-59.667 13.667 -89 15v71h484l406 -1064l347 890c12.667 32.667 23.5 66.834 32.5 102.501s13.833 59.5 14.5 71.5h463v-71c-18.667 -0.666992 -42.5 -3.66699 -71.5 -9s-50.167 -10.333 -63.5 -15c-22.667 -8 -38 -21.333 -46 -40
s-12 -39 -12 -61v-1023c0 -23.333 4 -43 12 -59s23.333 -30 46 -42c12 -6.66699 33.333 -12.834 64 -18.501s55 -8.83398 73 -9.50098v-71z" />
    <glyph glyph-name="N" unicode="N" horiz-adv-x="1571" 
d="M1554 1348c-18.667 -0.666992 -47.332 -6 -85.999 -16s-66.334 -20.333 -83.001 -31c-24 -16.667 -40.167 -48.667 -48.5 -96s-12.5 -107.333 -12.5 -180v-1039h-87l-860 1161v-732c0 -82 5.16699 -145 15.5 -189s26.166 -75.333 47.499 -94
c15.333 -14.667 47 -28.334 95 -41.001s79.667 -19.334 95 -20.001v-71h-582v71c18 1.33301 48.333 7.83301 91 19.5s69.334 22.167 80.001 31.5c23.333 18.667 39.333 47.167 48 85.5s13 103.833 13 196.5v699c0 30.667 -5.33301 61.334 -16 92.001s-25 54.334 -43 71.001
c-24 22 -56.5 40.833 -97.5 56.5s-74.167 24.167 -99.5 25.5v71h405l798 -1082v675c0 82.667 -5.33301 146.167 -16 190.5s-26 73.833 -46 88.5c-18.667 12.667 -49.167 25 -91.5 37s-74.5 18.667 -96.5 20v71h577v-71z" />
    <glyph glyph-name="O" unicode="O" horiz-adv-x="1524" 
d="M1244 1251c62.667 -65.333 111.668 -144.165 147.001 -236.498s53 -194.5 53 -306.5c0 -112.667 -18 -215 -54 -307s-86 -170.333 -150 -235c-62 -64 -134 -113.333 -216 -148s-169.333 -52 -262 -52c-98.667 0 -189.834 18.5 -273.501 55.5s-155.5 88.5 -215.5 154.5
c-60 64.667 -107.167 143.167 -141.5 235.5s-51.5 191.166 -51.5 296.499c0 115.333 18 218.166 54 308.499s85.667 168.5 149 234.5c62.667 65.333 135.5 115.333 218.5 150s169.833 52 260.5 52c94 0 182.667 -17.667 266 -53s155.333 -85 216 -149zM1095 245.001
c37.333 60.667 64.5 129.335 81.5 206.002s25.5 162.334 25.5 257.001c0 97.333 -9.5 186.666 -28.5 267.999s-46.833 150.666 -83.5 207.999c-36.667 56.667 -82.667 100.834 -138 132.501s-118.666 47.5 -189.999 47.5c-80 0 -148 -18.333 -204 -55
s-101.667 -85.667 -137 -147c-33.333 -58.667 -58.166 -127.334 -74.499 -206.001s-24.5 -161.334 -24.5 -248.001c0 -96 8.66699 -182.667 26 -260s44.666 -146 81.999 -206c36 -58.667 81.333 -104.5 136 -137.5s120 -49.5 196 -49.5c71.333 0 135.666 16.667 192.999 50
s104 80 140 140z" />
    <glyph glyph-name="P" unicode="P" horiz-adv-x="1249" 
d="M1184 1069c0 -74 -14.4971 -139.501 -43.4971 -196.501s-69.167 -104.167 -120.5 -141.5c-50.667 -37.333 -106.334 -64.666 -167.001 -81.999s-125 -26 -193 -26h-159v-430c0 -23.333 3.83301 -43.833 11.5 -61.5s23.5 -31.167 47.5 -40.5
c12 -4.66699 33.167 -9 63.5 -13s58.166 -6.33301 83.499 -7v-71h-609v71c16 1.33301 39.167 3.66602 69.5 6.99902s51.5 7.66602 63.5 12.999c20 8.66699 34.5 21.334 43.5 38.001s13.5 38 13.5 64v1024c0 23.333 -3.33301 44.333 -10 63s-22.334 32.667 -47.001 42
c-25.333 8.66699 -50.5 14.834 -75.5 18.501s-46.5 6.16699 -64.5 7.5v71h648c132 0 239.167 -31.833 321.5 -95.5s123.5 -148.5 123.5 -254.5zM880.003 826.999c22.667 32 37.667 65.1709 45 99.5039s11 65.166 11 92.499c0 38 -4.5 76.667 -13.5 116
s-24.5 73.666 -46.5 102.999c-23.333 31.333 -54 55.666 -92 72.999s-85.333 26 -142 26h-141v-627h102c72 0 130.5 11.167 175.5 33.5s78.833 50.166 101.5 83.499z" />
    <glyph glyph-name="Q" unicode="Q" horiz-adv-x="1524" 
d="M1244 1251c62.667 -65.333 111.669 -144.165 147.002 -236.498s53 -194.5 53 -306.5c0 -89.333 -11.667 -172 -35 -248s-56.333 -144 -99 -204c-40.667 -57.333 -89 -107.333 -145 -150s-118.667 -76.334 -188 -101.001c1.33301 -73.333 27.666 -139.166 78.999 -197.499
s106.666 -87.5 165.999 -87.5c54.667 0 96.334 1.83301 125.001 5.5s52.334 7.16699 71.001 10.5v-79c-30 -8.66699 -67.5 -17.834 -112.5 -27.501s-107.5 -14.5 -187.5 -14.5c-44.667 0 -88.334 6.5 -131.001 19.5s-81.334 33.833 -116.001 62.5s-63.5 65 -86.5 109
s-37.833 98 -44.5 162c-95.333 3.33301 -183.666 23.833 -264.999 61.5s-151 89.167 -209 154.5c-58.667 66 -104.334 143.5 -137.001 232.5s-49 186.167 -49 291.5c0 115.333 18 218.166 54 308.499s85.667 168.5 149 234.5c62.667 65.333 135.5 115.333 218.5 150
s169.833 52 260.5 52c94 0 182.667 -17.667 266 -53s155.333 -85 216 -149zM1095 245.001c37.333 60.667 64.5 129.335 81.5 206.002s25.5 162.334 25.5 257.001c0 97.333 -9.5 186.666 -28.5 267.999s-46.833 150.666 -83.5 207.999
c-36.667 56.667 -82.667 100.834 -138 132.501s-118.666 47.5 -189.999 47.5c-80 0 -148 -18.333 -204 -55s-101.667 -85.667 -137 -147c-33.333 -58.667 -58.166 -127.334 -74.499 -206.001s-24.5 -161.334 -24.5 -248.001c0 -96 8.66699 -182.667 26 -260
s44.666 -146 81.999 -206c36 -58.667 81.333 -104.5 136 -137.5s120 -49.5 196 -49.5c71.333 0 135.666 16.667 192.999 50s104 80 140 140z" />
    <glyph glyph-name="R" unicode="R" horiz-adv-x="1437" 
d="M1480 0h-381.997c-84.667 132.667 -161.167 247.334 -229.5 344.001s-142.5 196.334 -222.5 299.001h-145v-450c0 -23.333 3.66699 -43.833 11 -61.5s23 -31.167 47 -40.5c12 -4.66699 33 -9 63 -13s55.333 -6.33301 76 -7v-71h-600v71
c16 1.33301 39.167 3.66602 69.5 6.99902s51.5 7.66602 63.5 12.999c20 8.66699 34.5 21.334 43.5 38.001s13.5 38 13.5 64v1026c0 23.333 -3.33301 44 -10 62s-22.334 31.667 -47.001 41c-16.667 6 -38.334 11.5 -65.001 16.5s-49.334 8.16699 -68.001 9.5v71h655
c60 0 116.333 -6.16699 169 -18.5s100.334 -32.166 143.001 -59.499c41.333 -26.667 74.333 -61.5 99 -104.5s37 -94.833 37 -155.5c0 -54.667 -8.33301 -103 -25 -145s-41.334 -78.333 -74.001 -109c-30 -28.667 -66 -53.5 -108 -74.5s-88.333 -38.833 -139 -53.5
l174.5 -234l170.5 -231c29.333 -40 55.833 -69.5 79.5 -88.5s47.167 -34.5 70.5 -46.5c17.333 -8.66699 39 -15.334 65 -20.001s47.667 -7.33398 65 -8.00098v-71zM954.003 1058c0 86 -24.667 154.167 -74 204.5s-119 75.5 -209 75.5h-170v-609h131
c92 0 168.667 29.5 230 88.5s92 139.167 92 240.5z" />
    <glyph glyph-name="S" unicode="S" horiz-adv-x="1149" 
d="M981 651c30 -33.333 52.165 -69.8369 66.498 -109.504s21.5 -85.834 21.5 -138.501c0 -125.333 -46.333 -228.666 -139 -309.999s-207.667 -122 -345 -122c-63.333 0 -126.666 9.83301 -189.999 29.5s-118 43.5 -164 71.5l-43 -73h-80l-14 486h81
c16.667 -60 36.167 -114.167 58.5 -162.5s51.833 -93.5 88.5 -135.5c34.667 -39.333 75.167 -70.666 121.5 -93.999s100.166 -35 161.499 -35c46 0 86.167 6 120.5 18s62.166 29 83.499 51s37.166 47.833 47.499 77.5s15.5 63.834 15.5 102.501
c0 56.667 -16 109.5 -48 158.5s-79.667 86.167 -143 111.5l-149 57.5c-56 21 -104.333 40.833 -145 59.5c-80 36 -142.167 83.167 -186.5 141.5s-66.5 134.5 -66.5 228.5c0 54 11 104.333 33 151s53.333 88.334 94 125.001c38.667 34.667 84.334 61.834 137.001 81.501
s107.667 29.5 165 29.5c65.333 0 123.833 -10 175.5 -30s98.834 -43.333 141.501 -70l41 68h80l8 -471h-81c-14.667 54 -31.167 105.667 -49.5 155s-42.166 94 -71.499 134c-28.667 38.667 -63.667 69.5 -105 92.5s-92 34.5 -152 34.5c-63.333 0 -117.333 -20.333 -162 -61
s-67 -90.334 -67 -149.001c0 -61.333 14.333 -112.166 43 -152.499s70.334 -73.5 125.001 -99.5c48.667 -23.333 96.5 -43.5 143.5 -60.5s92.5 -35.167 136.5 -54.5c40 -17.333 78.5 -37 115.5 -59s69.167 -47.667 96.5 -77z" />
    <glyph glyph-name="T" unicode="T" horiz-adv-x="1267" 
d="M1251 1034l-68.9971 0.00195312c-6 24 -16.833 52.5 -32.5 85.5s-33.167 64.167 -52.5 93.5c-20 30.667 -41.833 57.5 -65.5 80.5s-46.5 36.167 -68.5 39.5c-20.667 2.66699 -46.667 4.66699 -78 6s-60.333 2 -87 2h-58v-1135c0 -22 4.66699 -42.167 14 -60.5
s25.666 -32.5 48.999 -42.5c12 -4.66699 37.167 -11 75.5 -19s68.166 -12.333 89.499 -13v-71h-670v71c18.667 1.33301 47.167 4 85.5 8s64.833 9 79.5 15c22 8.66699 38.167 21.167 48.5 37.5s15.5 38.166 15.5 65.499v1144h-58c-20.667 0 -46.334 -0.5 -77.001 -1.5
s-60 -3.16699 -88 -6.5c-22 -2.66699 -44.833 -15.834 -68.5 -39.501s-45.5 -50.5 -65.5 -80.5s-37.667 -61.833 -53 -95.5s-26 -61.5 -32 -83.5h-70v385h1236v-385z" />
    <glyph glyph-name="U" unicode="U" horiz-adv-x="1549" 
d="M1533 1348c-18.667 -0.666992 -46 -4.66602 -82 -11.999s-65.333 -18.333 -88 -33c-22.667 -15.333 -38.334 -47 -47.001 -95s-13 -106.667 -13 -176v-617c0 -78.667 -16.333 -147 -49 -205s-75.667 -105.667 -129 -143c-52.667 -36 -108.167 -61.833 -166.5 -77.5
s-114.166 -23.5 -167.499 -23.5c-85.333 0 -161.333 11.167 -228 33.5s-122.667 52.5 -168 90.5c-44.667 38 -78.334 81.5 -101.001 130.5s-34 100.167 -34 153.5v839c0 23.333 -3.83301 42.833 -11.5 58.5s-23.167 30.167 -46.5 43.5c-16.667 9.33301 -38 16.833 -64 22.5
s-47.333 9.16699 -64 10.5v71h591v-71c-18.667 -0.666992 -42.167 -3.66699 -70.5 -9s-49.166 -10.333 -62.499 -15c-22.667 -8 -37.834 -21.333 -45.501 -40s-11.5 -39 -11.5 -61v-784c0 -38 4.16699 -77.833 12.5 -119.5s24.833 -80.5 49.5 -116.5
c26 -36.667 61.333 -66.667 106 -90s106 -35 184 -35c73.333 0 134.833 11.667 184.5 35s88.834 54 117.501 92c27.333 36 46.666 73.667 57.999 113s17 79 17 119v582c0 74 -5.33301 134.5 -16 181.5s-26.334 77.833 -47.001 92.5
c-23.333 16.667 -55.166 29.667 -95.499 39s-71.166 14.666 -92.499 15.999v71h580v-71z" />
    <glyph glyph-name="V" unicode="V" horiz-adv-x="1365" 
d="M1407 1348c-17.333 -0.666992 -38.3311 -4.49902 -62.998 -11.499s-45 -15.5 -61 -25.5c-22.667 -14 -40.834 -32 -54.501 -54s-27.167 -48 -40.5 -78l-201 -495.5l-276 -701.5h-83l-278 746l-182 485c-8 20.667 -18.667 38.834 -32 54.501s-31 30.5 -53 44.5
c-18 11.333 -38 19.833 -60 25.5s-42.333 9.16699 -61 10.5v71h587v-71c-50 -2.66699 -92.167 -7.66699 -126.5 -15s-51.5 -20.333 -51.5 -39c0 -7.33301 1.33301 -16 4 -26s5 -18 7 -24l120 -319.5l236 -630.5l175 437c66 168 110.333 283.333 133 346
c22 60.667 34.833 102.667 38.5 126s5.5 42.333 5.5 57c0 15.333 -6.83301 28.166 -20.5 38.499s-31.834 19.166 -54.501 26.499c-22 6.66699 -44.333 11.667 -67 15s-45.667 6 -69 8v71h528v-71z" />
    <glyph glyph-name="W" unicode="W" horiz-adv-x="1998" 
d="M2028 1348c-16.667 -0.666992 -36.001 -4.5 -58.001 -11.5s-42.333 -16.167 -61 -27.5c-23.333 -14.667 -42.166 -31.5 -56.499 -50.5s-26.833 -45.5 -37.5 -79.5l-165 -539.5l-203 -657.5h-92l-358 1092l-373 -1092h-88l-205 726.5l-142 504.5
c-6 20.667 -14.833 39 -26.5 55s-27.5 30.667 -47.5 44c-16.667 11.333 -36.167 19.833 -58.5 25.5s-42.5 9.16699 -60.5 10.5v71h579v-71c-50.667 -2.66699 -93.834 -7.66699 -129.501 -15s-53.5 -19.666 -53.5 -36.999c0 -6.66699 1 -15.5 3 -26.5
s3.66699 -19.833 5 -26.5c15.333 -58.667 42.5 -155.5 81.5 -290.5l173.5 -606.5l354 1053h98l357 -1076l124 433.5c34.667 123.667 63.334 229.5 86.001 317.5c16 62 26 104.5 30 127.5s6 42.5 6 58.5c0 22.667 -15.5 41.667 -46.5 57s-81.167 25.666 -150.5 30.999v71h515
v-71z" />
    <glyph glyph-name="X" unicode="X" horiz-adv-x="1455" 
d="M1457 0l-664.002 -0.00292969v71c54.667 1.33301 98.834 6.5 132.501 15.5s50.5 22.833 50.5 41.5c0 10 -7.66699 30.667 -23 62s-35 66.333 -59 105l-95 150.5l-109 165.5c-58.667 -77.333 -125.334 -170.5 -200.001 -279.5s-112 -173.167 -112 -192.5
c0 -22 10.167 -38.167 30.5 -48.5s65.166 -16.833 134.499 -19.5v-71h-530v71c17.333 1.33301 39.5 3.83301 66.5 7.5s49.167 9.83398 66.5 18.501c34.667 18.667 62.5 38.834 83.5 60.501s42.167 47.167 63.5 76.5l164 219.5l177 239.5l-148 215.5l-192 279.5
c-28.667 42 -51.167 71.667 -67.5 89s-38.166 32.333 -65.499 45c-16 7.33301 -38.167 13.166 -66.5 17.499s-50.833 7.16602 -67.5 8.49902v71h657v-71c-38.667 -1.33301 -78.834 -6.16602 -120.501 -14.499s-62.5 -21.166 -62.5 -38.499
c0 -12.667 8.33301 -34.834 25 -66.501s36.334 -65.5 59.001 -101.5l78 -124c28.667 -45.333 63.667 -97.666 105 -156.999c75.333 102 140.333 194 195 276s82 135.333 82 160c0 21.333 -12.5 37 -37.5 47s-67.167 16.333 -126.5 19v71h529v-71
c-16.667 -0.666992 -38.5 -3.16699 -65.5 -7.5s-49.5 -10.5 -67.5 -18.5c-34.667 -16.667 -60.5 -34.667 -77.5 -54s-39.833 -47.333 -68.5 -84l-147.5 -193.5l-162.5 -220.5l178.5 -259l188.5 -277c20.667 -30 44.334 -58.5 71.001 -85.5s48.334 -45.5 65.001 -55.5
c16 -9.33301 37.5 -15.166 64.5 -17.499s49.833 -3.83301 68.5 -4.5v-71z" />
    <glyph glyph-name="Y" unicode="Y" horiz-adv-x="1260" 
d="M1314 1348c-11.333 -0.666992 -29.332 -5.16113 -53.999 -13.4941s-42.334 -16.5 -53.001 -24.5c-26 -16 -43.667 -28.333 -53 -37s-27.333 -31.334 -54 -68.001c-52 -73.333 -100 -147.666 -144 -222.999l-165 -287c-24.667 -42.667 -41 -77 -49 -103
s-12 -63.667 -12 -113v-271c0 -24 4.83301 -44.833 14.5 -62.5s26.167 -31.834 49.5 -42.501c14 -5.33301 39 -11.833 75 -19.5s65 -11.834 87 -12.501v-71h-664v71c18.667 1.33301 46.667 3.83301 84 7.5s63.333 8.5 78 14.5c24 10 40.5 23.667 49.5 41
s13.5 38.666 13.5 63.999v345c0 10.667 -6.5 30.167 -19.5 58.5s-28.5 59.833 -46.5 94.5l-133 251l-127 231c-22 38 -41.5 66.667 -58.5 86s-36.5 36.333 -58.5 51c-16 10 -35.167 17.667 -57.5 23s-42.5 8.66602 -60.5 9.99902v71h605v-71c-68 -1.33301 -116 -6 -144 -14
s-42 -19.333 -42 -34c0 -4 2 -11 6 -21s9.66699 -22.667 17 -38l31 -59.5l34 -64.5l96 -177.5l128 -230.5l239.5 394.5c55 94.333 82.5 150.833 82.5 169.5c0 15.333 -5.66699 27.666 -17 36.999s-26.333 16.666 -45 21.999c-19.333 5.33301 -40.333 8.83301 -63 10.5
s-43.667 3.5 -63 5.5v71h493v-71z" />
    <glyph glyph-name="Z" unicode="Z" horiz-adv-x="1232" 
d="M1214 443l-46.999 -443h-1140v35l893 1305h-327c-38 0 -69.833 -0.666992 -95.5 -2s-49.167 -4 -70.5 -8c-44 -8.66699 -93.5 -45 -148.5 -109s-96.5 -131.667 -124.5 -203h-70l43 401h1063v-35l-893 -1305h337c56.667 0 117 4 181 12s105.667 21.667 125 41
c43.333 41.333 83.666 92 120.999 152s65 113 83 159h70z" />
    <glyph glyph-name="bracketleft" unicode="[" horiz-adv-x="768" 
d="M701 -310h-533v1829h533v-91h-355v-1646h355v-92z" />
    <glyph glyph-name="backslash" unicode="\" horiz-adv-x="960" 
d="M911 -424h-130l-691 1947h132z" />
    <glyph glyph-name="bracketright" unicode="]" horiz-adv-x="768" 
d="M600 -310h-533v92h355v1646h-355v91h533v-1829z" />
    <glyph glyph-name="asciicircum" unicode="^" horiz-adv-x="1317" 
d="M1126 796h-145l-321 524l-324 -524h-145l412 660h113z" />
    <glyph glyph-name="underscore" unicode="_" horiz-adv-x="1317" 
d="M1322 -282h-1327v101h1327v-101z" />
    <glyph glyph-name="grave" unicode="`" 
d="M739 1142l-38.001 -31.9971l-184 143.5c-54 41 -94 72.167 -120 93.5c-25.333 21.333 -43.166 38.666 -53.499 51.999s-15.5 33.666 -15.5 60.999c0 19.333 7.66699 37.166 23 53.499s35 24.5 59 24.5c26 0 48.333 -6 67 -18s38.667 -35.333 60 -70l80 -125.5z" />
    <glyph glyph-name="a" unicode="a" horiz-adv-x="1032" 
d="M1006 18c-31.333 -11.333 -58.8369 -20.502 -82.5039 -27.502s-50.5 -10.5 -80.5 -10.5c-52 0 -93.5 12.167 -124.5 36.5s-50.833 59.833 -59.5 106.5h-6c-43.333 -48 -89.833 -84.667 -139.5 -110s-109.5 -38 -179.5 -38c-74 0 -134.833 22.667 -182.5 68
s-71.5 104.666 -71.5 177.999c0 38 5.33301 72 16 102s26.667 57 48 81c16.667 20 38.667 37.833 66 53.5s53 28.167 77 37.5c30 11.333 90.833 32.333 182.5 63s153.5 54.667 185.5 72v99c0 8.66699 -1.83301 25.334 -5.5 50.001s-11.5 48 -23.5 70
c-13.333 24.667 -32.166 46.167 -56.499 64.5s-58.833 27.5 -103.5 27.5c-30.667 0 -59.167 -5.16699 -85.5 -15.5s-44.833 -21.166 -55.5 -32.499c0 -13.333 3.16699 -33 9.5 -59s9.5 -50 9.5 -72c0 -23.333 -10.5 -44.666 -31.5 -63.999s-50.167 -29 -87.5 -29
c-33.333 0 -57.833 11.833 -73.5 35.5s-23.5 50.167 -23.5 79.5c0 30.667 10.833 60 32.5 88s49.834 53 84.501 75c30 18.667 66.333 34.5 109 47.5s84.334 19.5 125.001 19.5c56 0 104.833 -3.83301 146.5 -11.5s79.5 -24.167 113.5 -49.5
c34 -24.667 59.833 -58.167 77.5 -100.5s26.5 -96.833 26.5 -163.5c0 -95.333 -1 -179.833 -3 -253.5s-3 -154.167 -3 -241.5c0 -26 4.5 -46.667 13.5 -62s22.833 -28.333 41.5 -39c10 -6 25.833 -9.33301 47.5 -10s43.834 -1 66.501 -1v-64zM656.996 545.998
c-56.667 -16.667 -106.333 -33 -149 -49s-82.334 -36 -119.001 -60c-33.333 -22.667 -59.666 -49.5 -78.999 -80.5s-29 -67.833 -29 -110.5c0 -55.333 14.5 -96 43.5 -122s65.833 -39 110.5 -39c47.333 0 89 11.5 125 34.5s66.333 50.167 91 81.5z" />
    <glyph glyph-name="b" unicode="b" horiz-adv-x="1147" 
d="M1073 494c0 -148 -46.665 -272.332 -139.998 -372.999s-201.666 -151 -324.999 -151c-54 0 -107.167 8.33301 -159.5 25s-101.5 39 -147.5 67l-74 -115l-62 14c3.33301 49.333 5.66602 108.666 6.99902 177.999s2 136.333 2 201v976
c0 22.667 -5.16699 45.334 -15.5 68.001s-23.5 39 -39.5 49c-12.667 8.66699 -33.834 15.167 -63.501 19.5s-53.5 7.16602 -71.5 8.49902v64l362 23l14 -15v-650l7 -2c41.333 44 86.5 77 135.5 99s97.167 33 144.5 33c121.333 0 222.666 -48 303.999 -144s122 -221 122 -375
zM864.002 487.001c0 49.333 -5.33105 99.665 -15.998 150.998s-27.334 96 -50.001 134c-22.667 38.667 -52.334 70 -89.001 94s-80.667 36 -132 36c-46.667 0 -87.5 -9.16699 -122.5 -27.5s-66.5 -43.166 -94.5 -74.499v-574c4 -16 11.833 -34.667 23.5 -56
s27.5 -41.666 47.5 -60.999c20 -18.667 42.667 -33.834 68 -45.501s56.333 -17.5 93 -17.5c81.333 0 147 39.333 197 118s75 186.334 75 323.001z" />
    <glyph glyph-name="c" unicode="c" horiz-adv-x="930" 
d="M528 -26c-142.667 0 -254.334 47.3359 -335.001 142.003s-121 221.667 -121 381c0 69.333 10.833 134.166 32.5 194.499s53.167 115.166 94.5 164.499c39.333 47.333 88.666 85.5 147.999 114.5s124 43.5 194 43.5c96.667 0 175.334 -23.167 236.001 -69.5
s91 -109.5 91 -189.5c0 -33.333 -8 -62.833 -24 -88.5s-42.333 -38.5 -79 -38.5c-39.333 0 -69.833 10 -91.5 30s-32.5 42.333 -32.5 67c0 30 4 60.833 12 92.5s12.667 54.834 14 69.501c-12 20.667 -29.833 34.5 -53.5 41.5s-49.167 10.5 -76.5 10.5
c-32 0 -62.5 -6.83301 -91.5 -20.5s-57.167 -38.834 -84.5 -75.501c-24.667 -33.333 -44.667 -78.333 -60 -135s-23 -124.334 -23 -203.001c0 -124 27.5 -225.167 82.5 -303.5s127.167 -117.5 216.5 -117.5c64.667 0 118.834 15.667 162.501 47s84.167 78.333 121.5 141
l64 -42c-44 -78.667 -102 -141 -174 -187s-146.333 -69 -223 -69z" />
    <glyph glyph-name="d" unicode="d" horiz-adv-x="1176" 
d="M1152 18l-343.998 -22.0039l-15 14v92l-8 2c-34.667 -38.667 -77.5 -70.334 -128.5 -95.001s-103.5 -37 -157.5 -37c-56 0 -110.167 12.5 -162.5 37.5s-97.833 60.167 -136.5 105.5c-39.333 46 -70.5 101.333 -93.5 166s-34.5 136 -34.5 214c0 71.333 12.333 139 37 203
s58.667 120 102 168c40.667 44.667 90.5 80.334 149.5 107.001s119.167 40 180.5 40c46 0 91.167 -5.83301 135.5 -17.5s82.5 -26.5 114.5 -44.5v343c0 28 -4.66699 53.5 -14 76.5s-22.333 40.5 -39 52.5c-18.667 12.667 -43.834 21.834 -75.501 27.501
s-65.834 9.83398 -102.501 12.501v62l403 23l15 -15v-1330c0 -23.333 4.5 -43.166 13.5 -59.499s22.167 -30.166 39.5 -41.499c12.667 -8 31 -13 55 -15s46 -3.33301 66 -4v-65zM791.002 190.996l0.000976562 577.001c-5.33301 17.333 -14 36 -26 56s-27 38.333 -45 55
c-19.333 16.667 -42 30.5 -68 41.5s-56.333 16.5 -91 16.5c-40 0 -76.833 -10.333 -110.5 -31s-63.5 -50.334 -89.5 -89.001c-24.667 -37.333 -44.167 -84.833 -58.5 -142.5s-21.5 -121.5 -21.5 -191.5c0 -56 5.33301 -106.833 16 -152.5s28.667 -88.167 54 -127.5
c23.333 -37.333 53.166 -67.333 89.499 -90s79.5 -34 129.5 -34c53.333 0 97.5 11.667 132.5 35s64.5 49 88.5 77z" />
    <glyph glyph-name="e" unicode="e" horiz-adv-x="990" 
d="M948 232c-41.333 -78.667 -96.665 -141.332 -165.998 -187.999s-149 -70 -239 -70c-79.333 0 -148.833 14 -208.5 42s-108.834 66 -147.501 114s-67.5 104 -86.5 168s-28.5 131.667 -28.5 203c0 64 10.167 126.833 30.5 188.5s50.166 117.167 89.499 166.5
c38 47.333 85.167 85.5 141.5 114.5s119.5 43.5 189.5 43.5c72 0 133.667 -11.333 185 -34s93 -53.667 125 -93c30.667 -37.333 53.5 -81.333 68.5 -132s22.5 -105.667 22.5 -165v-66h-653c0 -64.667 6.16699 -123.334 18.5 -176.001s31.833 -99 58.5 -139
c26 -38.667 60 -69.167 102 -91.5s92 -33.5 150 -33.5c59.333 0 110.5 13.833 153.5 41.5s84.5 77.5 124.5 149.5zM727.001 608.002c0 37.333 -3.16699 77.332 -9.5 119.999s-16.5 78.334 -30.5 107.001c-15.333 30.667 -36.333 55.667 -63 75s-61 29 -103 29
c-70 0 -128.167 -29.167 -174.5 -87.5s-71.5 -139.5 -75.5 -243.5h456z" />
    <glyph glyph-name="f" unicode="f" horiz-adv-x="666" 
d="M806 1429c0 -30 -8.00098 -55.3359 -24.001 -76.0029s-40.333 -31 -73 -31c-20.667 0 -38.834 4.33301 -54.501 13s-30.167 20.334 -43.5 35.001s-25.666 31.334 -36.999 50.001s-21 33.667 -29 45c-44.667 -2 -79.167 -33.167 -103.5 -93.5s-36.5 -156.5 -36.5 -288.5
v-101h254v-96h-254v-708c0 -23.333 4.5 -42.333 13.5 -57s23.167 -25.667 42.5 -33c16 -6 37.333 -10.833 64 -14.5s49.667 -6.16699 69 -7.5v-66h-520v66l47.5 4c16.333 1.33301 30.5 4 42.5 8c18.667 6 32.5 16.5 41.5 31.5s13.5 34.5 13.5 58.5v718h-195v96h195v63
c0 150 38.833 271.5 116.5 364.5s174.834 139.5 291.501 139.5c59.333 0 104 -11.667 134 -35s45 -51.666 45 -84.999z" />
    <glyph glyph-name="g" unicode="g" horiz-adv-x="1043" 
d="M917 102c26.667 -25.333 47.6631 -54.001 62.9961 -86.001s23 -71.667 23 -119s-10.333 -91.833 -31 -133.5s-52 -77.834 -94 -108.501c-44.667 -31.333 -98 -55.666 -160 -72.999s-138.667 -26 -230 -26c-149.333 0 -261 21.833 -335 65.5s-111 107.5 -111 191.5
c0 68 26.667 121.667 80 161s121.333 60.666 204 63.999v14c-20 6 -40.667 13.5 -62 22.5s-39.666 19.5 -54.999 31.5c-17.333 14 -31.333 30.5 -42 49.5s-16 42.5 -16 70.5c0 35.333 12.5 67.833 37.5 97.5s62.833 55.167 113.5 76.5v15c-64 30 -113.667 68.5 -149 115.5
s-53 101.5 -53 163.5c0 93.333 34.833 170 104.5 230s158.834 90 267.501 90c30 0 59.833 -3 89.5 -9s59.834 -13.667 90.501 -23h344v-96h-232v-6c24.667 -28.667 43 -60.334 55 -95.001s18 -68.667 18 -102c0 -86.667 -35.167 -160 -105.5 -220s-152.166 -90 -245.499 -90
h-121c-15.333 -5.33301 -31.333 -15 -48 -29s-25 -33 -25 -57c0 -24.667 7 -43.5 21 -56.5s31 -21.833 51 -26.5c19.333 -5.33301 41.833 -8.66602 67.5 -9.99902s52.167 -2.33301 79.5 -3c29.333 -0.666992 69.5 -2.66699 120.5 -6s87.167 -5.33301 108.5 -6
c30.667 -1.33301 61.5 -8.66602 92.5 -21.999s59.167 -31.666 84.5 -54.999zM646.996 686.999c0 78 -15.833 140.167 -47.5 186.5s-76.167 69.5 -133.5 69.5c-31.333 0 -58.166 -6.5 -80.499 -19.5s-40.5 -31.5 -54.5 -55.5c-13.333 -22 -22.833 -48.5 -28.5 -79.5
s-8.5 -62.833 -8.5 -95.5c0 -74 16.167 -134.333 48.5 -181s74.166 -70 125.499 -70c57.333 0 101.5 23.167 132.5 69.5s46.5 104.833 46.5 175.5zM838.996 -140.001c0 37.333 -8.66699 67.998 -26 91.998s-43.666 40.333 -78.999 49c-18.667 2.66699 -57 5.66699 -115 9
s-125.333 5 -202 5c-72 -14 -123.167 -37.5 -153.5 -70.5s-45.5 -75.5 -45.5 -127.5c0 -23.333 5 -45.666 15 -66.999s27.333 -41 52 -59c23.333 -17.333 54.666 -31.5 93.999 -42.5s87.333 -16.5 144 -16.5c98 0 175.167 18.833 231.5 56.5s84.5 94.834 84.5 171.501z" />
    <glyph glyph-name="h" unicode="h" horiz-adv-x="1192" 
d="M1143 0h-483.998v66c15.333 1.33301 32.333 2.66602 51 3.99902s34 4 46 8c18.667 6 32.5 16.5 41.5 31.5s13.5 34.5 13.5 58.5v507c0 70 -16.5 124 -49.5 162s-73.167 57 -120.5 57c-34.667 0 -66.834 -5.5 -96.501 -16.5s-56.167 -24.5 -79.5 -40.5
c-22.667 -16.667 -40 -33.334 -52 -50.001s-21.333 -30.667 -28 -42v-567c0 -22.667 4.5 -41.334 13.5 -56.001s22.833 -26 41.5 -34c14.667 -6.66699 29.834 -11.667 45.501 -15s32.834 -5.66602 51.501 -6.99902v-66h-484v66c15.333 1.33301 31.333 2.83301 48 4.5
s30.667 4.16699 42 7.5c18.667 6 32.667 16.5 42 31.5s14 34.5 14 58.5v1148c0 22.667 -5.16699 45.334 -15.5 68.001s-23.833 39.667 -40.5 51c-12 8.66699 -33.167 14.834 -63.5 18.501s-54.833 6.16699 -73.5 7.5v64l365 23l14 -15v-688h4l60 58.5
c18 17 41.667 34.833 71 53.5c25.333 16 55.166 29.333 89.499 40s72.833 16 115.5 16c88 0 155.667 -27.833 203 -83.5s71 -135.834 71 -240.501v-513c0 -23.333 4.16699 -42.166 12.5 -56.499s22.166 -25.5 41.499 -33.5c15.333 -6 29.166 -10.5 41.499 -13.5
s28.5 -5.16699 48.5 -6.5v-66z" />
    <glyph glyph-name="i" unicode="i" horiz-adv-x="600" 
d="M551 0l-477 -0.00195312v66l47.5 4c16.333 1.33301 30.5 4 42.5 8c18.667 6 32.5 16.5 41.5 31.5s13.5 34.5 13.5 58.5v609c0 21.333 -4.83301 40.833 -14.5 58.5s-23.167 32.5 -40.5 44.5c-12.667 8 -31 14.833 -55 20.5s-46 9.16699 -66 10.5v65l348 22l14 -14v-804
c0 -23.333 4.5 -42.666 13.5 -57.999s23.167 -26.666 42.5 -33.999c14.667 -6 29 -10.833 43 -14.5s29.667 -6.16699 47 -7.5v-66zM425 1387c0 -38 -12.5 -71.167 -37.5 -99.5s-55.833 -42.5 -92.5 -42.5c-34 0 -63.5 13.5 -88.5 40.5s-37.5 57.833 -37.5 92.5
c0 36.667 12.5 68.667 37.5 96s54.5 41 88.5 41c38 0 69.167 -12.833 93.5 -38.5s36.5 -55.5 36.5 -89.5z" />
    <glyph glyph-name="j" unicode="j" horiz-adv-x="598" 
d="M431 60c0 -73.333 -10.6689 -142.165 -32.002 -206.498s-49.666 -117.5 -84.999 -159.5c-38 -44.667 -80.833 -78.834 -128.5 -102.501s-100.167 -35.5 -157.5 -35.5c-59.333 0 -104 11.833 -134 35.5s-45 51.5 -45 83.5c0 28.667 8 53.834 24 75.501
s39.333 32.5 70 32.5c20.667 0 39 -4.33301 55 -13s30 -20 42 -34c10.667 -12 21.5 -26.833 32.5 -44.5l31.5 -51.5c50.667 0 86.834 30.667 108.501 92s32.5 159.666 32.5 294.999v742c0 21.333 -5.16699 41.833 -15.5 61.5s-23.833 35.5 -40.5 47.5
c-10.667 7.33301 -36.167 14.666 -76.5 21.999s-70.833 12 -91.5 14v62l396 22l14 -14v-924zM445.998 1388c0 -38 -12.5 -71.167 -37.5 -99.5s-55.833 -42.5 -92.5 -42.5c-34 0 -63.5 13.5 -88.5 40.5s-37.5 57.833 -37.5 92.5c0 36.667 12.5 68.667 37.5 96
s54.5 41 88.5 41c38 0 69.167 -12.833 93.5 -38.5s36.5 -55.5 36.5 -89.5z" />
    <glyph glyph-name="k" unicode="k" horiz-adv-x="1097" 
d="M1117 0l-297.997 -0.00195312l-167 242c-59.333 86 -121 169.667 -185 251l-82 -77v-234c0 -24 4.33301 -43.833 13 -59.5s22.667 -27.167 42 -34.5c16 -6.66699 31.333 -11.667 46 -15s31.667 -5.66602 51 -6.99902v-66h-484v66c15.333 1.33301 31.333 2.83301 48 4.5
s30.667 4.16699 42 7.5c18.667 6 32.667 16.5 42 31.5s14 34.5 14 58.5v1146c0 24.667 -5.16699 47.834 -15.5 69.501s-23.833 38.167 -40.5 49.5c-14 10.667 -35.833 17.667 -65.5 21s-53.5 5.66602 -71.5 6.99902v64l365 23l14 -15v-1043l168.5 167.5
c60.333 59.667 111.166 112.834 152.499 159.501c5.33301 6 11.166 13.833 17.499 23.5s9.5 17.5 9.5 23.5c0 18 -14.5 31.333 -43.5 40s-56.833 14.667 -83.5 18v64h434v-62c-56 -16.667 -105.5 -37.5 -148.5 -62.5s-75.833 -47.5 -98.5 -67.5
c-16 -13.333 -38.667 -35 -68 -65s-70.333 -69.333 -123 -118c54.667 -67.333 116.167 -148 184.5 -242l149.5 -204c29.333 -39.333 55.666 -65 78.999 -77s57.333 -19.333 102 -22v-66z" />
    <glyph glyph-name="l" unicode="l" horiz-adv-x="586" 
d="M534 0l-480.998 -0.000976562v66c15.333 1.33301 31.666 2.83301 48.999 4.5s31.666 4.16699 42.999 7.5c18.667 6 32.667 16.5 42 31.5s14 34.5 14 58.5v1142c0 24 -5.16699 46.5 -15.5 67.5s-23.833 37.5 -40.5 49.5c-12 8 -34 15.333 -66 22s-57.667 10.667 -77 12v64
l371 23l14 -15v-1353c0 -23.333 4.33301 -42.5 13 -57.5s22.667 -26.5 42 -34.5c14.667 -6.66699 29.167 -11.667 43.5 -15s30.5 -5.66602 48.5 -6.99902v-66z" />
    <glyph glyph-name="m" unicode="m" horiz-adv-x="1804" 
d="M1761 0l-480.996 -0.000976562v66l46.5 4c15.667 1.33301 29.5 4 41.5 8c18.667 6 32.5 16.5 41.5 31.5s13.5 34.5 13.5 58.5v509c0 69.333 -15.833 122.833 -47.5 160.5s-71.167 56.5 -118.5 56.5c-32.667 0 -63.334 -5 -92.001 -15s-55 -24 -79 -42
c-19.333 -14.667 -35.5 -30.5 -48.5 -47.5s-22.833 -31.167 -29.5 -42.5v-569c0 -23.333 4 -42.5 12 -57.5s21.667 -26.5 41 -34.5c15.333 -6 29.166 -10.5 41.499 -13.5s28.5 -5.16699 48.5 -6.5v-66h-471v66l44.5 4c14.333 1.33301 27.5 4 39.5 8
c18.667 6 32.5 16.5 41.5 31.5s13.5 34.5 13.5 58.5v509c0 69.333 -15.833 122.833 -47.5 160.5s-71.167 56.5 -118.5 56.5c-32.667 0 -63.334 -5.16699 -92.001 -15.5s-55 -24.5 -79 -42.5c-19.333 -14.667 -35.666 -31.167 -48.999 -49.5l-30 -41.5v-565
c0 -22.667 4.66699 -41.667 14 -57s23.333 -27 42 -35c14 -6.66699 28.333 -11.667 43 -15s31 -5.66602 49 -6.99902v-66h-479v66l47.5 4c16.333 1.33301 30.5 4 42.5 8c18.667 6 32.5 16.5 41.5 31.5s13.5 34.5 13.5 58.5v613c0 21.333 -4.83301 40.5 -14.5 57.5
s-23.167 31.5 -40.5 43.5c-12.667 8 -28.334 14.5 -47.001 19.5s-38 8.16699 -58 9.5v65l330 22l14 -14v-141h7l61 59c24 22.667 46.333 41 67 55c23.333 16 52.5 29.333 87.5 40s72.833 16 113.5 16c64 0 119 -17.167 165 -51.5s79 -75.833 99 -124.5l63.5 61.5
c18.333 17.667 42.5 36.5 72.5 56.5c25.333 17.333 55.166 31.333 89.499 42s72.5 16 114.5 16c83.333 0 149.333 -27.333 198 -82s73 -138.667 73 -252v-501c0 -23.333 4 -42.5 12 -57.5s21.667 -26.5 41 -34.5c15.333 -6 30.5 -10.5 45.5 -13.5s31.833 -5.16699 50.5 -6.5
v-66z" />
    <glyph glyph-name="n" unicode="n" horiz-adv-x="1210" 
d="M1161 0l-483.001 0.00195312v66c15.333 1.33301 32.166 2.66602 50.499 3.99902s33.5 4 45.5 8c18.667 6 32.5 16.5 41.5 31.5s13.5 34.5 13.5 58.5v507c0 70 -16.5 124 -49.5 162s-73.167 57 -120.5 57c-35.333 0 -67.666 -5.5 -96.999 -16.5s-55.333 -24.5 -78 -40.5
c-22 -15.333 -39.5 -31.833 -52.5 -49.5s-22.5 -31.834 -28.5 -42.501v-567c0 -22.667 4.66699 -41.334 14 -56.001s23.333 -26 42 -34c14 -6.66699 29.167 -11.667 45.5 -15s33.166 -5.66602 50.499 -6.99902v-66h-483v66l47.5 4c16.333 1.33301 30.5 4 42.5 8
c18.667 6 32.5 16.5 41.5 31.5s13.5 34.5 13.5 58.5v609c0 22.667 -4.83301 43.5 -14.5 62.5s-23.167 34.5 -40.5 46.5c-12.667 8 -27.667 13.833 -45 17.5s-36 6.16699 -56 7.5v65l328 22l14 -14v-139h5l60 57.5c24 22.333 46.667 40.5 68 54.5c24.667 16 54 29.333 88 40
s72.333 16 115 16c94.667 0 164.834 -29.5 210.501 -88.5s68.5 -137.5 68.5 -235.5v-513c0 -23.333 4 -42.166 12 -56.499s21.667 -25.5 41 -33.5c16 -6.66699 29.833 -11.334 41.5 -14.001s27.834 -4.66699 48.501 -6v-66z" />
    <glyph glyph-name="o" unicode="o" horiz-adv-x="1104" 
d="M1033 503c0 -69.333 -10.999 -137.5 -32.999 -204.5s-53.333 -123.833 -94 -170.5c-46 -53.333 -99.333 -93 -160 -119s-128.667 -39 -204 -39c-62.667 0 -122.334 11.833 -179.001 35.5s-107 58.167 -151 103.5c-43.333 44.667 -77.833 99.167 -103.5 163.5
s-38.5 136.5 -38.5 216.5c0 154 44.833 280 134.5 378s207.167 147 352.5 147c138 0 251.833 -46.5 341.5 -139.5s134.5 -216.833 134.5 -371.5zM826.001 501c0 50 -5.00098 102.832 -15.001 158.499s-25 102.834 -45 141.501c-21.333 41.333 -49.333 74.5 -84 99.5
s-77 37.5 -127 37.5c-51.333 0 -95.166 -12.667 -131.499 -38s-65.833 -60 -88.5 -104c-21.333 -40.667 -36.333 -87 -45 -139s-13 -102.333 -13 -151c0 -64 5.16699 -123.167 15.5 -177.5s26.833 -102.833 49.5 -145.5s51.167 -76.167 85.5 -100.5
s76.833 -36.5 127.5 -36.5c83.333 0 149.333 40.333 198 121s73 192 73 334z" />
    <glyph glyph-name="p" unicode="p" horiz-adv-x="1170" 
d="M973 869c39.333 -46.667 69.8359 -100.834 91.5029 -162.501s32.5 -132.167 32.5 -211.5c0 -78 -13 -149.167 -39 -213.5s-60.333 -119.166 -103 -164.499c-44.667 -46 -94.334 -81.333 -149.001 -106s-112.667 -37 -174 -37c-59.333 0 -108 6.66699 -146 20
s-69 29 -93 47h-8v-296c0 -24 4.66699 -44 14 -60s23.666 -27.667 42.999 -35c16 -6 38.833 -11.833 68.5 -17.5s54.167 -8.83398 73.5 -9.50098v-67h-551v67c20.667 1.33301 40.667 3 60 5s36.666 5.33301 51.999 10c20 6.66699 34 18.334 42 35.001s12 36.334 12 59.001
v1049c0 20 -5 39.333 -15 58s-23 33.667 -39 45c-12 8 -28.667 14.167 -50 18.5s-42 7.16602 -62 8.49902v65l336 22l14 -12v-111l8 -2c34.667 40 77.667 73.333 129 100s102.333 40 153 40c61.333 0 117.5 -13 168.5 -39s94.833 -61 131.5 -105zM810.003 160
c26.667 41.333 46.334 89.334 59.001 144.001s19 115.667 19 183c0 49.333 -5.33301 99.666 -16 150.999s-27.334 96 -50.001 134c-22.667 38.667 -52.334 70 -89.001 94s-80.667 36 -132 36c-49.333 0 -91.333 -10.833 -126 -32.5s-64.667 -47.5 -90 -77.5v-583
c6 -18 15.833 -36.667 29.5 -56s28.834 -36 45.501 -50c20.667 -16.667 43 -30.167 67 -40.5s53.333 -15.5 88 -15.5c37.333 0 73.333 9.83301 108 29.5s63.667 47.5 87 83.5z" />
    <glyph glyph-name="q" unicode="q" horiz-adv-x="1146" 
d="M1154 -444l-533 0.000976562v67c20.667 1.33301 41 3 61 5s38 5.33301 54 10c20.667 6.66699 35 18.334 43 35.001s12 36.334 12 59.001v364l-6 2c-10.667 -12 -25.834 -25.833 -45.501 -41.5s-40.167 -28.5 -61.5 -38.5c-26.667 -14 -52.334 -24.833 -77.001 -32.5
s-55.667 -11.5 -93 -11.5c-60 0 -116.5 12.5 -169.5 37.5s-99.167 60.5 -138.5 106.5c-39.333 45.333 -70.5 101.166 -93.5 167.499s-34.5 139.166 -34.5 218.499c0 75.333 13.333 143.833 40 205.5s62 115.5 106 161.5c42 43.333 92.5 77.833 151.5 103.5
s117.5 38.5 175.5 38.5c43.333 0 81.833 -4.16699 115.5 -12.5s62.5 -18.166 86.5 -29.499c20.667 -8.66699 41.334 -19.834 62.001 -33.501s35.334 -22.834 44.001 -27.501l85 130l57 -8c-2.66699 -49.333 -6.16699 -110 -10.5 -182s-6.5 -135 -6.5 -189v-912
c0 -23.333 4.33301 -43.5 13 -60.5s22.667 -29.833 42 -38.5c16 -6.66699 36.333 -12.5 61 -17.5s44.667 -8.16699 60 -9.5v-67zM791 183.001l0.000976562 589c-5.33301 16.667 -14.333 35.167 -27 55.5s-27.667 38.166 -45 53.499c-18.667 16 -41.5 29.333 -68.5 40
s-58.167 16 -93.5 16c-78 0 -143.5 -40.333 -196.5 -121s-79.5 -191.667 -79.5 -333c0 -56 5.16699 -106.667 15.5 -152s28.166 -87.666 53.499 -126.999c24 -37.333 54.333 -67.166 91 -89.499s83 -33.5 139 -33.5c48 0 89 10.167 123 30.5s63.333 44.166 88 71.499z" />
    <glyph glyph-name="r" unicode="r" horiz-adv-x="839" 
d="M827 859c0 -34 -8.33105 -64.167 -24.998 -90.5s-42.334 -39.5 -77.001 -39.5c-37.333 0 -65.833 9.66699 -85.5 29s-29.5 40.666 -29.5 63.999c0 14.667 1.16699 28 3.5 40s4.5 24 6.5 36c-31.333 0 -68 -12.667 -110 -38s-77.667 -61.333 -107 -108v-574
c0 -23.333 4.5 -42.333 13.5 -57s23.167 -25.667 42.5 -33c16.667 -6.66699 38.167 -11.667 64.5 -15s49.166 -5.66602 68.499 -6.99902v-66h-520v66l47.5 4c16.333 1.33301 30.5 4 42.5 8c18.667 6 32.5 16.5 41.5 31.5s13.5 34.5 13.5 58.5v609
c0 20.667 -4.83301 41 -14.5 61s-23.167 36 -40.5 48c-12.667 8 -27.667 13.833 -45 17.5s-36 6.16699 -56 7.5v65l328 22l14 -14v-139h5c41.333 54 87.333 95 138 123s97 42 139 42s76.167 -13.667 102.5 -41s39.5 -64 39.5 -110z" />
    <glyph glyph-name="s" unicode="s" horiz-adv-x="885" 
d="M723 483c27.333 -24 48.333 -51.6631 63 -82.9961s22 -69.666 22 -114.999c0 -91.333 -34.167 -166 -102.5 -224s-156.833 -87 -265.5 -87c-57.333 0 -110.166 10.333 -158.499 31s-82.833 39.667 -103.5 57l-20 -65h-75l-10 343h69
c5.33301 -26 16.666 -56.333 33.999 -91s38.333 -66 63 -94c26 -29.333 57.167 -54 93.5 -74s77.166 -30 122.499 -30c64 0 113.333 14.5 148 43.5s52 70.5 52 124.5c0 28 -5.5 52.167 -16.5 72.5s-27.167 38.166 -48.5 53.499c-22 15.333 -49 29.166 -81 41.499
s-67.667 24.5 -107 36.5c-31.333 9.33301 -66.166 22.166 -104.499 38.499s-71.166 35.5 -98.499 57.5c-29.333 23.333 -53.333 52 -72 86s-28 74 -28 120c0 80.667 30 149 90 205s140.333 84 241 84c38.667 0 78.167 -5 118.5 -15s73.166 -22 98.499 -36l23 52h72l15 -317
h-69c-14 70.667 -44.167 128.167 -90.5 172.5s-102.833 66.5 -169.5 66.5c-54.667 0 -97.667 -13.667 -129 -41s-47 -60.333 -47 -99c0 -30 5.16699 -55 15.5 -75s25.833 -37 46.5 -51c20 -13.333 45.167 -25.833 75.5 -37.5s67.833 -24.834 112.5 -39.501
c44 -14 85.5 -30.333 124.5 -49s71.167 -39.334 96.5 -62.001z" />
    <glyph glyph-name="t" unicode="t" horiz-adv-x="707" 
d="M681 43c-43.333 -18 -84.3311 -33.166 -122.998 -45.499s-86 -18.5 -142 -18.5c-82.667 0 -140.834 20.833 -174.501 62.5s-50.5 100.5 -50.5 176.5v668h-178v96h182v307h182v-307h283v-96h-281v-551c0 -41.333 1.5 -75.833 4.5 -103.5s10.167 -51.834 21.5 -72.501
c10.667 -19.333 26.667 -34 48 -44s50 -15 86 -15c16.667 0 41.167 1.5 73.5 4.5s55.166 6.83301 68.499 11.5v-73z" />
    <glyph glyph-name="u" unicode="u" horiz-adv-x="1178" 
d="M1129 18l-321.001 -22l-15 14v125h-6c-16 -16.667 -34 -34.5 -54 -53.5s-43 -36.167 -69 -51.5c-30 -18 -59 -31.667 -87 -41s-67.667 -14 -119 -14c-87.333 0 -153.833 28.5 -199.5 85.5s-68.5 139.833 -68.5 248.5v472c0 24 -4.5 44.167 -13.5 60.5
s-22.167 30.5 -39.5 42.5c-12 8 -27 13.833 -45 17.5s-37 6.16699 -57 7.5v65l329 24l15 -14v-685c0 -71.333 16 -125 48 -161s70.333 -54 115 -54c36.667 0 69.334 5.66699 98.001 17s52.667 24.666 72 39.999c18 14 33.833 28.833 47.5 44.5s24.167 30.167 31.5 43.5v559
c0 22 -4.66699 41.5 -14 58.5s-22.333 31.5 -39 43.5c-12 8 -29.833 12.833 -53.5 14.5s-50.167 3.16699 -79.5 4.5v65l358 24l15 -14v-783c0 -22.667 4.66699 -42 14 -58s22.333 -29.667 39 -41c12 -7.33301 26.333 -12.166 43 -14.499s35 -3.83301 55 -4.5v-65z" />
    <glyph glyph-name="v" unicode="v" horiz-adv-x="1017" 
d="M1046 925c-30 -5.33301 -58.499 -16.166 -85.499 -32.499s-50.167 -45.166 -69.5 -86.499l-122 -279.5l-131 -305.5c-13.333 -30.667 -27.5 -67 -42.5 -109l-41.5 -121h-78l-175 428.5l-166 396.5c-13.333 30.667 -34.833 54.5 -64.5 71.5s-59.5 27.833 -89.5 32.5v66
h456v-70c-20 -0.666992 -45 -4.83398 -75 -12.501s-45 -18.167 -45 -31.5c0 -2 1.66699 -7.16699 5 -15.5s6.66602 -17.833 9.99902 -28.5l116 -285l122 -295l90.5 214l117.5 286l19 50.5c6 15.667 9 31.5 9 47.5c0 11.333 -5.5 21.5 -16.5 30.5s-24.167 16.833 -39.5 23.5
s-30.333 11.667 -45 15s-26.667 5.66602 -36 6.99902v64h377v-61z" />
    <glyph glyph-name="w" unicode="w" horiz-adv-x="1510" 
d="M1541 922c-28 -2.66699 -58.165 -14.3301 -90.498 -34.9971s-55.833 -51.667 -70.5 -93l-94.5 -278.5l-99.5 -295.5c-12 -34.667 -24.167 -72 -36.5 -112s-23.5 -78.333 -33.5 -115h-86l-265 726l-267 -726h-82l-146.5 440.5l-126.5 380.5c-10.667 31.333 -31 56 -61 74
s-59 28.667 -87 32v66h440v-70c-22 -0.666992 -45.833 -4.33398 -71.5 -11.001s-38.5 -17.667 -38.5 -33c0 -2.66699 1.16699 -8.33398 3.5 -17.001s5.16602 -18 8.49902 -28l72.5 -234.5l104.5 -336.5l252 710h96l257 -700l85.5 259.5
c28.333 83.667 53.166 162.167 74.499 235.5c4.66699 17.333 9.16699 33.166 13.5 47.499s6.5 28.5 6.5 42.5c0 12 -5.33301 22.667 -16 32s-23.667 17 -39 23c-13.333 5.33301 -27.833 9.33301 -43.5 12s-27.167 4 -34.5 4v64h375v-64z" />
    <glyph glyph-name="x" unicode="x" horiz-adv-x="1034" 
d="M1022 0l-452.001 0.000976562v66c30 3.33301 55.5 6.66602 76.5 9.99902s31.5 12 31.5 26c0 6 -3.33301 15.333 -10 28s-13.334 24.334 -20.001 35.001l-68.5 104.5l-106.5 156.5c-34.667 -43.333 -66.667 -85.5 -96 -126.5l-92 -130.5
c-4.66699 -6.66699 -9.5 -15 -14.5 -25s-7.5 -18 -7.5 -24c0 -14.667 9.5 -26.834 28.5 -36.501s47.5 -16.167 85.5 -19.5v-64h-365v62c45.333 13.333 81.833 29.5 109.5 48.5s53.167 42.5 76.5 70.5l86.5 110l143.5 190l-124.5 178.5l-121.5 175.5
c-17.333 25.333 -37.166 45.833 -59.499 61.5s-53.833 23.5 -94.5 23.5v66h429v-66c-21.333 0 -42.333 -1.33301 -63 -4s-31 -8.66699 -31 -18c0 -6 2 -12.667 6 -20s9 -15.333 15 -24l68.5 -105l100.5 -150l81.5 112l85.5 122c2.66699 4.66699 5.33398 10.5 8.00098 17.5
s4 13.833 4 20.5c0 14 -11.5 25.167 -34.5 33.5s-44.833 14.166 -65.5 17.499v64h364v-62c-51.333 -13.333 -91.333 -29.166 -120 -47.499s-53 -39.5 -73 -63.5l-78.5 -101l-127.5 -168l148 -210l115 -169c19.333 -29.333 40.833 -52.5 64.5 -69.5
s56.167 -26.833 97.5 -29.5v-66z" />
    <glyph glyph-name="y" unicode="y" horiz-adv-x="1008" 
d="M-3 -322c0 33.333 9.16895 60.498 27.502 81.498s41.166 31.5 68.499 31.5c21.333 0 39.666 -4 54.999 -12s29 -18.333 41 -31c10 -10 20.667 -23.667 32 -41s20.333 -31.666 27 -42.999c33.333 18 73.166 65 119.499 141s79.833 142.667 100.5 200l-172 424l-161 387
c-12.667 30.667 -34 54.5 -64 71.5s-60 27.833 -90 32.5v66h450v-70c-20 -0.666992 -44 -4.83398 -72 -12.501s-42 -16.5 -42 -26.5c0 -4 1.5 -10.667 4.5 -20s6.5 -19 10.5 -29c25.333 -66 64 -161.167 116 -285.5s92.333 -223.833 121 -298.5l93.5 221.5
c32.333 76.333 68.5 166.5 108.5 270.5l20 52.5c8.66699 22.333 13 41.5 13 57.5c0 17.333 -15.167 33.5 -45.5 48.5s-59.166 24.167 -86.499 27.5v64h366v-62c-20 -3.33301 -46.333 -14.833 -79 -34.5s-57 -47.5 -73 -83.5l-211.5 -503
c-61.667 -151.333 -108.5 -262.666 -140.5 -333.999c-42 -93.333 -79.5 -166.166 -112.5 -218.499s-65.167 -93.5 -96.5 -123.5c-30.667 -28 -58.5 -46.833 -83.5 -56.5s-50.833 -14.5 -77.5 -14.5c-52 0 -92.833 12.333 -122.5 37s-44.5 53 -44.5 85z" />
    <glyph glyph-name="z" unicode="z" horiz-adv-x="909" 
d="M853 0l-798 -0.000976562v53l558 852h-138c-58 0 -103.333 -1 -136 -3s-62.667 -8.66699 -90 -20c-18.667 -7.33301 -36.167 -28.333 -52.5 -63s-30.5 -80 -42.5 -136h-61v303h754v-41l-567 -864c24 -0.666992 50.333 -1.16699 79 -1.5s59.667 -0.5 93 -0.5
c26.667 0 54.5 0.333008 83.5 1s66.167 2.33398 111.5 5.00098c26.667 1.33301 46.834 10.333 60.501 27s24.167 35.667 31.5 57c7.33301 19.333 16.166 46 26.499 80s19.5 67 27.5 99h60v-348z" />
    <glyph glyph-name="braceleft" unicode="{" horiz-adv-x="881" 
d="M814 -333c-70 0 -132.999 4.83008 -188.999 14.4971s-103 27.834 -141 54.501c-38.667 27.333 -67.834 63.833 -87.501 109.5s-29.5 106.167 -29.5 181.5c0 40 2.5 83.167 7.5 129.5s7.5 87.833 7.5 124.5c0 48 -7 87.833 -21 119.5s-34.667 57.167 -62 76.5
c-26.667 19.333 -59.667 33.333 -99 42s-82 14.667 -128 18v129c46.667 4 90.167 10.833 130.5 20.5s72.833 23.5 97.5 41.5c28.667 20.667 49.5 46.834 62.5 78.501s19.5 70.167 19.5 115.5c0 38 -2.5 80 -7.5 126s-7.5 89 -7.5 129c0 69.333 9.83301 127.666 29.5 174.999
s48.834 85 87.501 113c38 27.333 85.333 46.166 142 56.499s119.334 15.5 188.001 15.5v-82c-26.667 -1.33301 -57.667 -4.83301 -93 -10.5s-63.333 -14.167 -84 -25.5c-24 -13.333 -43.5 -34.5 -58.5 -63.5s-22.5 -68.167 -22.5 -117.5v-234c0 -70 -8.33301 -128 -25 -174
s-41.334 -83.333 -74.001 -112c-30 -26.667 -65.667 -47.834 -107 -63.501s-87.333 -28.167 -138 -37.5v-31c48 -9.33301 93.167 -21.666 135.5 -36.999s78.833 -36.666 109.5 -63.999c31.333 -28 55.666 -65 72.999 -111s26 -104.333 26 -175v-233
c0 -47.333 7 -85.666 21 -114.999s34 -51.666 60 -66.999c24.667 -14 53.5 -23.333 86.5 -28s63.167 -7.66699 90.5 -9v-80z" />
    <glyph glyph-name="bar" unicode="|" horiz-adv-x="768" 
d="M448 -424h-127v1947h127v-1947z" />
    <glyph glyph-name="braceright" unicode="}" horiz-adv-x="881" 
d="M809 537c-46 -3.33301 -88.832 -9.49805 -128.499 -18.498s-72.5 -22.833 -98.5 -41.5c-27.333 -19.333 -48 -44.833 -62 -76.5s-21 -71.5 -21 -119.5c0 -36.667 2.5 -78.167 7.5 -124.5s7.5 -89.5 7.5 -129.5c0 -75.333 -9.83301 -135.833 -29.5 -181.5
s-48.834 -82.167 -87.501 -109.5c-37.333 -26 -84.166 -44 -140.499 -54s-119.5 -15 -189.5 -15v80c27.333 1.33301 57.666 4.33301 90.999 9s62 14 86 28c26 15.333 46 37.666 60 66.999s21 67.666 21 114.999v233c0 70.667 8.66699 129 26 175s41.666 83 72.999 111
c30.667 27.333 67.167 48.666 109.5 63.999s87.5 27.666 135.5 36.999v31c-50.667 9.33301 -96.667 21.833 -138 37.5s-77 36.834 -107 63.501c-32.667 28.667 -57.334 66 -74.001 112s-25 104 -25 174v234c0 49.333 -7.5 88.5 -22.5 117.5s-34.5 50.167 -58.5 63.5
c-20.667 11.333 -48.667 19.833 -84 25.5s-66.333 9.16699 -93 10.5v82c68.667 0 131.334 -5.16699 188.001 -15.5s104 -29.166 142 -56.499c38.667 -28 67.834 -65.667 87.501 -113s29.5 -105.666 29.5 -174.999c0 -40 -2.5 -83 -7.5 -129s-7.5 -88 -7.5 -126
c0 -45.333 6.5 -83.833 19.5 -115.5s33.833 -57.834 62.5 -78.501c24.667 -17.333 57.167 -31 97.5 -41s83.833 -17 130.5 -21v-129z" />
    <glyph glyph-name="asciitilde" unicode="~" horiz-adv-x="1317" 
d="M1187 714c-9.33301 -24.667 -24.835 -55.5 -46.502 -92.5s-45.834 -68.833 -72.501 -95.5c-32.667 -32.667 -67.167 -58.5 -103.5 -77.5s-75.833 -28.5 -118.5 -28.5c-48 0 -92 7.16699 -132 21.5s-76.667 29.833 -110 46.5c-34 17.333 -67.5 33 -100.5 47
s-66.167 21 -99.5 21c-44.667 0 -81.5 -15.333 -110.5 -46s-57.5 -74 -85.5 -130l-78 31c8.66699 25.333 24.167 56 46.5 92s46.833 68 73.5 96c26 28 59.167 52.667 99.5 74s80.833 32 121.5 32c49.333 0 93.833 -7.16699 133.5 -21.5s76.5 -29.833 110.5 -46.5l98.5 -47.5
c29.667 -13.667 62.834 -20.5 99.501 -20.5c46.667 0 84.834 16.333 114.501 49s56.834 75 81.501 127z" />
    <glyph glyph-name="exclamdown" unicode="&#xa1;" horiz-adv-x="678" 
d="M481 1309c0 -37.333 -13.5 -69.166 -40.5 -95.499s-59.167 -39.5 -96.5 -39.5s-69.5 13.167 -96.5 39.5s-40.5 58.166 -40.5 95.499s13.5 69.5 40.5 96.5s59.167 40.5 96.5 40.5s69.5 -13.5 96.5 -40.5s40.5 -59.167 40.5 -96.5zM472 103c0 -38 -11.999 -70 -35.999 -96
s-54.667 -39 -92 -39s-68 12.833 -92 38.5s-36 57.834 -36 96.501c0 43.333 10.667 154.166 32 332.499s39.666 363.833 54.999 556.5h78c15.333 -161.333 34.333 -340.333 57 -537s34 -314 34 -352z" />
    <glyph glyph-name="cent" unicode="&#xa2;" horiz-adv-x="1137" 
d="M1040 234c-39.333 -66.667 -93.166 -124.168 -161.499 -172.501s-144.166 -75.166 -227.499 -80.499v-280h-82v281c-136.667 12 -242.167 65.5 -316.5 160.5s-111.5 213.833 -111.5 356.5c0 128.667 39.667 241.834 119 339.501s182.333 154.834 309 171.501v265h82v-260
c97.333 -0.666992 178.666 -24.5 243.999 -71.5s98 -109.833 98 -188.5c0 -40.667 -8.83301 -72 -26.5 -94s-44.167 -33 -79.5 -33c-43.333 0 -74.5 10 -93.5 30s-28.5 42.333 -28.5 67c0 30 4.83301 60.667 14.5 92s15.167 54.666 16.5 69.999
c-11.333 17.333 -30.333 30.666 -57 39.999s-56 15 -88 17v-856c3.33301 0 6.33301 -0.166992 9 -0.5s6.33398 -0.5 11.001 -0.5c69.333 0 128.166 16.167 176.499 48.5s93.166 80.5 134.499 144.5zM569 99.999l0.00195312 838.999
c-29.333 -7.33301 -57.333 -21.166 -84 -41.499s-50.334 -47.166 -71.001 -80.499s-37.5 -76.5 -50.5 -129.5s-19.5 -113.167 -19.5 -180.5c0 -106.667 19.667 -195.334 59 -266.001s94.666 -117.667 165.999 -141z" />
    <glyph glyph-name="sterling" unicode="&#xa3;" horiz-adv-x="1274" 
d="M299 177l866.001 0.000976562v-177h-1048v148c46 15.333 83.5 39.666 112.5 72.999s51.167 72 66.5 116c14.667 40.667 25 85.5 31 134.5s9 98.833 9 149.5h-167v96h167l-9 120c-4 53.333 -6 97.333 -6 132c0 141.333 42.167 257.833 126.5 349.5
s193.833 137.5 328.5 137.5c58.667 0 110.167 -9 154.5 -27s80.833 -40.333 109.5 -67c29.333 -28 52 -59.5 68 -94.5s24 -70.833 24 -107.5c0 -33.333 -8 -62.5 -24 -87.5s-42.667 -37.5 -80 -37.5c-39.333 0 -70.333 9.83301 -93 29.5s-34 42.167 -34 67.5
c0 29.333 4.16699 59.666 12.5 90.999s14.166 54.333 17.499 69c-8.66699 18.667 -27 37.334 -55 56.001s-62.667 28 -104 28c-23.333 0 -48.5 -3.33301 -75.5 -10s-54.167 -21 -81.5 -43c-26 -21.333 -47.333 -51.666 -64 -90.999s-25 -89 -25 -149
c0 -42.667 1.66699 -101.834 5 -177.501s5 -138.5 5 -188.5h396v-96h-396c0 -90.667 -20 -173.167 -60 -247.5s-99 -136.833 -177 -187.5v-9z" />
    <glyph glyph-name="currency" unicode="&#xa4;" horiz-adv-x="1170" 
d="M1005 228l-86.0029 -87l-188 184c-20.667 -12.667 -43.5 -22.834 -68.5 -30.501s-50.833 -11.5 -77.5 -11.5c-24 0 -49 3.83301 -75 11.5s-49 17.834 -69 30.501l-189 -186l-85 90l184 186c-13.333 20.667 -23.666 43.834 -30.999 69.501s-11 50.5 -11 74.5
c0 28 3.5 53.333 10.5 76s17.5 45.334 31.5 68.001l-184 189l88 86l186 -185c16.667 11.333 39.667 21.166 69 29.499s54.333 12.5 75 12.5c26.667 0 52.834 -4 78.501 -12s47.834 -17.667 66.501 -29l185 184l90 -85l-186 -190c13.333 -20.667 23.833 -43.834 31.5 -69.501
s11.5 -50.5 11.5 -74.5c0 -26 -4.16699 -52 -12.5 -78s-18.5 -48 -30.5 -66zM746.997 559c0 45.333 -15.833 84.168 -47.5 116.501s-69.834 48.5 -114.501 48.5s-82.834 -16 -114.501 -48s-47.5 -71 -47.5 -117c0 -44.667 15.833 -83.334 47.5 -116.001
s69.834 -49 114.501 -49s82.834 16 114.501 48s47.5 71 47.5 117z" />
    <glyph glyph-name="yen" unicode="&#xa5;" horiz-adv-x="1259" 
d="M1282 1348c-11.333 -0.666992 -29.332 -5.16309 -53.999 -13.4961s-42.334 -16.5 -53.001 -24.5c-26 -16 -43.833 -28.167 -53.5 -36.5s-27.5 -31.166 -53.5 -68.499c-75.333 -112 -134.166 -204.5 -176.499 -277.5l-165.5 -284.5v-83h393v-96h-393v-257
c0 -24 4.33301 -44.833 13 -62.5s23.667 -31.834 45 -42.501c12 -5.33301 34.167 -11.666 66.5 -18.999s58.5 -11.333 78.5 -12v-71h-610v71c16 1.33301 40.833 3.66602 74.5 6.99902s57.167 8 70.5 14c19.333 8.66699 33.666 21.5 42.999 38.5s14 39.167 14 66.5v267h-393
v96h393v64c-58 117.333 -107.333 212.666 -148 285.999l-150 268c-22 38 -41.5 66.667 -58.5 86s-36.5 36.333 -58.5 51c-16 10 -35.167 17.667 -57.5 23s-42.5 8.66602 -60.5 9.99902v71h579v-71c-64.667 -2.66699 -108.667 -7.33398 -132 -14.001s-35 -18 -35 -34
c0 -7.33301 5.66699 -22.666 17 -45.999s31 -61 59 -113l87.5 -159.5l124.5 -223.5l202.5 340c59 100 88.5 158.333 88.5 175c0 15.333 -5 27.666 -15 36.999s-23.667 16.666 -41 21.999c-18 5.33301 -35.667 8.83301 -53 10.5l-60 5.5v71h472v-71z" />
    <glyph glyph-name="brokenbar" unicode="&#xa6;" horiz-adv-x="768" 
d="M448 723h-127v800h127v-800zM448 -424h-127v810h127v-810z" />
    <glyph glyph-name="section" unicode="&#xa7;" 
d="M903 634c0 -66.667 -22.3291 -128.836 -66.9961 -186.503s-105.667 -100.834 -183 -129.501c73.333 -31.333 126.333 -69 159 -113s49 -95.333 49 -154c0 -43.333 -9.33301 -84 -28 -122s-45.334 -70.667 -80.001 -98c-37.333 -28.667 -79.333 -50.667 -126 -66
s-103.334 -23 -170.001 -23c-60.667 0 -109.834 5.83301 -147.501 17.5s-67.834 26.5 -90.501 44.5s-38.5 36.667 -47.5 56s-13.5 37.333 -13.5 54c0 29.333 8.5 53.5 25.5 72.5s41.5 28.5 73.5 28.5c22.667 0 41.667 -6.33301 57 -19s28 -27.334 38 -44.001
c10.667 -16.667 21 -37 31 -61s19 -44.667 27 -62c10.667 -2.66699 22.167 -5 34.5 -7s28.5 -3 48.5 -3c60.667 0 111.834 18.5 153.501 55.5s62.5 78.833 62.5 125.5c0 40.667 -17.167 80.167 -51.5 118.5s-110.166 79.833 -227.499 124.5
c-112.667 44 -192.334 94.5 -239.001 151.5s-70 124.167 -70 201.5c0 63.333 19.667 121 59 173s100 95.667 182 131c-71.333 34 -123.166 71.5 -155.499 112.5s-48.5 90.5 -48.5 148.5c0 41.333 8.66699 79.333 26 114s43.666 65.667 78.999 93
c32.667 26 75 46.833 127 62.5s108.667 23.5 170 23.5c60 0 109.667 -6.16699 149 -18.5s69.666 -27.166 90.999 -44.499s36.333 -36.166 45 -56.499s13 -38.5 13 -54.5c0 -30.667 -8.66699 -54.834 -26 -72.501s-41.666 -26.5 -72.999 -26.5
c-21.333 0 -39.666 6 -54.999 18s-28.666 27 -39.999 45c-12.667 20.667 -22.834 40.667 -30.501 60s-16.834 40.333 -27.501 63c-9.33301 2.66699 -22 5 -38 7s-31 3 -45 3c-61.333 0 -111.833 -17.333 -151.5 -52s-59.5 -77 -59.5 -127c0 -27.333 7 -51.166 21 -71.499
s34 -39.166 60 -56.499c26 -18 61.5 -36.833 106.5 -56.5l118.5 -50.5c99.333 -41.333 171.666 -89.166 216.999 -143.499s68 -116.166 68 -185.499zM748.004 586.998c0 58.667 -25.833 110.666 -77.5 155.999s-126.5 85 -224.5 119
c-61.333 -25.333 -105.333 -57.166 -132 -95.499s-40 -81.833 -40 -130.5c0 -65.333 25.167 -119.333 75.5 -162s127.833 -85 232.5 -127c61.333 34.667 104.333 71.5 129 110.5s37 82.167 37 129.5z" />
    <glyph glyph-name="dieresis" unicode="&#xa8;" 
d="M845 1364c0 -34 -11.5 -63 -34.5 -87s-50.833 -36 -83.5 -36s-60.5 12 -83.5 36s-34.5 53 -34.5 87s11.5 63 34.5 87s50.833 36 83.5 36s60.5 -12 83.5 -36s34.5 -53 34.5 -87zM415 1364c0 -34 -11.5 -63 -34.5 -87s-50.833 -36 -83.5 -36s-60.5 12 -83.5 36
s-34.5 53 -34.5 87s11.5 63 34.5 87s50.833 36 83.5 36s60.5 -12 83.5 -36s34.5 -53 34.5 -87z" />
    <glyph glyph-name="copyright" unicode="&#xa9;" horiz-adv-x="1929" 
d="M1849 602c0 -244 -86.5 -452.167 -259.5 -624.5s-381.5 -258.5 -625.5 -258.5s-452.333 86.167 -625 258.5s-259 380.5 -259 624.5s86.333 452.167 259 624.5s381 258.5 625 258.5s452.5 -86.167 625.5 -258.5s259.5 -380.5 259.5 -624.5zM1750 602
c0 216.667 -76.333 403.334 -229 560.001s-338.334 235 -557.001 235s-404.167 -78.333 -556.5 -235s-228.5 -343.334 -228.5 -560.001s76.167 -403.334 228.5 -560.001s337.833 -235 556.5 -235s404.334 78.333 557.001 235s229 343.334 229 560.001zM1375 404
c-14 -34.667 -32.5029 -70 -55.5029 -106s-49.833 -67 -80.5 -93c-34.667 -29.333 -71.667 -52.333 -111 -69s-88 -25 -146 -25c-71.333 0 -137.166 11 -197.499 33s-112.5 54.333 -156.5 97c-43.333 42 -76.833 92.667 -100.5 152s-35.5 125.666 -35.5 198.999
c0 70 12.667 135.333 38 196s61.333 114 108 160c44.667 44 99.5 79 164.5 105s134.5 39 208.5 39c38.667 0 79.5 -6.66699 122.5 -20s75.167 -28 96.5 -44l45 66h59l5 -363h-54c-13.333 40 -27.166 76.167 -41.499 108.5s-34.166 62.833 -59.499 91.5
c-23.333 26.667 -52 48 -86 64s-76 24 -126 24c-80 0 -145.5 -37.167 -196.5 -111.5s-76.5 -176.166 -76.5 -305.499c0 -122 30.833 -218.5 92.5 -289.5s138.834 -106.5 231.501 -106.5c67.333 0 124.666 17.833 171.999 53.5s88 92.167 122 169.5z" />
    <glyph glyph-name="ordfeminine" unicode="&#xaa;" 
d="M933 648c-26 -8.66699 -49.835 -16.0039 -71.502 -22.0039s-45.167 -9 -70.5 -9c-43.333 0 -77.833 10.5 -103.5 31.5s-42.167 50.5 -49.5 88.5h-5c-36.667 -38.667 -76.667 -69 -120 -91s-93 -33 -149 -33c-59.333 0 -108.833 19 -148.5 57s-59.5 85.667 -59.5 143
c0 34 4.66699 64 14 90s22 48.667 38 68c16 17.333 34.333 31.166 55 41.499s42 19.833 64 28.5c46.667 18.667 100.834 37.5 162.501 56.5s110.167 37.833 145.5 56.5v55c0 6.66699 -1.83301 20.334 -5.5 41.001s-10.167 39.334 -19.5 56.001
c-10.667 20 -26.667 37.5 -48 52.5s-49.666 22.5 -84.999 22.5c-22 0 -43.167 -4.16699 -63.5 -12.5s-35.5 -17.5 -45.5 -27.5c1.33301 -10 4.16602 -25.167 8.49902 -45.5s6.5 -37.833 6.5 -52.5c0 -19.333 -10.333 -36.166 -31 -50.499s-46.334 -21.5 -77.001 -21.5
c-29.333 0 -50.166 10.167 -62.499 30.5s-18.5 42.166 -18.5 65.499c0 50.667 32 94.334 96 131.001s129.667 55 197 55c44.667 0 85.5 -3.5 122.5 -10.5s69.167 -19.833 96.5 -38.5c28.667 -20 50.834 -46.667 66.501 -80s23.5 -78 23.5 -134
c0 -77.333 -0.833008 -144.166 -2.5 -200.499s-2.5 -120.166 -2.5 -191.499c0 -20 3.83301 -36.333 11.5 -49s19.5 -23.334 35.5 -32.001c10 -5.33301 23.833 -8.16602 41.5 -8.49902s35.5 -0.5 53.5 -0.5v-60zM635.998 1075
c-51.333 -15.333 -92.832 -28.502 -124.499 -39.502s-63.167 -25.833 -94.5 -44.5c-26.667 -16 -47.667 -35.667 -63 -59s-23 -50.666 -23 -81.999c0 -44 10.667 -76.333 32 -97s49.666 -31 84.999 -31c45.333 0 82.333 8.83301 111 26.5s53 37.834 73 60.501z" />
    <glyph glyph-name="guillemotleft" unicode="&#xab;" horiz-adv-x="1190" 
d="M997 160l-49 -40l-355 332c-6 5.33301 -14.5 14.333 -25.5 27s-16.5 29 -16.5 49s5.5 36.333 16.5 49s20.5 23 28.5 31l352 329l49 -41l-259 -367zM616 160l-48.999 -40l-355 332c-6 5.33301 -14.5 14.333 -25.5 27s-16.5 29 -16.5 49s5.16699 36 15.5 48
s20.166 22.667 29.499 32l352 329l49 -41l-259 -367z" />
    <glyph glyph-name="logicalnot" unicode="&#xac;" horiz-adv-x="1317" 
d="M1163 76h-132v451h-887v125h1019v-576z" />
    <glyph glyph-name="registered" unicode="&#xae;" horiz-adv-x="1929" 
d="M1849 602c0 -244 -86.5 -452.167 -259.5 -624.5s-381.5 -258.5 -625.5 -258.5s-452.333 86.167 -625 258.5s-259 380.5 -259 624.5s86.333 452.167 259 624.5s381 258.5 625 258.5s452.5 -86.167 625.5 -258.5s259.5 -380.5 259.5 -624.5zM1750 602
c0 216.667 -76.333 403.334 -229 560.001s-338.334 235 -557.001 235s-404.167 -78.333 -556.5 -235s-228.5 -343.334 -228.5 -560.001s76.167 -403.334 228.5 -560.001s337.833 -235 556.5 -235s404.334 78.333 557.001 235s229 343.334 229 560.001zM1542 145
l-287 -0.000976562c-63.333 89.333 -118.333 163.833 -165 223.5l-143 180.5h-105v-262c0 -14.667 2.83301 -28.167 8.5 -40.5s16.834 -21.5 33.501 -27.5c7.33301 -2.66699 22.666 -5.83398 45.999 -9.50098s41 -5.83398 53 -6.50098v-58h-439v58
c12 1.33301 28.333 3.33301 49 6s36 6 46 10c14.667 6 25.167 14.667 31.5 26s9.5 25.333 9.5 42v642c0 16 -2.33301 29.833 -7 41.5s-16 20.5 -34 26.5c-14 4.66699 -30 8.83398 -48 12.501s-33.667 6.16699 -47 7.5v58h492c37.333 0 74 -4 110 -12s68.667 -20.667 98 -38
c28.667 -17.333 52 -40.166 70 -68.499s27 -62.5 27 -102.5c0 -72.667 -19.833 -129.667 -59.5 -171s-98.167 -72.666 -175.5 -93.999l136.5 -166.5l99.5 -123.5c18.667 -23.333 37 -40.666 55 -51.999s35.333 -19.666 52 -24.999
c13.333 -4.66699 29.333 -8.83398 48 -12.501s33.667 -5.83398 45 -6.50098v-58zM1155 833.999c0 55.333 -16.667 97.333 -50 126s-82.333 43 -147 43h-116v-378h87c69.333 0 124.333 18.333 165 55s61 88 61 154z" />
    <glyph glyph-name="overscore" unicode="&#xaf;" horiz-adv-x="1317" 
d="M1322 1603h-1327v101h1327v-101z" />
    <glyph glyph-name="degree" unicode="&#xb0;" horiz-adv-x="859" 
d="M755 1128c0 -91.333 -30.5 -168.333 -91.5 -231s-139.167 -94 -234.5 -94c-96 0 -174.167 31.667 -234.5 95s-90.5 140 -90.5 230c0 94 31 171.667 93 233s139.333 92 232 92c95.333 0 173.5 -31.333 234.5 -94s91.5 -139.667 91.5 -231zM607 1120
c0 83.333 -16.332 147.167 -48.999 191.5s-76 66.5 -130 66.5c-54.667 0 -97.667 -22.333 -129 -67s-47 -104.667 -47 -180c0 -78 15.667 -139.667 47 -185s75.666 -68 132.999 -68c44.667 0 85 20.5 121 61.5s54 101.167 54 180.5z" />
    <glyph glyph-name="plusminus" unicode="&#xb1;" horiz-adv-x="1317" 
d="M1168 0h-1019v125h446v402h-446v125h446v451h127v-451h446v-125h-446v-402h446v-125z" />
    <glyph glyph-name="twosuperior" unicode="&#xb2;" 
d="M900 490l-752.998 0.00195312v111c26 43.333 65.667 86 119 128s117.666 86.667 192.999 134c23.333 14.667 49.166 34.167 77.499 58.5s50.166 46.833 65.499 67.5c20 26.667 35.167 54.5 45.5 83.5s15.5 65.5 15.5 109.5c0 64 -16.333 112.667 -49 146
s-75.667 50 -129 50c-38 0 -70.5 -6.5 -97.5 -19.5s-46.5 -28.167 -58.5 -45.5l13.5 -54.5c5 -20.333 7.5 -41.5 7.5 -63.5c0 -20.667 -9.16699 -38.667 -27.5 -54s-45.166 -23 -80.499 -23c-32 0 -54.833 10.5 -68.5 31.5s-20.5 44.5 -20.5 70.5
c0 60.667 34.833 114.667 104.5 162s150.5 71 242.5 71c104.667 0 190 -25.167 256 -75.5s99 -117.833 99 -202.5c0 -50 -7.5 -93.5 -22.5 -130.5s-34.833 -68.5 -59.5 -94.5c-26 -27.333 -55.167 -51 -87.5 -71s-65.833 -38.333 -100.5 -55
c-42.667 -20.667 -94.5 -48.334 -155.5 -83.001s-111.167 -70.334 -150.5 -107.001h621v-144z" />
    <glyph glyph-name="threesuperior" unicode="&#xb3;" 
d="M795 927c24.667 -18 45.002 -41.498 61.002 -70.498s24 -64.167 24 -105.5c0 -84 -38.333 -154.333 -115 -211s-179 -85 -307 -85c-90 0 -167.667 19.333 -233 58s-98 86 -98 142c0 30 7.83301 54.167 23.5 72.5s35.834 27.5 60.501 27.5c34.667 0 61 -7.5 79 -22.5
s27 -31.5 27 -49.5c0 -14.667 -2.5 -32 -7.5 -52s-9.5 -36.667 -13.5 -50c16.667 -14 40 -26.333 70 -37s62.667 -16 98 -16c67.333 0 121.5 19.167 162.5 57.5s61.5 94.833 61.5 169.5c0 23.333 -2.83301 46.166 -8.5 68.499s-15.834 41.5 -30.501 57.5
s-35.5 28.667 -62.5 38s-61.167 14 -102.5 14h-107v94h76c68.667 0 117.834 16.333 147.501 49s44.5 82.667 44.5 150c0 48 -13.833 85.833 -41.5 113.5s-67.834 41.5 -120.501 41.5c-30 0 -57.333 -5 -82 -15s-44.667 -24.667 -60 -44
c3.33301 -11.333 7.33301 -28.166 12 -50.499s7 -41.166 7 -56.499c0 -17.333 -9.5 -33.5 -28.5 -48.5s-45.167 -22.5 -78.5 -22.5c-30.667 0 -52.834 9.5 -66.501 28.5s-20.5 40.5 -20.5 64.5c0 24.667 7.33301 49 22 73s37.667 47.333 69 70
c26.667 20 63.667 37.167 111 51.5s96.666 21.5 147.999 21.5c62 0 114.5 -8 157.5 -24s77.167 -36.667 102.5 -62c24 -24.667 40.167 -49.834 48.5 -75.501s12.5 -46.834 12.5 -63.501c0 -20 -3.5 -41.833 -10.5 -65.5s-18.167 -44.834 -33.5 -63.501
c-16 -19.333 -37.5 -37.833 -64.5 -55.5s-62.167 -32.5 -105.5 -44.5v-9c27.333 -2.66699 57.333 -9.5 90 -20.5s60 -25.167 82 -42.5z" />
    <glyph glyph-name="acute" unicode="&#xb4;" 
d="M696 1460c0 -25.333 -5.83105 -46.001 -17.498 -62.001s-28.834 -33 -51.501 -51l-130.5 -102l-173.5 -135l-38 32l125.5 187.5l76.5 120.5c20.667 34 40.667 57.167 60 69.5s41.666 18.5 66.999 18.5c24 0 43.667 -8.16699 59 -24.5s23 -34.166 23 -53.499z" />
    <glyph glyph-name="mu1" unicode="&#xb5;" horiz-adv-x="1160" 
d="M1133 19c-31.333 -11.333 -59.166 -20.4951 -83.499 -27.4951s-51.5 -10.5 -81.5 -10.5c-51.333 0 -94.166 13 -128.499 39s-55.833 64.333 -64.5 115h-6l-57.5 -58c-21.667 -21.333 -42.834 -38 -63.501 -50c-27.333 -16 -54 -28 -80 -36s-64 -12 -114 -12
c-38.667 0 -75.667 8 -111 24s-61.666 35 -78.999 57h-6v-58c0 -45.333 8.83301 -106 26.5 -182s26.5 -130 26.5 -162c0 -32.667 -10.333 -57.834 -31 -75.501s-43.334 -26.5 -68.001 -26.5c-26.667 0 -48.5 9 -65.5 27s-25.5 42.333 -25.5 73c0 39.333 6 90.666 18 153.999
s20 112 24 146c4.66699 36.667 7.83398 69.5 9.50098 98.5s2.5 56.167 2.5 81.5v850h189v-677c0 -69.333 15.5 -122.833 46.5 -160.5s70.167 -56.5 117.5 -56.5c36.667 0 69.5 5.33301 98.5 16s52.5 23 70.5 37c16.667 13.333 31.667 27.666 45 42.999
s23.666 29.666 30.999 42.999v755h189v-784c0 -28.667 4.33301 -51.334 13 -68.001s23 -30 43 -40c11.333 -6 27.666 -9.33301 48.999 -10s43.333 -1 66 -1v-64z" />
    <glyph glyph-name="paragraph" unicode="&#xb6;" 
d="M1000 1345h-110.999v-1561h-103v1561h-160v-1561h-103v922c-128.667 0 -231.5 30.833 -308.5 92.5s-115.5 148.5 -115.5 260.5c0 108 35.667 195 107 261s163.666 99 276.999 99h517v-74z" />
    <glyph glyph-name="middot" unicode="&#xb7;" horiz-adv-x="572" 
d="M425 559c0 -37.333 -13.5 -69.166 -40.5 -95.499s-59.167 -39.5 -96.5 -39.5s-69.5 13.167 -96.5 39.5s-40.5 58.166 -40.5 95.499s13.5 69.5 40.5 96.5s59.167 40.5 96.5 40.5s69.5 -13.5 96.5 -40.5s40.5 -59.167 40.5 -96.5z" />
    <glyph glyph-name="cedilla" unicode="&#xb8;" 
d="M630 -129c22.667 -10.667 41.001 -25.832 55.001 -45.499s21 -44.167 21 -73.5c0 -38.667 -10.667 -71.334 -32 -98.001s-51 -47.334 -89 -62.001c-36.667 -13.333 -77.334 -22.666 -122.001 -27.999s-96.667 -8 -156 -8v72c27.333 0 57 0.333008 89 1
s59.333 3.66699 82 9c26.667 6 47.334 15.167 62.001 27.5s22 29.833 22 52.5c0 32.667 -18.333 53.334 -55 62.001s-73.334 13 -110.001 13v224h79v-116c30 0 57 -1.83301 81 -5.5s48.333 -11.834 73 -24.501z" />
    <glyph glyph-name="onesuperior" unicode="&#xb9;" 
d="M789 490h-564.999v71c20 0.666992 48 2.16699 84 4.5s60.667 5.83301 74 10.5s24.166 12.334 32.499 23.001s12.5 24.667 12.5 42v631h-207v78h62c52 0 100.667 9.5 146 28.5s79.333 41.167 102 66.5h73c-1.33301 -30 -2.83301 -69.833 -4.5 -119.5
s-2.5 -88.834 -2.5 -117.501v-559c0 -15.333 3.83301 -29 11.5 -41s18.167 -21 31.5 -27c12.667 -5.33301 35.5 -10 68.5 -14s60.167 -6 81.5 -6v-71z" />
    <glyph glyph-name="ordmasculine" unicode="&#xba;" 
d="M908 1038c0 -123.333 -36.333 -226.168 -109 -308.501s-171 -123.5 -295 -123.5c-107.333 0 -198.833 39.333 -274.5 118s-113.5 179.667 -113.5 303c0 124.667 37 226.834 111 306.501s170.667 119.5 290 119.5c116 0 210.167 -38.667 282.5 -116s108.5 -177 108.5 -299
zM673 784.998c16 31.333 28.335 68.5 37.002 111.5s13 89.5 13 139.5c0 42 -3.5 83.667 -10.5 125s-18.5 78 -34.5 110c-16.667 32.667 -38.334 58.834 -65.001 78.501s-59.334 29.5 -98.001 29.5c-40.667 0 -75 -10.167 -103 -30.5s-50.333 -47.5 -67 -81.5
c-16.667 -32 -28.334 -68.833 -35.001 -110.5s-10 -80.5 -10 -116.5c0 -50 4 -96.333 12 -139s20.667 -80.334 38 -113.001s39.5 -58.834 66.5 -78.501s59.5 -29.5 97.5 -29.5c36 0 67.333 9.33301 94 28s48.334 44.334 65.001 77.001z" />
    <glyph glyph-name="guillemotright" unicode="&#xbb;" horiz-adv-x="1190" 
d="M1020 528c0 -21.333 -5.66699 -38.167 -17 -50.5s-19.666 -20.833 -24.999 -25.5l-355 -332l-49 40l259 369l-259 367l49 41l352 -329c7.33301 -6.66699 16.666 -17.5 27.999 -32.5s17 -30.833 17 -47.5zM639 527.999c0 -21.333 -5.66895 -38.167 -17.002 -50.5
s-19.666 -20.833 -24.999 -25.5l-355 -332l-49 40l259 369l-259 367l49 41l352 -329c6.66699 -6 15.834 -16.167 27.501 -30.5s17.5 -30.833 17.5 -49.5z" />
    <glyph glyph-name="onequarter" unicode="&#xbc;" horiz-adv-x="2150" 
d="M700 490h-564.999v71c20 0.666992 48 2.16699 84 4.5s60.667 5.83301 74 10.5s24.166 12.334 32.499 23.001s12.5 24.667 12.5 42v631h-207v78h62c52 0 100.667 9.5 146 28.5s79.333 41.167 102 66.5h73c-1.33301 -30 -2.83301 -69.833 -4.5 -119.5
s-2.5 -88.834 -2.5 -117.501v-559c0 -15.333 3.83301 -29 11.5 -41s18.167 -21 31.5 -27c12.667 -5.33301 35.5 -10 68.5 -14s60.167 -6 81.5 -6v-71zM1447 1419l-739 -1419h-135l737 1419h137zM1988 212h-159v-232h-166v232h-495v126l543 623h118v-640h159v-109zM1663 321
v453l-393 -453h393z" />
    <glyph glyph-name="onehalf" unicode="&#xbd;" horiz-adv-x="2150" 
d="M700 490h-564.999v71c20 0.666992 48 2.16699 84 4.5s60.667 5.83301 74 10.5s24.166 12.334 32.499 23.001s12.5 24.667 12.5 42v631h-207v78h62c52 0 100.667 9.5 146 28.5s79.333 41.167 102 66.5h73c-1.33301 -30 -2.83301 -69.833 -4.5 -119.5
s-2.5 -88.834 -2.5 -117.501v-559c0 -15.333 3.83301 -29 11.5 -41s18.167 -21 31.5 -27c12.667 -5.33301 35.5 -10 68.5 -14s60.167 -6 81.5 -6v-71zM1437 1419l-739 -1419h-135l737 1419h137zM2044 0l-752.998 0.00195312v111c26 43.333 65.667 86 119 128
s117.666 86.667 192.999 134c23.333 14.667 49.166 34.167 77.499 58.5s50.166 46.833 65.499 67.5c20 26.667 35.167 54.5 45.5 83.5s15.5 65.5 15.5 109.5c0 64 -16.333 112.667 -49 146s-75.667 50 -129 50c-38 0 -70.5 -6.5 -97.5 -19.5s-46.5 -28.167 -58.5 -45.5
l13.5 -54.5c5 -20.333 7.5 -41.5 7.5 -63.5c0 -20.667 -9.16699 -38.667 -27.5 -54s-45.166 -23 -80.499 -23c-32 0 -54.833 10.5 -68.5 31.5s-20.5 44.5 -20.5 70.5c0 60.667 34.833 114.667 104.5 162s150.5 71 242.5 71c104.667 0 190 -25.167 256 -75.5
s99 -117.833 99 -202.5c0 -50 -7.5 -93.5 -22.5 -130.5s-34.833 -68.5 -59.5 -94.5c-26 -27.333 -55.167 -51 -87.5 -71s-65.833 -38.333 -100.5 -55c-42.667 -20.667 -94.5 -48.334 -155.5 -83.001s-111.167 -70.334 -150.5 -107.001h621v-144z" />
    <glyph glyph-name="threequarters" unicode="&#xbe;" horiz-adv-x="2150" 
d="M785 927c24.667 -18 45.002 -41.498 61.002 -70.498s24 -64.167 24 -105.5c0 -84 -38.333 -154.333 -115 -211s-179 -85 -307 -85c-90 0 -167.667 19.333 -233 58s-98 86 -98 142c0 30 7.83301 54.167 23.5 72.5s35.834 27.5 60.501 27.5c34.667 0 61 -7.5 79 -22.5
s27 -31.5 27 -49.5c0 -14.667 -2.5 -32 -7.5 -52s-9.5 -36.667 -13.5 -50c16.667 -14 40 -26.333 70 -37s62.667 -16 98 -16c67.333 0 121.5 19.167 162.5 57.5s61.5 94.833 61.5 169.5c0 23.333 -2.83301 46.166 -8.5 68.499s-15.834 41.5 -30.501 57.5
s-35.5 28.667 -62.5 38s-61.167 14 -102.5 14h-107v94h76c68.667 0 117.834 16.333 147.501 49s44.5 82.667 44.5 150c0 48 -13.833 85.833 -41.5 113.5s-67.834 41.5 -120.501 41.5c-30 0 -57.333 -5 -82 -15s-44.667 -24.667 -60 -44
c3.33301 -11.333 7.33301 -28.166 12 -50.499s7 -41.166 7 -56.499c0 -17.333 -9.5 -33.5 -28.5 -48.5s-45.167 -22.5 -78.5 -22.5c-30.667 0 -52.834 9.5 -66.501 28.5s-20.5 40.5 -20.5 64.5c0 24.667 7.33301 49 22 73s37.667 47.333 69 70
c26.667 20 63.667 37.167 111 51.5s96.666 21.5 147.999 21.5c62 0 114.5 -8 157.5 -24s77.167 -36.667 102.5 -62c24 -24.667 40.167 -49.834 48.5 -75.501s12.5 -46.834 12.5 -63.501c0 -20 -3.5 -41.833 -10.5 -65.5s-18.167 -44.834 -33.5 -63.501
c-16 -19.333 -37.5 -37.833 -64.5 -55.5s-62.167 -32.5 -105.5 -44.5v-9c27.333 -2.66699 57.333 -9.5 90 -20.5s60 -25.167 82 -42.5zM1599 1419l-739 -1419h-135l737 1419h137zM2078 212.002h-159v-232h-166v232h-495v126l543 623h118v-640h159v-109zM1753 321.002v453
l-393 -453h393z" />
    <glyph glyph-name="questiondown" unicode="&#xbf;" horiz-adv-x="980" 
d="M723 1311c0 -37.333 -13.5 -69.5 -40.5 -96.5s-59.167 -40.5 -96.5 -40.5s-69.5 13.5 -96.5 40.5s-40.5 59.167 -40.5 96.5s13.5 69.166 40.5 95.499s59.167 39.5 96.5 39.5s69.5 -13.167 96.5 -39.5s40.5 -58.166 40.5 -95.499zM874 205
c0 -26.667 -7.33301 -52.833 -22 -78.5s-37.667 -50.5 -69 -74.5c-27.333 -20.667 -63.666 -38.834 -108.999 -54.501s-92.666 -23.5 -141.999 -23.5c-70.667 0 -133.167 11 -187.5 33s-99.5 52 -135.5 90c-36.667 38.667 -63.834 82.167 -81.501 130.5
s-26.5 100.833 -26.5 157.5c0 123.333 39.333 224 118 302s186.667 125 324 141v221h92v-379c-42 -3.33301 -83.667 -10.166 -125 -20.499s-78.333 -27.166 -111 -50.499c-34 -24.667 -60.5 -54.5 -79.5 -89.5s-28.5 -83.833 -28.5 -146.5c0 -100 21.167 -176.667 63.5 -230
s104.166 -80 185.499 -80c30.667 0 57.5 4.5 80.5 13.5s39.833 17.5 50.5 25.5c-3.33301 16 -7.83301 39 -13.5 69s-8.5 53 -8.5 69c0 24.667 10.667 47.167 32 67.5s52.333 30.5 93 30.5c36 0 61.667 -12.333 77 -37s23 -53.334 23 -86.001z" />
    <glyph glyph-name="Agrave" unicode="&#xc0;" horiz-adv-x="1374" 
d="M1421 0l-591.002 0.000976562v71c52 3.33301 95.167 10 129.5 20s51.5 22.333 51.5 37c0 6 -0.666992 13.333 -2 22s-3.33301 16.334 -6 23.001l-118 318h-497c-18.667 -46.667 -33.834 -87.334 -45.501 -122.001l-31.5 -96c-8.66699 -28.667 -14.667 -52 -18 -70
s-5 -32.667 -5 -44c0 -26.667 21 -47.334 63 -62.001s89.333 -23.334 142 -26.001v-71h-534v71c17.333 1.33301 39 5.16602 65 11.499s47.333 14.833 64 25.5c26.667 18 47.334 36.833 62.001 56.5s29 46.834 43 81.501l236 600l230 593h80l473 -1224
c10 -26 21.333 -47 34 -63s30.334 -31.667 53.001 -47c15.333 -9.33301 35.333 -17.166 60 -23.499s45.334 -9.83301 62.001 -10.5v-71zM848.998 580.001l-215 550l-211 -550h426zM938.998 1546l-31 -39.001l-209.5 102l-136.5 66
c-32.667 16.667 -56.167 32.834 -70.5 48.501s-21.5 37.167 -21.5 64.5c0 23.333 8.33301 42.5 25 57.5s39 22.5 67 22.5c20 0 38.5 -4.5 55.5 -13.5s36.833 -25.5 59.5 -49.5l103.5 -105.5z" />
    <glyph glyph-name="Aacute" unicode="&#xc1;" horiz-adv-x="1374" 
d="M1421 0l-591.002 0.000976562v71c52 3.33301 95.167 10 129.5 20s51.5 22.333 51.5 37c0 6 -0.666992 13.333 -2 22s-3.33301 16.334 -6 23.001l-118 318h-497c-18.667 -46.667 -33.834 -87.334 -45.501 -122.001l-31.5 -96c-8.66699 -28.667 -14.667 -52 -18 -70
s-5 -32.667 -5 -44c0 -26.667 21 -47.334 63 -62.001s89.333 -23.334 142 -26.001v-71h-534v71c17.333 1.33301 39 5.16602 65 11.499s47.333 14.833 64 25.5c26.667 18 47.334 36.833 62.001 56.5s29 46.834 43 81.501l236 600l230 593h80l473 -1224
c10 -26 21.333 -47 34 -63s30.334 -31.667 53.001 -47c15.333 -9.33301 35.333 -17.166 60 -23.499s45.334 -9.83301 62.001 -10.5v-71zM848.998 580.001l-215 550l-211 -550h426zM892.998 1675l-136.5 -66.5l-209.5 -101.5l-31 39l148.5 143.5l113.5 115.5
c21.333 22.667 40.833 38.834 58.5 48.501s36.5 14.5 56.5 14.5c25.333 0 47 -7.66699 65 -23s27 -34.333 27 -57c0 -28.667 -8.66699 -51.334 -26 -68.001s-39.333 -31.667 -66 -45z" />
    <glyph glyph-name="Acircumflex" unicode="&#xc2;" horiz-adv-x="1374" 
d="M1421 0l-591.002 0.000976562v71c52 3.33301 95.167 10 129.5 20s51.5 22.333 51.5 37c0 6 -0.666992 13.333 -2 22s-3.33301 16.334 -6 23.001l-118 318h-497c-18.667 -46.667 -33.834 -87.334 -45.501 -122.001l-31.5 -96c-8.66699 -28.667 -14.667 -52 -18 -70
s-5 -32.667 -5 -44c0 -26.667 21 -47.334 63 -62.001s89.333 -23.334 142 -26.001v-71h-534v71c17.333 1.33301 39 5.16602 65 11.499s47.333 14.833 64 25.5c26.667 18 47.334 36.833 62.001 56.5s29 46.834 43 81.501l236 600l230 593h80l473 -1224
c10 -26 21.333 -47 34 -63s30.334 -31.667 53.001 -47c15.333 -9.33301 35.333 -17.166 60 -23.499s45.334 -9.83301 62.001 -10.5v-71zM848.998 580.001l-215 550l-211 -550h426zM1026 1539l-48 -32.001l-279 212l-275 -212l-48 32l234 284
c12 14.667 23.833 25.834 35.5 33.501s30.834 11.5 57.501 11.5c27.333 0 46.166 -3.66699 56.499 -11s20.5 -17.333 30.5 -30z" />
    <glyph glyph-name="Atilde" unicode="&#xc3;" horiz-adv-x="1374" 
d="M1421 0l-591.002 0.000976562v71c52 3.33301 95.167 10 129.5 20s51.5 22.333 51.5 37c0 6 -0.666992 13.333 -2 22s-3.33301 16.334 -6 23.001l-118 318h-497c-18.667 -46.667 -33.834 -87.334 -45.501 -122.001l-31.5 -96c-8.66699 -28.667 -14.667 -52 -18 -70
s-5 -32.667 -5 -44c0 -26.667 21 -47.334 63 -62.001s89.333 -23.334 142 -26.001v-71h-534v71c17.333 1.33301 39 5.16602 65 11.499s47.333 14.833 64 25.5c26.667 18 47.334 36.833 62.001 56.5s29 46.834 43 81.501l236 600l230 593h80l473 -1224
c10 -26 21.333 -47 34 -63s30.334 -31.667 53.001 -47c15.333 -9.33301 35.333 -17.166 60 -23.499s45.334 -9.83301 62.001 -10.5v-71zM848.998 580.001l-215 550l-211 -550h426zM1087 1825c-6.66699 -25.333 -16.665 -51.333 -29.998 -78s-31.666 -53 -54.999 -79
c-24 -26 -49.167 -46.833 -75.5 -62.5s-57.833 -23.5 -94.5 -23.5c-38 0 -71.333 5.5 -100 16.5s-53.334 22.5 -74.001 34.5c-23.333 13.333 -45.5 25.333 -66.5 36s-44.167 16 -69.5 16c-20.667 0 -36.167 -2.66699 -46.5 -8s-21.166 -14.333 -32.499 -27
c-10.667 -12 -21.334 -27.833 -32.001 -47.5l-30 -53.5l-58 25c6.66699 21.333 18 47 34 77s33.333 56.333 52 79c20 24 44.333 44.5 73 61.5s58.667 25.5 90 25.5c37.333 0 69.5 -5.5 96.5 -16.5s51.833 -22.833 74.5 -35.5l64 -36c17.333 -10 38.666 -15 63.999 -15
c26.667 0 48.167 3.16699 64.5 9.5s29.166 15.166 38.499 26.499c10.667 12.667 19.5 26.334 26.5 41.001s15.5 33.667 25.5 57z" />
    <glyph glyph-name="Adieresis" unicode="&#xc4;" horiz-adv-x="1374" 
d="M1421 0l-591.002 0.000976562v71c52 3.33301 95.167 10 129.5 20s51.5 22.333 51.5 37c0 6 -0.666992 13.333 -2 22s-3.33301 16.334 -6 23.001l-118 318h-497c-18.667 -46.667 -33.834 -87.334 -45.501 -122.001l-31.5 -96c-8.66699 -28.667 -14.667 -52 -18 -70
s-5 -32.667 -5 -44c0 -26.667 21 -47.334 63 -62.001s89.333 -23.334 142 -26.001v-71h-534v71c17.333 1.33301 39 5.16602 65 11.499s47.333 14.833 64 25.5c26.667 18 47.334 36.833 62.001 56.5s29 46.834 43 81.501l236 600l230 593h80l473 -1224
c10 -26 21.333 -47 34 -63s30.334 -31.667 53.001 -47c15.333 -9.33301 35.333 -17.166 60 -23.499s45.334 -9.83301 62.001 -10.5v-71zM848.998 580.001l-215 550l-211 -550h426zM1038 1718c0 -34 -11.5 -63 -34.5 -87s-50.833 -36 -83.5 -36s-60.5 12 -83.5 36
s-34.5 53 -34.5 87s11.5 63 34.5 87s50.833 36 83.5 36s60.5 -12 83.5 -36s34.5 -53 34.5 -87zM587.998 1718c0 -34 -11.5 -63 -34.5 -87s-50.833 -36 -83.5 -36s-60.5 12 -83.5 36s-34.5 53 -34.5 87s11.5 63 34.5 87s50.833 36 83.5 36s60.5 -12 83.5 -36
s34.5 -53 34.5 -87z" />
    <glyph glyph-name="Aring" unicode="&#xc5;" horiz-adv-x="1374" 
d="M1421 0l-591.001 0.000976562v71c52 3.33301 95.167 10 129.5 20s51.5 22.333 51.5 37c0 6 -0.666992 13.333 -2 22s-3.33301 16.334 -6 23.001l-118 318h-497c-18.667 -46.667 -33.834 -87.334 -45.501 -122.001l-31.5 -96c-8.66699 -28 -14.667 -51.167 -18 -69.5
s-5 -33.166 -5 -44.499c0 -26.667 21 -47.334 63 -62.001s89.333 -23.334 142 -26.001v-71h-534v71c17.333 1.33301 39.166 5.16602 65.499 11.499s47.5 14.833 63.5 25.5c26.667 18 47.334 36.833 62.001 56.5s29 46.834 43 81.501l226.5 577l234.5 602
c-67.333 8 -120 31.833 -158 71.5s-57 89.5 -57 149.5c0 65.333 25 118.666 75 159.999s111 62 183 62c74.667 0 136.334 -20.167 185.001 -60.5s73 -94.166 73 -161.499c0 -57.333 -19.333 -106.333 -58 -147s-89.667 -65 -153 -73l468 -1211c10 -26 21.333 -47 34 -63
s30.334 -31.667 53.001 -47c14.667 -10 34.5 -18 59.5 -24s45.833 -9.33301 62.5 -10v-71zM848.999 580.001l-215 550l-211 -550h426zM828.999 1646c0 45.333 -11.1699 83 -33.5029 113s-55.166 45 -98.499 45c-42 0 -74.5 -14.333 -97.5 -43s-34.5 -67 -34.5 -115
c0 -46 11.333 -84.333 34 -115s55.334 -46 98.001 -46s75.334 15.167 98.001 45.5s34 68.833 34 115.5z" />
    <glyph glyph-name="AE" unicode="&#xc6;" horiz-adv-x="1988" 
d="M1941 418l-26.9902 -417.995h-1168v71c16 1.33301 40.833 3.83301 74.5 7.5s57.167 8.5 70.5 14.5c21.333 10 36.166 23 44.499 39s12.5 36.333 12.5 61v409h-480c-28.667 -47.333 -55.5 -93.833 -80.5 -139.5s-57.833 -109.834 -98.5 -192.501
c-8.66699 -16.667 -16 -33.667 -22 -51s-9 -33.666 -9 -48.999c0 -30 14.167 -53.167 42.5 -69.5s70.166 -26.166 125.499 -29.499v-71h-523v71c18.667 1.33301 40.834 5.66602 66.501 12.999s46.834 15.666 63.501 24.999c23.333 13.333 45.166 31.833 65.499 55.5
s38.833 50.167 55.5 79.5l303 529l309 553c-16.667 6 -42.334 10.833 -77.001 14.5s-65.667 6.16699 -93 7.5v71h1238v-342h-75c-12.667 50.667 -41.334 104.5 -86.001 161.5s-87 88.167 -127 93.5c-20.667 2.66699 -45.334 4.66699 -74.001 6s-61.334 2 -98.001 2h-213
v-564h150c50.667 0 88.167 4.83301 112.5 14.5s45.166 25.834 62.499 48.501c14.667 19.333 27.167 45.166 37.5 77.499s17.166 62.833 20.499 91.5h75v-555h-75c-2.66699 32 -9.83398 65.833 -21.501 101.5s-23.834 61.5 -36.501 77.5c-20.667 26 -44 43 -70 51
s-61 12 -105 12h-150v-426c0 -42.667 3 -76.334 9 -101.001s17.667 -43.334 35 -56.001c18 -12.667 41.833 -20.834 71.5 -24.501s72.167 -5.5 127.5 -5.5h85.5c35 0 64.167 1.33301 87.5 4c27.333 3.33301 53.166 8.16602 77.499 14.499s42.166 15.833 53.499 28.5
c30.667 32 62.834 80.5 96.501 145.5s55.167 112.833 64.5 143.5h72zM948.01 690.005v641h-77l-354 -641h431z" />
    <glyph glyph-name="Ccedilla" unicode="&#xc7;" horiz-adv-x="1315" 
d="M669 -30c-74 6 -145.168 25.3389 -213.501 58.0059s-129.166 77 -182.499 133c-59.333 62.667 -106.666 139.167 -141.999 229.5s-53 192.166 -53 305.499s17.333 216.166 52 308.499s82.667 171.833 144 238.5c60.667 66 132.334 117 215.001 153s171 54 265 54
c70 0 133.333 -8.66699 190 -26s110.667 -41.666 162 -72.999l41 68h80l9 -506h-82c-10.667 49.333 -26.667 102.833 -48 160.5s-46.333 106.5 -75 146.5c-32 45.333 -70 80.833 -114 106.5s-94.333 38.5 -151 38.5c-64.667 0 -124.834 -14.333 -180.501 -43
s-103.834 -71 -144.501 -127c-38.667 -54 -69 -122.667 -91 -206s-33 -176.333 -33 -279c0 -90.667 11.5 -173.834 34.5 -249.501s55.833 -142.167 98.5 -199.5c42.667 -56.667 93.167 -101 151.5 -133s123.5 -48 195.5 -48c54 0 103.667 8.5 149 25.5
s84.666 39.5 117.999 67.5c33.333 29.333 62.666 62.666 87.999 99.999s46 78 62 122l75 -36c-54.667 -136 -127.5 -234.167 -218.5 -294.5s-198.5 -92.5 -322.5 -96.5v-67c30 0 57 -1.83301 81 -5.5s48.333 -11.834 73 -24.501c22.667 -10.667 41 -25.834 55 -45.501
s21 -44.167 21 -73.5c0 -38.667 -10.667 -71.334 -32 -98.001s-51 -47.334 -89 -62.001c-36.667 -13.333 -77.334 -22.666 -122.001 -27.999s-96.667 -8 -156 -8v72c27.333 0 57 0.333008 89 1s59.333 3.66699 82 9c26.667 6 47.334 15.167 62.001 27.5s22 29.833 22 52.5
c0 16 -5 29.167 -15 39.5s-23.333 18.166 -40 23.499c-13.333 4.66699 -31.166 7.83398 -53.499 9.50098s-41.166 2.5 -56.499 2.5v177z" />
    <glyph glyph-name="Egrave" unicode="&#xc8;" horiz-adv-x="1338" 
d="M1291 418l-26.998 -417.997h-1178v71c20 1.33301 46.667 4.16602 80 8.49902s55 8.83301 65 13.5c21.333 10 36.166 23 44.499 39s12.5 36.333 12.5 61v1020c0 22 -3.66699 41.5 -11 58.5s-22.666 30.833 -45.999 41.5c-18 8.66699 -42.167 16.334 -72.5 23.001
s-54.5 10.667 -72.5 12v71h1098v-342h-75c-13.333 50.667 -42.166 104.5 -86.499 161.5s-86.5 88.167 -126.5 93.5c-20.667 2.66699 -45.334 4.66699 -74.001 6s-61.334 2 -98.001 2h-223v-564h160c51.333 0 88.833 4.83301 112.5 14.5s44.5 25.834 62.5 48.501
c14.667 19.333 27.167 45.166 37.5 77.499s17.166 62.833 20.499 91.5h75v-555h-75c-2.66699 32 -9.83398 65.833 -21.501 101.5s-23.834 61.5 -36.501 77.5c-20.667 26 -44.167 43 -70.5 51s-61.166 12 -104.499 12h-160v-426c0 -42.667 3 -76.334 9 -101.001
s17.667 -43.334 35 -56.001s41 -20.834 71 -24.501s72.667 -5.5 128 -5.5h87c36 0 66.333 1.33301 91 4c25.333 2.66699 51.5 7.5 78.5 14.5s46.167 16.5 57.5 28.5c30.667 32 62.834 80.5 96.501 145.5s55.167 112.833 64.5 143.5h72zM846.002 1546l-31 -39.001l-209.5 102
l-136.5 66c-32.667 16.667 -56.167 32.834 -70.5 48.501s-21.5 37.167 -21.5 64.5c0 23.333 8.33301 42.5 25 57.5s39 22.5 67 22.5c20 0 38.5 -4.5 55.5 -13.5s36.833 -25.5 59.5 -49.5l103.5 -105.5z" />
    <glyph glyph-name="Eacute" unicode="&#xc9;" horiz-adv-x="1338" 
d="M1291 418l-26.998 -417.997h-1178v71c20 1.33301 46.667 4.16602 80 8.49902s55 8.83301 65 13.5c21.333 10 36.166 23 44.499 39s12.5 36.333 12.5 61v1020c0 22 -3.66699 41.5 -11 58.5s-22.666 30.833 -45.999 41.5c-18 8.66699 -42.167 16.334 -72.5 23.001
s-54.5 10.667 -72.5 12v71h1098v-342h-75c-13.333 50.667 -42.166 104.5 -86.499 161.5s-86.5 88.167 -126.5 93.5c-20.667 2.66699 -45.334 4.66699 -74.001 6s-61.334 2 -98.001 2h-223v-564h160c51.333 0 88.833 4.83301 112.5 14.5s44.5 25.834 62.5 48.501
c14.667 19.333 27.167 45.166 37.5 77.499s17.166 62.833 20.499 91.5h75v-555h-75c-2.66699 32 -9.83398 65.833 -21.501 101.5s-23.834 61.5 -36.501 77.5c-20.667 26 -44.167 43 -70.5 51s-61.166 12 -104.499 12h-160v-426c0 -42.667 3 -76.334 9 -101.001
s17.667 -43.334 35 -56.001s41 -20.834 71 -24.501s72.667 -5.5 128 -5.5h87c36 0 66.333 1.33301 91 4c25.333 2.66699 51.5 7.5 78.5 14.5s46.167 16.5 57.5 28.5c30.667 32 62.834 80.5 96.501 145.5s55.167 112.833 64.5 143.5h72zM871.002 1675l-136.5 -66.5
l-209.5 -101.5l-31 39l148.5 143.5l113.5 115.5c21.333 22.667 40.833 38.834 58.5 48.501s36.5 14.5 56.5 14.5c25.333 0 47 -7.66699 65 -23s27 -34.333 27 -57c0 -28.667 -8.66699 -51.334 -26 -68.001s-39.333 -31.667 -66 -45z" />
    <glyph glyph-name="Ecircumflex" unicode="&#xca;" horiz-adv-x="1338" 
d="M1291 418l-26.998 -417.997h-1178v71c20 1.33301 46.667 4.16602 80 8.49902s55 8.83301 65 13.5c21.333 10 36.166 23 44.499 39s12.5 36.333 12.5 61v1020c0 22 -3.66699 41.5 -11 58.5s-22.666 30.833 -45.999 41.5c-18 8.66699 -42.167 16.334 -72.5 23.001
s-54.5 10.667 -72.5 12v71h1098v-342h-75c-13.333 50.667 -42.166 104.5 -86.499 161.5s-86.5 88.167 -126.5 93.5c-20.667 2.66699 -45.334 4.66699 -74.001 6s-61.334 2 -98.001 2h-223v-564h160c51.333 0 88.833 4.83301 112.5 14.5s44.5 25.834 62.5 48.501
c14.667 19.333 27.167 45.166 37.5 77.499s17.166 62.833 20.499 91.5h75v-555h-75c-2.66699 32 -9.83398 65.833 -21.501 101.5s-23.834 61.5 -36.501 77.5c-20.667 26 -44.167 43 -70.5 51s-61.166 12 -104.499 12h-160v-426c0 -42.667 3 -76.334 9 -101.001
s17.667 -43.334 35 -56.001s41 -20.834 71 -24.501s72.667 -5.5 128 -5.5h87c36 0 66.333 1.33301 91 4c25.333 2.66699 51.5 7.5 78.5 14.5s46.167 16.5 57.5 28.5c30.667 32 62.834 80.5 96.501 145.5s55.167 112.833 64.5 143.5h72zM1004 1539l-48 -32.001l-279 212
l-275 -212l-48 32l234 284c12 14.667 23.833 25.834 35.5 33.501s30.834 11.5 57.501 11.5c27.333 0 46.166 -3.66699 56.499 -11s20.5 -17.333 30.5 -30z" />
    <glyph glyph-name="Edieresis" unicode="&#xcb;" horiz-adv-x="1338" 
d="M1291 418l-26.998 -417.997h-1178v71c20 1.33301 46.667 4.16602 80 8.49902s55 8.83301 65 13.5c21.333 10 36.166 23 44.499 39s12.5 36.333 12.5 61v1020c0 22 -3.66699 41.5 -11 58.5s-22.666 30.833 -45.999 41.5c-18 8.66699 -42.167 16.334 -72.5 23.001
s-54.5 10.667 -72.5 12v71h1098v-342h-75c-13.333 50.667 -42.166 104.5 -86.499 161.5s-86.5 88.167 -126.5 93.5c-20.667 2.66699 -45.334 4.66699 -74.001 6s-61.334 2 -98.001 2h-223v-564h160c51.333 0 88.833 4.83301 112.5 14.5s44.5 25.834 62.5 48.501
c14.667 19.333 27.167 45.166 37.5 77.499s17.166 62.833 20.499 91.5h75v-555h-75c-2.66699 32 -9.83398 65.833 -21.501 101.5s-23.834 61.5 -36.501 77.5c-20.667 26 -44.167 43 -70.5 51s-61.166 12 -104.499 12h-160v-426c0 -42.667 3 -76.334 9 -101.001
s17.667 -43.334 35 -56.001s41 -20.834 71 -24.501s72.667 -5.5 128 -5.5h87c36 0 66.333 1.33301 91 4c25.333 2.66699 51.5 7.5 78.5 14.5s46.167 16.5 57.5 28.5c30.667 32 62.834 80.5 96.501 145.5s55.167 112.833 64.5 143.5h72zM1031 1730c0 -34 -11.5 -63 -34.5 -87
s-50.833 -36 -83.5 -36s-60.5 12 -83.5 36s-34.5 53 -34.5 87s11.5 63 34.5 87s50.833 36 83.5 36s60.5 -12 83.5 -36s34.5 -53 34.5 -87zM581.002 1730c0 -34 -11.5 -63 -34.5 -87s-50.833 -36 -83.5 -36s-60.5 12 -83.5 36s-34.5 53 -34.5 87s11.5 63 34.5 87
s50.833 36 83.5 36s60.5 -12 83.5 -36s34.5 -53 34.5 -87z" />
    <glyph glyph-name="Igrave" unicode="&#xcc;" horiz-adv-x="798" 
d="M718 0l-639.001 -0.00195312v71l78 6c34 2.66699 58 6.66699 72 12c22 8.66699 38 20.5 48 35.5s15 35.833 15 62.5v1028c0 23.333 -3.66699 42.833 -11 58.5s-24.666 28.834 -51.999 39.501c-20 8 -45.167 15.5 -75.5 22.5s-55.166 11.167 -74.499 12.5v71h639v-71
c-20.667 -0.666992 -45.334 -3.16699 -74.001 -7.5s-53.667 -9.83301 -75 -16.5c-25.333 -8 -42.333 -21 -51 -39s-13 -38 -13 -60v-1027c0 -22 4.83301 -41.5 14.5 -58.5s26.167 -30.5 49.5 -40.5c14 -5.33301 36.833 -11.166 68.5 -17.499s58.5 -9.83301 80.5 -10.5v-71z
M673.999 1546l-31 -39.001l-209.5 102l-136.5 66c-32.667 16.667 -56.167 32.834 -70.5 48.501s-21.5 37.167 -21.5 64.5c0 23.333 8.33301 42.5 25 57.5s39 22.5 67 22.5c20 0 38.5 -4.5 55.5 -13.5s36.833 -25.5 59.5 -49.5l103.5 -105.5z" />
    <glyph glyph-name="Iacute" unicode="&#xcd;" horiz-adv-x="798" 
d="M718 0l-639.001 -0.00195312v71l78 6c34 2.66699 58 6.66699 72 12c22 8.66699 38 20.5 48 35.5s15 35.833 15 62.5v1028c0 23.333 -3.66699 42.833 -11 58.5s-24.666 28.834 -51.999 39.501c-20 8 -45.167 15.5 -75.5 22.5s-55.166 11.167 -74.499 12.5v71h639v-71
c-20.667 -0.666992 -45.334 -3.16699 -74.001 -7.5s-53.667 -9.83301 -75 -16.5c-25.333 -8 -42.333 -21 -51 -39s-13 -38 -13 -60v-1027c0 -22 4.83301 -41.5 14.5 -58.5s26.167 -30.5 49.5 -40.5c14 -5.33301 36.833 -11.166 68.5 -17.499s58.5 -9.83301 80.5 -10.5v-71z
M543.999 1675l-136.5 -66.5l-209.5 -101.5l-31 39l148.5 143.5l113.5 115.5c21.333 22.667 40.833 38.834 58.5 48.501s36.5 14.5 56.5 14.5c25.333 0 47 -7.66699 65 -23s27 -34.333 27 -57c0 -28.667 -8.66699 -51.334 -26 -68.001s-39.333 -31.667 -66 -45z" />
    <glyph glyph-name="Icircumflex" unicode="&#xce;" horiz-adv-x="798" 
d="M718 0l-639.001 -0.00195312v71l78 6c34 2.66699 58 6.66699 72 12c22 8.66699 38 20.5 48 35.5s15 35.833 15 62.5v1028c0 23.333 -3.66699 42.833 -11 58.5s-24.666 28.834 -51.999 39.501c-20 8 -45.167 15.5 -75.5 22.5s-55.166 11.167 -74.499 12.5v71h639v-71
c-20.667 -0.666992 -45.334 -3.16699 -74.001 -7.5s-53.667 -9.83301 -75 -16.5c-25.333 -8 -42.333 -21 -51 -39s-13 -38 -13 -60v-1027c0 -22 4.83301 -41.5 14.5 -58.5s26.167 -30.5 49.5 -40.5c14 -5.33301 36.833 -11.166 68.5 -17.499s58.5 -9.83301 80.5 -10.5v-71z
M723.999 1539l-48 -32.001l-279 212l-275 -212l-48 32l234 284c12 14.667 23.833 25.834 35.5 33.501s30.834 11.5 57.501 11.5c27.333 0 46.166 -3.66699 56.499 -11s20.5 -17.333 30.5 -30z" />
    <glyph glyph-name="Idieresis" unicode="&#xcf;" horiz-adv-x="798" 
d="M718 0l-639.001 -0.00195312v71l78 6c34 2.66699 58 6.66699 72 12c22 8.66699 38 20.5 48 35.5s15 35.833 15 62.5v1028c0 23.333 -3.66699 42.833 -11 58.5s-24.666 28.834 -51.999 39.501c-20 8 -45.167 15.5 -75.5 22.5s-55.166 11.167 -74.499 12.5v71h639v-71
c-20.667 -0.666992 -45.334 -3.16699 -74.001 -7.5s-53.667 -9.83301 -75 -16.5c-25.333 -8 -42.333 -21 -51 -39s-13 -38 -13 -60v-1027c0 -22 4.83301 -41.5 14.5 -58.5s26.167 -30.5 49.5 -40.5c14 -5.33301 36.833 -11.166 68.5 -17.499s58.5 -9.83301 80.5 -10.5v-71z
M731.999 1730c0 -34 -11.5 -63 -34.5 -87s-50.833 -36 -83.5 -36s-60.5 12 -83.5 36s-34.5 53 -34.5 87s11.5 63 34.5 87s50.833 36 83.5 36s60.5 -12 83.5 -36s34.5 -53 34.5 -87zM301.999 1730c0 -34 -11.5 -63 -34.5 -87s-50.833 -36 -83.5 -36s-60.5 12 -83.5 36
s-34.5 53 -34.5 87s11.5 63 34.5 87s50.833 36 83.5 36s60.5 -12 83.5 -36s34.5 -53 34.5 -87z" />
    <glyph glyph-name="Eth" unicode="&#xd0;" horiz-adv-x="1534" 
d="M1457 701c0 -120.667 -22.667 -225.333 -68 -314s-104.333 -161.334 -177 -218.001c-73.333 -56.667 -155.666 -99 -246.999 -127s-185.666 -42 -282.999 -42h-588v71c19.333 0 44.5 1.83301 75.5 5.5s51.5 7.83398 61.5 12.501c20 8.66699 34.5 21.5 43.5 38.5
s13.5 37.5 13.5 61.5v512h-186v98h186v414c0 22.667 -3.83301 43 -11.5 61s-22.834 32.333 -45.501 43c-20.667 10 -43 17.333 -67 22s-44.667 7.66699 -62 9v71h620c85.333 0 169.333 -13.167 252 -39.5s154.667 -61.833 216 -106.5
c83.333 -59.333 148.666 -137 195.999 -233s71 -209 71 -339zM1212 702.001c0 95.333 -12.666 181.499 -37.999 258.499s-62.333 144.167 -111 201.5c-46 54.667 -102.5 97.667 -169.5 129s-141.5 47 -223.5 47c-27.333 0 -58.166 -0.5 -92.499 -1.5
s-59.833 -1.83301 -76.5 -2.5v-535h301v-98h-301v-458c0 -60.667 17.667 -102.667 53 -126s89.666 -35 162.999 -35c84.667 0 158.667 15 222 45s114.666 71.667 153.999 125c41.333 56 71.5 120.833 90.5 194.5s28.5 158.834 28.5 255.501z" />
    <glyph glyph-name="Ntilde" unicode="&#xd1;" horiz-adv-x="1571" 
d="M1554 1348c-18.667 -0.666992 -47.332 -6 -85.999 -16s-66.334 -20.333 -83.001 -31c-24 -16.667 -40.167 -48.667 -48.5 -96s-12.5 -107.333 -12.5 -180v-1039h-87l-860 1161v-732c0 -82 5.16699 -145 15.5 -189s26.166 -75.333 47.499 -94
c15.333 -14.667 47 -28.334 95 -41.001s79.667 -19.334 95 -20.001v-71h-582v71c18 1.33301 48.333 7.83301 91 19.5s69.334 22.167 80.001 31.5c23.333 18.667 39.333 47.167 48 85.5s13 103.833 13 196.5v699c0 30.667 -5.33301 61.334 -16 92.001s-25 54.334 -43 71.001
c-24 22 -56.5 40.833 -97.5 56.5s-74.167 24.167 -99.5 25.5v71h405l798 -1082v675c0 82.667 -5.33301 146.167 -16 190.5s-26 73.833 -46 88.5c-18.667 12.667 -49.167 25 -91.5 37s-74.5 18.667 -96.5 20v71h577v-71zM1194 1835
c-6.66699 -25.333 -16.665 -51.333 -29.998 -78s-31.666 -53 -54.999 -79c-24 -26 -49.167 -46.833 -75.5 -62.5s-57.833 -23.5 -94.5 -23.5c-38 0 -71.333 5.5 -100 16.5s-53.334 22.5 -74.001 34.5c-23.333 13.333 -45.5 25.333 -66.5 36s-44.167 16 -69.5 16
c-20.667 0 -36.167 -2.66699 -46.5 -8s-21.166 -14.333 -32.499 -27c-10.667 -12 -21.334 -27.833 -32.001 -47.5l-30 -53.5l-58 25c6.66699 21.333 18 47 34 77s33.333 56.333 52 79c20 24 44.333 44.5 73 61.5s58.667 25.5 90 25.5c37.333 0 69.5 -5.5 96.5 -16.5
s51.833 -22.833 74.5 -35.5l64 -36c17.333 -10 38.666 -15 63.999 -15c26.667 0 48.167 3.16699 64.5 9.5s29.166 15.166 38.499 26.499c10.667 12.667 19.5 26.334 26.5 41.001s15.5 33.667 25.5 57z" />
    <glyph glyph-name="Ograve" unicode="&#xd2;" horiz-adv-x="1524" 
d="M1244 1251c62.667 -65.333 111.668 -144.165 147.001 -236.498s53 -194.5 53 -306.5c0 -112.667 -18 -215 -54 -307s-86 -170.333 -150 -235c-62 -64 -134 -113.333 -216 -148s-169.333 -52 -262 -52c-98.667 0 -189.834 18.5 -273.501 55.5s-155.5 88.5 -215.5 154.5
c-60 64.667 -107.167 143.167 -141.5 235.5s-51.5 191.166 -51.5 296.499c0 115.333 18 218.166 54 308.499s85.667 168.5 149 234.5c62.667 65.333 135.5 115.333 218.5 150s169.833 52 260.5 52c94 0 182.667 -17.667 266 -53s155.333 -85 216 -149zM1095 245.001
c37.333 60.667 64.5 129.335 81.5 206.002s25.5 162.334 25.5 257.001c0 97.333 -9.5 186.666 -28.5 267.999s-46.833 150.666 -83.5 207.999c-36.667 56.667 -82.667 100.834 -138 132.501s-118.666 47.5 -189.999 47.5c-80 0 -148 -18.333 -204 -55
s-101.667 -85.667 -137 -147c-33.333 -58.667 -58.166 -127.334 -74.499 -206.001s-24.5 -161.334 -24.5 -248.001c0 -96 8.66699 -182.667 26 -260s44.666 -146 81.999 -206c36 -58.667 81.333 -104.5 136 -137.5s120 -49.5 196 -49.5c71.333 0 135.666 16.667 192.999 50
s104 80 140 140zM1031 1546l-31 -39.001l-209.5 102l-136.5 66c-32.667 16.667 -56.167 32.834 -70.5 48.501s-21.5 37.167 -21.5 64.5c0 23.333 8.33301 42.5 25 57.5s39 22.5 67 22.5c20 0 38.5 -4.5 55.5 -13.5s36.833 -25.5 59.5 -49.5l103.5 -105.5z" />
    <glyph glyph-name="Oacute" unicode="&#xd3;" horiz-adv-x="1524" 
d="M1244 1251c62.667 -65.333 111.668 -144.165 147.001 -236.498s53 -194.5 53 -306.5c0 -112.667 -18 -215 -54 -307s-86 -170.333 -150 -235c-62 -64 -134 -113.333 -216 -148s-169.333 -52 -262 -52c-98.667 0 -189.834 18.5 -273.501 55.5s-155.5 88.5 -215.5 154.5
c-60 64.667 -107.167 143.167 -141.5 235.5s-51.5 191.166 -51.5 296.499c0 115.333 18 218.166 54 308.499s85.667 168.5 149 234.5c62.667 65.333 135.5 115.333 218.5 150s169.833 52 260.5 52c94 0 182.667 -17.667 266 -53s155.333 -85 216 -149zM1095 245.001
c37.333 60.667 64.5 129.335 81.5 206.002s25.5 162.334 25.5 257.001c0 97.333 -9.5 186.666 -28.5 267.999s-46.833 150.666 -83.5 207.999c-36.667 56.667 -82.667 100.834 -138 132.501s-118.666 47.5 -189.999 47.5c-80 0 -148 -18.333 -204 -55
s-101.667 -85.667 -137 -147c-33.333 -58.667 -58.166 -127.334 -74.499 -206.001s-24.5 -161.334 -24.5 -248.001c0 -96 8.66699 -182.667 26 -260s44.666 -146 81.999 -206c36 -58.667 81.333 -104.5 136 -137.5s120 -49.5 196 -49.5c71.333 0 135.666 16.667 192.999 50
s104 80 140 140zM913.001 1675l-136.5 -66.5l-209.5 -101.5l-31 39l148.5 143.5l113.5 115.5c21.333 22.667 40.833 38.834 58.5 48.501s36.5 14.5 56.5 14.5c25.333 0 47 -7.66699 65 -23s27 -34.333 27 -57c0 -28.667 -8.66699 -51.334 -26 -68.001
s-39.333 -31.667 -66 -45z" />
    <glyph glyph-name="Ocircumflex" unicode="&#xd4;" horiz-adv-x="1524" 
d="M1244 1251c62.667 -65.333 111.668 -144.165 147.001 -236.498s53 -194.5 53 -306.5c0 -112.667 -18 -215 -54 -307s-86 -170.333 -150 -235c-62 -64 -134 -113.333 -216 -148s-169.333 -52 -262 -52c-98.667 0 -189.834 18.5 -273.501 55.5s-155.5 88.5 -215.5 154.5
c-60 64.667 -107.167 143.167 -141.5 235.5s-51.5 191.166 -51.5 296.499c0 115.333 18 218.166 54 308.499s85.667 168.5 149 234.5c62.667 65.333 135.5 115.333 218.5 150s169.833 52 260.5 52c94 0 182.667 -17.667 266 -53s155.333 -85 216 -149zM1095 245.001
c37.333 60.667 64.5 129.335 81.5 206.002s25.5 162.334 25.5 257.001c0 97.333 -9.5 186.666 -28.5 267.999s-46.833 150.666 -83.5 207.999c-36.667 56.667 -82.667 100.834 -138 132.501s-118.666 47.5 -189.999 47.5c-80 0 -148 -18.333 -204 -55
s-101.667 -85.667 -137 -147c-33.333 -58.667 -58.166 -127.334 -74.499 -206.001s-24.5 -161.334 -24.5 -248.001c0 -96 8.66699 -182.667 26 -260s44.666 -146 81.999 -206c36 -58.667 81.333 -104.5 136 -137.5s120 -49.5 196 -49.5c71.333 0 135.666 16.667 192.999 50
s104 80 140 140zM1087 1539l-48 -32.001l-279 212l-275 -212l-48 32l234 284c12 14.667 23.833 25.834 35.5 33.501s30.834 11.5 57.501 11.5c27.333 0 46.166 -3.66699 56.499 -11s20.5 -17.333 30.5 -30z" />
    <glyph glyph-name="Otilde" unicode="&#xd5;" horiz-adv-x="1524" 
d="M1244 1251c62.667 -65.333 111.668 -144.165 147.001 -236.498s53 -194.5 53 -306.5c0 -112.667 -18 -215 -54 -307s-86 -170.333 -150 -235c-62 -64 -134 -113.333 -216 -148s-169.333 -52 -262 -52c-98.667 0 -189.834 18.5 -273.501 55.5s-155.5 88.5 -215.5 154.5
c-60 64.667 -107.167 143.167 -141.5 235.5s-51.5 191.166 -51.5 296.499c0 115.333 18 218.166 54 308.499s85.667 168.5 149 234.5c62.667 65.333 135.5 115.333 218.5 150s169.833 52 260.5 52c94 0 182.667 -17.667 266 -53s155.333 -85 216 -149zM1095 245.001
c37.333 60.667 64.5 129.335 81.5 206.002s25.5 162.334 25.5 257.001c0 97.333 -9.5 186.666 -28.5 267.999s-46.833 150.666 -83.5 207.999c-36.667 56.667 -82.667 100.834 -138 132.501s-118.666 47.5 -189.999 47.5c-80 0 -148 -18.333 -204 -55
s-101.667 -85.667 -137 -147c-33.333 -58.667 -58.166 -127.334 -74.499 -206.001s-24.5 -161.334 -24.5 -248.001c0 -96 8.66699 -182.667 26 -260s44.666 -146 81.999 -206c36 -58.667 81.333 -104.5 136 -137.5s120 -49.5 196 -49.5c71.333 0 135.666 16.667 192.999 50
s104 80 140 140zM1144 1835c-6.66699 -25.333 -16.665 -51.333 -29.998 -78s-31.666 -53 -54.999 -79c-24 -26 -49.167 -46.833 -75.5 -62.5s-57.833 -23.5 -94.5 -23.5c-38 0 -71.333 5.5 -100 16.5s-53.334 22.5 -74.001 34.5c-23.333 13.333 -45.5 25.333 -66.5 36
s-44.167 16 -69.5 16c-20.667 0 -36.167 -2.66699 -46.5 -8s-21.166 -14.333 -32.499 -27c-10.667 -12 -21.334 -27.833 -32.001 -47.5l-30 -53.5l-58 25c6.66699 21.333 18 47 34 77s33.333 56.333 52 79c20 24 44.333 44.5 73 61.5s58.667 25.5 90 25.5
c37.333 0 69.5 -5.5 96.5 -16.5s51.833 -22.833 74.5 -35.5l64 -36c17.333 -10 38.666 -15 63.999 -15c26.667 0 48.167 3.16699 64.5 9.5s29.166 15.166 38.499 26.499c10.667 12.667 19.5 26.334 26.5 41.001s15.5 33.667 25.5 57z" />
    <glyph glyph-name="Odieresis" unicode="&#xd6;" horiz-adv-x="1524" 
d="M1244 1251c62.667 -65.333 111.668 -144.165 147.001 -236.498s53 -194.5 53 -306.5c0 -112.667 -18 -215 -54 -307s-86 -170.333 -150 -235c-62 -64 -134 -113.333 -216 -148s-169.333 -52 -262 -52c-98.667 0 -189.834 18.5 -273.501 55.5s-155.5 88.5 -215.5 154.5
c-60 64.667 -107.167 143.167 -141.5 235.5s-51.5 191.166 -51.5 296.499c0 115.333 18 218.166 54 308.499s85.667 168.5 149 234.5c62.667 65.333 135.5 115.333 218.5 150s169.833 52 260.5 52c94 0 182.667 -17.667 266 -53s155.333 -85 216 -149zM1095 245.001
c37.333 60.667 64.5 129.335 81.5 206.002s25.5 162.334 25.5 257.001c0 97.333 -9.5 186.666 -28.5 267.999s-46.833 150.666 -83.5 207.999c-36.667 56.667 -82.667 100.834 -138 132.501s-118.666 47.5 -189.999 47.5c-80 0 -148 -18.333 -204 -55
s-101.667 -85.667 -137 -147c-33.333 -58.667 -58.166 -127.334 -74.499 -206.001s-24.5 -161.334 -24.5 -248.001c0 -96 8.66699 -182.667 26 -260s44.666 -146 81.999 -206c36 -58.667 81.333 -104.5 136 -137.5s120 -49.5 196 -49.5c71.333 0 135.666 16.667 192.999 50
s104 80 140 140zM1105 1730c0 -34 -11.5 -63 -34.5 -87s-50.833 -36 -83.5 -36s-60.5 12 -83.5 36s-34.5 53 -34.5 87s11.5 63 34.5 87s50.833 36 83.5 36s60.5 -12 83.5 -36s34.5 -53 34.5 -87zM655.001 1730c0 -34 -11.5 -63 -34.5 -87s-50.833 -36 -83.5 -36
s-60.5 12 -83.5 36s-34.5 53 -34.5 87s11.5 63 34.5 87s50.833 36 83.5 36s60.5 -12 83.5 -36s34.5 -53 34.5 -87z" />
    <glyph glyph-name="multiply" unicode="&#xd7;" horiz-adv-x="1317" 
d="M1108 199l-89 -89l-361 363l-362 -364l-88 89l364 362l-364 361l89 88l361 -362l362 363l88 -88l-364 -362z" />
    <glyph glyph-name="Oslash" unicode="&#xd8;" horiz-adv-x="1524" 
d="M1444 708c0 -114 -18.501 -217.168 -55.501 -309.501s-86.5 -170.166 -148.5 -233.499c-62 -64 -134 -113.333 -216 -148s-169.333 -52 -262 -52c-85.333 0 -164.666 14.333 -237.999 43s-138.333 67.667 -195 117l-174 -210l-64 50l181 215
c-60 66 -107 144.5 -141 235.5s-51 188.5 -51 292.5c0 115.333 18 218.166 54 308.499s85.667 168.5 149 234.5c62.667 66 135.667 116.333 219 151s170 52 260 52c81.333 0 158.833 -13.833 232.5 -41.5s140.5 -67.5 200.5 -119.5l151 183l65 -52l-158 -188
c58.667 -65.333 105.167 -142.166 139.5 -230.499s51.5 -187.5 51.5 -297.5zM1098 1176c-38.667 62 -86 109 -142 141s-120.667 48 -194 48c-79.333 0 -147 -17.833 -203 -53.5s-102.667 -85.5 -140 -149.5c-33.333 -57.333 -58.333 -125.833 -75 -205.5
s-25 -162.5 -25 -248.5c0 -77.333 5.5 -149.333 16.5 -216s27.5 -125.667 49.5 -177zM1098 243.999c36.667 61.333 63.667 130.333 81 207s26 162.334 26 257.001c0 76 -5.33301 147.5 -16 214.5s-27 126.833 -49 179.5l-714 -859
c36 -58.667 82.167 -104.834 138.5 -138.501s122.166 -50.5 197.499 -50.5c72.667 0 137.334 16.167 194.001 48.5s104 79.5 142 141.5z" />
    <glyph glyph-name="Ugrave" unicode="&#xd9;" horiz-adv-x="1549" 
d="M1533 1348c-18.667 -0.666992 -46 -4.66602 -82 -11.999s-65.333 -18.333 -88 -33c-22.667 -15.333 -38.334 -47 -47.001 -95s-13 -106.667 -13 -176v-617c0 -78.667 -16.333 -147 -49 -205s-75.667 -105.667 -129 -143c-52.667 -36 -108.167 -61.833 -166.5 -77.5
s-114.166 -23.5 -167.499 -23.5c-85.333 0 -161.333 11.167 -228 33.5s-122.667 52.5 -168 90.5c-44.667 38 -78.334 81.5 -101.001 130.5s-34 100.167 -34 153.5v839c0 23.333 -3.83301 42.833 -11.5 58.5s-23.167 30.167 -46.5 43.5c-16.667 9.33301 -38 16.833 -64 22.5
s-47.333 9.16699 -64 10.5v71h591v-71c-18.667 -0.666992 -42.167 -3.66699 -70.5 -9s-49.166 -10.333 -62.499 -15c-22.667 -8 -37.834 -21.333 -45.501 -40s-11.5 -39 -11.5 -61v-784c0 -38 4.16699 -77.833 12.5 -119.5s24.833 -80.5 49.5 -116.5
c26 -36.667 61.333 -66.667 106 -90s106 -35 184 -35c73.333 0 134.833 11.667 184.5 35s88.834 54 117.501 92c27.333 36 46.666 73.667 57.999 113s17 79 17 119v582c0 74 -5.33301 134.5 -16 181.5s-26.334 77.833 -47.001 92.5
c-23.333 16.667 -55.166 29.667 -95.499 39s-71.166 14.666 -92.499 15.999v71h580v-71zM1021 1546l-31 -39.001l-209.5 102l-136.5 66c-32.667 16.667 -56.167 32.834 -70.5 48.501s-21.5 37.167 -21.5 64.5c0 23.333 8.33301 42.5 25 57.5s39 22.5 67 22.5
c20 0 38.5 -4.5 55.5 -13.5s36.833 -25.5 59.5 -49.5l103.5 -105.5z" />
    <glyph glyph-name="Uacute" unicode="&#xda;" horiz-adv-x="1549" 
d="M1533 1348c-18.667 -0.666992 -46 -4.66602 -82 -11.999s-65.333 -18.333 -88 -33c-22.667 -15.333 -38.334 -47 -47.001 -95s-13 -106.667 -13 -176v-617c0 -78.667 -16.333 -147 -49 -205s-75.667 -105.667 -129 -143c-52.667 -36 -108.167 -61.833 -166.5 -77.5
s-114.166 -23.5 -167.499 -23.5c-85.333 0 -161.333 11.167 -228 33.5s-122.667 52.5 -168 90.5c-44.667 38 -78.334 81.5 -101.001 130.5s-34 100.167 -34 153.5v839c0 23.333 -3.83301 42.833 -11.5 58.5s-23.167 30.167 -46.5 43.5c-16.667 9.33301 -38 16.833 -64 22.5
s-47.333 9.16699 -64 10.5v71h591v-71c-18.667 -0.666992 -42.167 -3.66699 -70.5 -9s-49.166 -10.333 -62.499 -15c-22.667 -8 -37.834 -21.333 -45.501 -40s-11.5 -39 -11.5 -61v-784c0 -38 4.16699 -77.833 12.5 -119.5s24.833 -80.5 49.5 -116.5
c26 -36.667 61.333 -66.667 106 -90s106 -35 184 -35c73.333 0 134.833 11.667 184.5 35s88.834 54 117.501 92c27.333 36 46.666 73.667 57.999 113s17 79 17 119v582c0 74 -5.33301 134.5 -16 181.5s-26.334 77.833 -47.001 92.5
c-23.333 16.667 -55.166 29.667 -95.499 39s-71.166 14.666 -92.499 15.999v71h580v-71zM960 1675l-136.5 -66.5l-209.5 -101.5l-31 39l148.5 143.5l113.5 115.5c21.333 22.667 40.833 38.834 58.5 48.501s36.5 14.5 56.5 14.5c25.333 0 47 -7.66699 65 -23
s27 -34.333 27 -57c0 -28.667 -8.66699 -51.334 -26 -68.001s-39.333 -31.667 -66 -45z" />
    <glyph glyph-name="Ucircumflex" unicode="&#xdb;" horiz-adv-x="1549" 
d="M1533 1348c-18.667 -0.666992 -46 -4.66602 -82 -11.999s-65.333 -18.333 -88 -33c-22.667 -15.333 -38.334 -47 -47.001 -95s-13 -106.667 -13 -176v-617c0 -78.667 -16.333 -147 -49 -205s-75.667 -105.667 -129 -143c-52.667 -36 -108.167 -61.833 -166.5 -77.5
s-114.166 -23.5 -167.499 -23.5c-85.333 0 -161.333 11.167 -228 33.5s-122.667 52.5 -168 90.5c-44.667 38 -78.334 81.5 -101.001 130.5s-34 100.167 -34 153.5v839c0 23.333 -3.83301 42.833 -11.5 58.5s-23.167 30.167 -46.5 43.5c-16.667 9.33301 -38 16.833 -64 22.5
s-47.333 9.16699 -64 10.5v71h591v-71c-18.667 -0.666992 -42.167 -3.66699 -70.5 -9s-49.166 -10.333 -62.499 -15c-22.667 -8 -37.834 -21.333 -45.501 -40s-11.5 -39 -11.5 -61v-784c0 -38 4.16699 -77.833 12.5 -119.5s24.833 -80.5 49.5 -116.5
c26 -36.667 61.333 -66.667 106 -90s106 -35 184 -35c73.333 0 134.833 11.667 184.5 35s88.834 54 117.501 92c27.333 36 46.666 73.667 57.999 113s17 79 17 119v582c0 74 -5.33301 134.5 -16 181.5s-26.334 77.833 -47.001 92.5
c-23.333 16.667 -55.166 29.667 -95.499 39s-71.166 14.666 -92.499 15.999v71h580v-71zM1135 1539l-48 -32.001l-279 212l-275 -212l-48 32l234 284c12 14.667 23.833 25.834 35.5 33.501s30.834 11.5 57.501 11.5c27.333 0 46.166 -3.66699 56.499 -11
s20.5 -17.333 30.5 -30z" />
    <glyph glyph-name="Udieresis" unicode="&#xdc;" horiz-adv-x="1549" 
d="M1533 1348c-18.667 -0.666992 -46 -4.66602 -82 -11.999s-65.333 -18.333 -88 -33c-22.667 -15.333 -38.334 -47 -47.001 -95s-13 -106.667 -13 -176v-617c0 -78.667 -16.333 -147 -49 -205s-75.667 -105.667 -129 -143c-52.667 -36 -108.167 -61.833 -166.5 -77.5
s-114.166 -23.5 -167.499 -23.5c-85.333 0 -161.333 11.167 -228 33.5s-122.667 52.5 -168 90.5c-44.667 38 -78.334 81.5 -101.001 130.5s-34 100.167 -34 153.5v839c0 23.333 -3.83301 42.833 -11.5 58.5s-23.167 30.167 -46.5 43.5c-16.667 9.33301 -38 16.833 -64 22.5
s-47.333 9.16699 -64 10.5v71h591v-71c-18.667 -0.666992 -42.167 -3.66699 -70.5 -9s-49.166 -10.333 -62.499 -15c-22.667 -8 -37.834 -21.333 -45.501 -40s-11.5 -39 -11.5 -61v-784c0 -38 4.16699 -77.833 12.5 -119.5s24.833 -80.5 49.5 -116.5
c26 -36.667 61.333 -66.667 106 -90s106 -35 184 -35c73.333 0 134.833 11.667 184.5 35s88.834 54 117.501 92c27.333 36 46.666 73.667 57.999 113s17 79 17 119v582c0 74 -5.33301 134.5 -16 181.5s-26.334 77.833 -47.001 92.5
c-23.333 16.667 -55.166 29.667 -95.499 39s-71.166 14.666 -92.499 15.999v71h580v-71zM1158 1730c0 -34 -11.5 -63 -34.5 -87s-50.833 -36 -83.5 -36s-60.5 12 -83.5 36s-34.5 53 -34.5 87s11.5 63 34.5 87s50.833 36 83.5 36s60.5 -12 83.5 -36s34.5 -53 34.5 -87z
M708 1730c0 -34 -11.5 -63 -34.5 -87s-50.833 -36 -83.5 -36s-60.5 12 -83.5 36s-34.5 53 -34.5 87s11.5 63 34.5 87s50.833 36 83.5 36s60.5 -12 83.5 -36s34.5 -53 34.5 -87z" />
    <glyph glyph-name="Yacute" unicode="&#xdd;" horiz-adv-x="1260" 
d="M1314 1348c-11.333 -0.666992 -29.332 -5.16113 -53.999 -13.4941s-42.334 -16.5 -53.001 -24.5c-26 -16 -43.667 -28.333 -53 -37s-27.333 -31.334 -54 -68.001c-52 -73.333 -100 -147.666 -144 -222.999l-165 -287c-24.667 -42.667 -41 -77 -49 -103
s-12 -63.667 -12 -113v-271c0 -24 4.83301 -44.833 14.5 -62.5s26.167 -31.834 49.5 -42.501c14 -5.33301 39 -11.833 75 -19.5s65 -11.834 87 -12.501v-71h-664v71c18.667 1.33301 46.667 3.83301 84 7.5s63.333 8.5 78 14.5c24 10 40.5 23.667 49.5 41
s13.5 38.666 13.5 63.999v345c0 10.667 -6.5 30.167 -19.5 58.5s-28.5 59.833 -46.5 94.5l-133 251l-127 231c-22 38 -41.5 66.667 -58.5 86s-36.5 36.333 -58.5 51c-16 10 -35.167 17.667 -57.5 23s-42.5 8.66602 -60.5 9.99902v71h605v-71c-68 -1.33301 -116 -6 -144 -14
s-42 -19.333 -42 -34c0 -4 2 -11 6 -21s9.66699 -22.667 17 -38l31 -59.5l34 -64.5l96 -177.5l128 -230.5l239.5 394.5c55 94.333 82.5 150.833 82.5 169.5c0 15.333 -5.66699 27.666 -17 36.999s-26.333 16.666 -45 21.999c-19.333 5.33301 -40.333 8.83301 -63 10.5
s-43.667 3.5 -63 5.5v71h493v-71zM871.001 1675.01l-136.5 -66.5l-209.5 -101.5l-31 39l148.5 143.5l113.5 115.5c21.333 22.667 40.833 38.834 58.5 48.501s36.5 14.5 56.5 14.5c25.333 0 47 -7.66699 65 -23s27 -34.333 27 -57c0 -28.667 -8.66699 -51.334 -26 -68.001
s-39.333 -31.667 -66 -45z" />
    <glyph glyph-name="Thorn" unicode="&#xde;" horiz-adv-x="1258" 
d="M1189 757c0 -76 -14.6699 -141.665 -44.0029 -196.998s-68 -100.333 -116 -135c-48 -34 -102.5 -59.5 -163.5 -76.5s-126.167 -25.5 -195.5 -25.5h-169v-130c0 -23.333 3.66699 -43.833 11 -61.5s23 -31.167 47 -40.5c12 -4.66699 32.833 -9 62.5 -13
s57.167 -6.33301 82.5 -7v-71h-606v71c16 1.33301 39.167 3.66602 69.5 6.99902s51.5 7.66602 63.5 12.999c20 8.66699 34.5 21.334 43.5 38.001s13.5 38 13.5 64v1022c0 22 -3.66699 41.333 -11 58s-22.666 30 -45.999 40c-19.333 8.66699 -41.833 16.334 -67.5 23.001
s-48.167 10.667 -67.5 12v71h597v-71c-19.333 -0.666992 -43.166 -3.66699 -71.499 -9s-49.166 -10.333 -62.499 -15c-22.667 -8 -38 -20.833 -46 -38.5s-12 -37.834 -12 -60.501v-93h252c126 0 230.167 -34.333 312.5 -103s123.5 -159.334 123.5 -272.001zM885.997 529.002
c22.667 33.333 37.499 67.333 44.499 102s10.5 66 10.5 94c0 38.667 -4.66699 78 -14 118s-25.333 75 -48 105c-24.667 32 -56.167 56.833 -94.5 74.5s-85.833 26.5 -142.5 26.5h-141v-638h109c72 0 130.333 11.333 175 34s78.334 50.667 101.001 84z" />
    <glyph glyph-name="germandbls" unicode="&#xdf;" horiz-adv-x="1123" 
d="M928 806c33.333 -34.667 61.001 -77.4961 83.001 -128.496s33 -110.833 33 -179.5c0 -150 -41.667 -272.333 -125 -367s-186.333 -142 -309 -142c-21.333 0 -43 1 -65 3s-40.667 4.66699 -56 8v81c15.333 -3.33301 30.666 -5.83301 45.999 -7.5s29.666 -2.5 42.999 -2.5
c46 0 86 11.333 120 34s60.333 53 79 91c20 39.333 34.667 84.166 44 134.499s14 108.166 14 173.499c0 115.333 -24.833 208.666 -74.5 279.999s-120.167 107 -211.5 107h-20v85h36c26 0 52.833 5 80.5 15s52.5 25.333 74.5 46c23.333 22.667 41.833 50.667 55.5 84
s20.5 73 20.5 119c0 75.333 -16.667 133.166 -50 173.499s-77.666 60.5 -132.999 60.5c-78 0 -135.5 -35.833 -172.5 -107.5s-55.5 -173.834 -55.5 -306.501v-1060h-326v66l47 4.5c17.333 1.66699 31.666 4.5 42.999 8.5c16.667 6 29 16.833 37 32.5s12 36.167 12 61.5v833
c0 91.333 7 168.833 21 232.5s48.333 124.834 103 183.501c44.667 48 93.334 81.333 146.001 100s104.334 28 155.001 28c47.333 0 90.5 -5.5 129.5 -16.5s75.833 -29.5 110.5 -55.5c32.667 -24.667 58.667 -55.667 78 -93s29 -83.666 29 -138.999
c0 -50 -9.16699 -93.833 -27.5 -131.5s-40.833 -68.5 -67.5 -92.5s-55.5 -43 -86.5 -57s-59.5 -22.333 -85.5 -25v-9c35.333 -7.33301 73.166 -21.333 113.499 -42s77.5 -48.334 111.5 -83.001z" />
    <glyph glyph-name="agrave" unicode="&#xe0;" horiz-adv-x="1032" 
d="M1006 18c-31.333 -11.333 -58.8369 -20.502 -82.5039 -27.502s-50.5 -10.5 -80.5 -10.5c-52 0 -93.5 12.167 -124.5 36.5s-50.833 59.833 -59.5 106.5h-6c-43.333 -48 -89.833 -84.667 -139.5 -110s-109.5 -38 -179.5 -38c-74 0 -134.833 22.667 -182.5 68
s-71.5 104.666 -71.5 177.999c0 38 5.33301 72 16 102s26.667 57 48 81c16.667 20 38.667 37.833 66 53.5s53 28.167 77 37.5c30 11.333 90.833 32.333 182.5 63s153.5 54.667 185.5 72v99c0 8.66699 -1.83301 25.334 -5.5 50.001s-11.5 48 -23.5 70
c-13.333 24.667 -32.166 46.167 -56.499 64.5s-58.833 27.5 -103.5 27.5c-30.667 0 -59.167 -5.16699 -85.5 -15.5s-44.833 -21.166 -55.5 -32.499c0 -13.333 3.16699 -33 9.5 -59s9.5 -50 9.5 -72c0 -23.333 -10.5 -44.666 -31.5 -63.999s-50.167 -29 -87.5 -29
c-33.333 0 -57.833 11.833 -73.5 35.5s-23.5 50.167 -23.5 79.5c0 30.667 10.833 60 32.5 88s49.834 53 84.501 75c30 18.667 66.333 34.5 109 47.5s84.334 19.5 125.001 19.5c56 0 104.833 -3.83301 146.5 -11.5s79.5 -24.167 113.5 -49.5
c34 -24.667 59.833 -58.167 77.5 -100.5s26.5 -96.833 26.5 -163.5c0 -95.333 -1 -179.833 -3 -253.5s-3 -154.167 -3 -241.5c0 -26 4.5 -46.667 13.5 -62s22.833 -28.333 41.5 -39c10 -6 25.833 -9.33301 47.5 -10s43.834 -1 66.501 -1v-64zM656.996 545.998
c-56.667 -16.667 -106.333 -33 -149 -49s-82.334 -36 -119.001 -60c-33.333 -22.667 -59.666 -49.5 -78.999 -80.5s-29 -67.833 -29 -110.5c0 -55.333 14.5 -96 43.5 -122s65.833 -39 110.5 -39c47.333 0 89 11.5 125 34.5s66.333 50.167 91 81.5zM693.997 1142
l-38.001 -31.9971l-184 143.5c-54 41 -94 72.167 -120 93.5c-25.333 21.333 -43.166 38.666 -53.499 51.999s-15.5 33.666 -15.5 60.999c0 19.333 7.66699 37.166 23 53.499s35 24.5 59 24.5c26 0 48.333 -6 67 -18s38.667 -35.333 60 -70l80 -125.5z" />
    <glyph glyph-name="aacute" unicode="&#xe1;" horiz-adv-x="1032" 
d="M1006 18c-31.333 -11.333 -58.8369 -20.502 -82.5039 -27.502s-50.5 -10.5 -80.5 -10.5c-52 0 -93.5 12.167 -124.5 36.5s-50.833 59.833 -59.5 106.5h-6c-43.333 -48 -89.833 -84.667 -139.5 -110s-109.5 -38 -179.5 -38c-74 0 -134.833 22.667 -182.5 68
s-71.5 104.666 -71.5 177.999c0 38 5.33301 72 16 102s26.667 57 48 81c16.667 20 38.667 37.833 66 53.5s53 28.167 77 37.5c30 11.333 90.833 32.333 182.5 63s153.5 54.667 185.5 72v99c0 8.66699 -1.83301 25.334 -5.5 50.001s-11.5 48 -23.5 70
c-13.333 24.667 -32.166 46.167 -56.499 64.5s-58.833 27.5 -103.5 27.5c-30.667 0 -59.167 -5.16699 -85.5 -15.5s-44.833 -21.166 -55.5 -32.499c0 -13.333 3.16699 -33 9.5 -59s9.5 -50 9.5 -72c0 -23.333 -10.5 -44.666 -31.5 -63.999s-50.167 -29 -87.5 -29
c-33.333 0 -57.833 11.833 -73.5 35.5s-23.5 50.167 -23.5 79.5c0 30.667 10.833 60 32.5 88s49.834 53 84.501 75c30 18.667 66.333 34.5 109 47.5s84.334 19.5 125.001 19.5c56 0 104.833 -3.83301 146.5 -11.5s79.5 -24.167 113.5 -49.5
c34 -24.667 59.833 -58.167 77.5 -100.5s26.5 -96.833 26.5 -163.5c0 -95.333 -1 -179.833 -3 -253.5s-3 -154.167 -3 -241.5c0 -26 4.5 -46.667 13.5 -62s22.833 -28.333 41.5 -39c10 -6 25.833 -9.33301 47.5 -10s43.834 -1 66.501 -1v-64zM656.996 545.998
c-56.667 -16.667 -106.333 -33 -149 -49s-82.334 -36 -119.001 -60c-33.333 -22.667 -59.666 -49.5 -78.999 -80.5s-29 -67.833 -29 -110.5c0 -55.333 14.5 -96 43.5 -122s65.833 -39 110.5 -39c47.333 0 89 11.5 125 34.5s66.333 50.167 91 81.5zM737.997 1460
c0 -25.333 -5.83105 -46.001 -17.498 -62.001s-28.834 -33 -51.501 -51l-130.5 -102l-173.5 -135l-38 32l125.5 187.5l76.5 120.5c20.667 34 40.667 57.167 60 69.5s41.666 18.5 66.999 18.5c24 0 43.667 -8.16699 59 -24.5s23 -34.166 23 -53.499z" />
    <glyph glyph-name="acircumflex" unicode="&#xe2;" horiz-adv-x="1032" 
d="M1006 18c-31.333 -11.333 -58.8369 -20.502 -82.5039 -27.502s-50.5 -10.5 -80.5 -10.5c-52 0 -93.5 12.167 -124.5 36.5s-50.833 59.833 -59.5 106.5h-6c-43.333 -48 -89.833 -84.667 -139.5 -110s-109.5 -38 -179.5 -38c-74 0 -134.833 22.667 -182.5 68
s-71.5 104.666 -71.5 177.999c0 38 5.33301 72 16 102s26.667 57 48 81c16.667 20 38.667 37.833 66 53.5s53 28.167 77 37.5c30 11.333 90.833 32.333 182.5 63s153.5 54.667 185.5 72v99c0 8.66699 -1.83301 25.334 -5.5 50.001s-11.5 48 -23.5 70
c-13.333 24.667 -32.166 46.167 -56.499 64.5s-58.833 27.5 -103.5 27.5c-30.667 0 -59.167 -5.16699 -85.5 -15.5s-44.833 -21.166 -55.5 -32.499c0 -13.333 3.16699 -33 9.5 -59s9.5 -50 9.5 -72c0 -23.333 -10.5 -44.666 -31.5 -63.999s-50.167 -29 -87.5 -29
c-33.333 0 -57.833 11.833 -73.5 35.5s-23.5 50.167 -23.5 79.5c0 30.667 10.833 60 32.5 88s49.834 53 84.501 75c30 18.667 66.333 34.5 109 47.5s84.334 19.5 125.001 19.5c56 0 104.833 -3.83301 146.5 -11.5s79.5 -24.167 113.5 -49.5
c34 -24.667 59.833 -58.167 77.5 -100.5s26.5 -96.833 26.5 -163.5c0 -95.333 -1 -179.833 -3 -253.5s-3 -154.167 -3 -241.5c0 -26 4.5 -46.667 13.5 -62s22.833 -28.333 41.5 -39c10 -6 25.833 -9.33301 47.5 -10s43.834 -1 66.501 -1v-64zM656.996 545.998
c-56.667 -16.667 -106.333 -33 -149 -49s-82.334 -36 -119.001 -60c-33.333 -22.667 -59.666 -49.5 -78.999 -80.5s-29 -67.833 -29 -110.5c0 -55.333 14.5 -96 43.5 -122s65.833 -39 110.5 -39c47.333 0 89 11.5 125 34.5s66.333 50.167 91 81.5zM816.997 1156
l-47.999 -32.001l-279 273l-275 -273l-48 32l237 347c11.333 16.667 22.166 28.334 32.499 35.001s29.5 10 57.5 10c26.667 0 45 -3.5 55 -10.5s19.667 -17.167 29 -30.5z" />
    <glyph glyph-name="atilde" unicode="&#xe3;" horiz-adv-x="1032" 
d="M1006 18c-31.333 -11.333 -58.8369 -20.502 -82.5039 -27.502s-50.5 -10.5 -80.5 -10.5c-52 0 -93.5 12.167 -124.5 36.5s-50.833 59.833 -59.5 106.5h-6c-43.333 -48 -89.833 -84.667 -139.5 -110s-109.5 -38 -179.5 -38c-74 0 -134.833 22.667 -182.5 68
s-71.5 104.666 -71.5 177.999c0 38 5.33301 72 16 102s26.667 57 48 81c16.667 20 38.667 37.833 66 53.5s53 28.167 77 37.5c30 11.333 90.833 32.333 182.5 63s153.5 54.667 185.5 72v99c0 8.66699 -1.83301 25.334 -5.5 50.001s-11.5 48 -23.5 70
c-13.333 24.667 -32.166 46.167 -56.499 64.5s-58.833 27.5 -103.5 27.5c-30.667 0 -59.167 -5.16699 -85.5 -15.5s-44.833 -21.166 -55.5 -32.499c0 -13.333 3.16699 -33 9.5 -59s9.5 -50 9.5 -72c0 -23.333 -10.5 -44.666 -31.5 -63.999s-50.167 -29 -87.5 -29
c-33.333 0 -57.833 11.833 -73.5 35.5s-23.5 50.167 -23.5 79.5c0 30.667 10.833 60 32.5 88s49.834 53 84.501 75c30 18.667 66.333 34.5 109 47.5s84.334 19.5 125.001 19.5c56 0 104.833 -3.83301 146.5 -11.5s79.5 -24.167 113.5 -49.5
c34 -24.667 59.833 -58.167 77.5 -100.5s26.5 -96.833 26.5 -163.5c0 -95.333 -1 -179.833 -3 -253.5s-3 -154.167 -3 -241.5c0 -26 4.5 -46.667 13.5 -62s22.833 -28.333 41.5 -39c10 -6 25.833 -9.33301 47.5 -10s43.834 -1 66.501 -1v-64zM656.996 545.998
c-56.667 -16.667 -106.333 -33 -149 -49s-82.334 -36 -119.001 -60c-33.333 -22.667 -59.666 -49.5 -78.999 -80.5s-29 -67.833 -29 -110.5c0 -55.333 14.5 -96 43.5 -122s65.833 -39 110.5 -39c47.333 0 89 11.5 125 34.5s66.333 50.167 91 81.5zM887.997 1467
c-6.66699 -25.333 -16.665 -51.333 -29.998 -78s-31.666 -53 -54.999 -79c-24 -26 -49.167 -46.833 -75.5 -62.5s-57.833 -23.5 -94.5 -23.5c-38 0 -71.333 5.5 -100 16.5s-53.334 22.5 -74.001 34.5c-23.333 13.333 -45.5 25.333 -66.5 36s-44.167 16 -69.5 16
c-20.667 0 -36.167 -2.66699 -46.5 -8s-21.166 -14.333 -32.499 -27c-10.667 -12 -21.334 -27.833 -32.001 -47.5l-30 -53.5l-58 25c6.66699 21.333 18 47 34 77s33.333 56.333 52 79c20 24 44.333 44.5 73 61.5s58.667 25.5 90 25.5c37.333 0 69.5 -5.5 96.5 -16.5
s51.833 -22.833 74.5 -35.5l64 -36c17.333 -10 38.666 -15 63.999 -15c26.667 0 48.167 3.16699 64.5 9.5s29.166 15.166 38.499 26.499c10.667 12.667 19.5 26.334 26.5 41.001s15.5 33.667 25.5 57z" />
    <glyph glyph-name="adieresis" unicode="&#xe4;" horiz-adv-x="1032" 
d="M1006 18c-31.333 -11.333 -58.8369 -20.502 -82.5039 -27.502s-50.5 -10.5 -80.5 -10.5c-52 0 -93.5 12.167 -124.5 36.5s-50.833 59.833 -59.5 106.5h-6c-43.333 -48 -89.833 -84.667 -139.5 -110s-109.5 -38 -179.5 -38c-74 0 -134.833 22.667 -182.5 68
s-71.5 104.666 -71.5 177.999c0 38 5.33301 72 16 102s26.667 57 48 81c16.667 20 38.667 37.833 66 53.5s53 28.167 77 37.5c30 11.333 90.833 32.333 182.5 63s153.5 54.667 185.5 72v99c0 8.66699 -1.83301 25.334 -5.5 50.001s-11.5 48 -23.5 70
c-13.333 24.667 -32.166 46.167 -56.499 64.5s-58.833 27.5 -103.5 27.5c-30.667 0 -59.167 -5.16699 -85.5 -15.5s-44.833 -21.166 -55.5 -32.499c0 -13.333 3.16699 -33 9.5 -59s9.5 -50 9.5 -72c0 -23.333 -10.5 -44.666 -31.5 -63.999s-50.167 -29 -87.5 -29
c-33.333 0 -57.833 11.833 -73.5 35.5s-23.5 50.167 -23.5 79.5c0 30.667 10.833 60 32.5 88s49.834 53 84.501 75c30 18.667 66.333 34.5 109 47.5s84.334 19.5 125.001 19.5c56 0 104.833 -3.83301 146.5 -11.5s79.5 -24.167 113.5 -49.5
c34 -24.667 59.833 -58.167 77.5 -100.5s26.5 -96.833 26.5 -163.5c0 -95.333 -1 -179.833 -3 -253.5s-3 -154.167 -3 -241.5c0 -26 4.5 -46.667 13.5 -62s22.833 -28.333 41.5 -39c10 -6 25.833 -9.33301 47.5 -10s43.834 -1 66.501 -1v-64zM656.996 545.998
c-56.667 -16.667 -106.333 -33 -149 -49s-82.334 -36 -119.001 -60c-33.333 -22.667 -59.666 -49.5 -78.999 -80.5s-29 -67.833 -29 -110.5c0 -55.333 14.5 -96 43.5 -122s65.833 -39 110.5 -39c47.333 0 89 11.5 125 34.5s66.333 50.167 91 81.5zM825.997 1364
c0 -34 -11.5 -63 -34.5 -87s-50.833 -36 -83.5 -36s-60.5 12 -83.5 36s-34.5 53 -34.5 87s11.5 63 34.5 87s50.833 36 83.5 36s60.5 -12 83.5 -36s34.5 -53 34.5 -87zM395.997 1364c0 -34 -11.5 -63 -34.5 -87s-50.833 -36 -83.5 -36s-60.5 12 -83.5 36s-34.5 53 -34.5 87
s11.5 63 34.5 87s50.833 36 83.5 36s60.5 -12 83.5 -36s34.5 -53 34.5 -87z" />
    <glyph glyph-name="aring" unicode="&#xe5;" horiz-adv-x="1032" 
d="M1006 18c-31.333 -11.333 -58.8369 -20.502 -82.5039 -27.502s-50.5 -10.5 -80.5 -10.5c-52 0 -93.5 12.167 -124.5 36.5s-50.833 59.833 -59.5 106.5h-6c-43.333 -48 -89.833 -84.667 -139.5 -110s-109.5 -38 -179.5 -38c-74 0 -134.833 22.667 -182.5 68
s-71.5 104.666 -71.5 177.999c0 38 5.33301 72 16 102s26.667 57 48 81c16.667 20 38.667 37.833 66 53.5s53 28.167 77 37.5c30 11.333 90.833 32.333 182.5 63s153.5 54.667 185.5 72v99c0 8.66699 -1.83301 25.334 -5.5 50.001s-11.5 48 -23.5 70
c-13.333 24.667 -32.166 46.167 -56.499 64.5s-58.833 27.5 -103.5 27.5c-30.667 0 -59.167 -5.16699 -85.5 -15.5s-44.833 -21.166 -55.5 -32.499c0 -13.333 3.16699 -33 9.5 -59s9.5 -50 9.5 -72c0 -23.333 -10.5 -44.666 -31.5 -63.999s-50.167 -29 -87.5 -29
c-33.333 0 -57.833 11.833 -73.5 35.5s-23.5 50.167 -23.5 79.5c0 30.667 10.833 60 32.5 88s49.834 53 84.501 75c30 18.667 66.333 34.5 109 47.5s84.334 19.5 125.001 19.5c56 0 104.833 -3.83301 146.5 -11.5s79.5 -24.167 113.5 -49.5
c34 -24.667 59.833 -58.167 77.5 -100.5s26.5 -96.833 26.5 -163.5c0 -95.333 -1 -179.833 -3 -253.5s-3 -154.167 -3 -241.5c0 -26 4.5 -46.667 13.5 -62s22.833 -28.333 41.5 -39c10 -6 25.833 -9.33301 47.5 -10s43.834 -1 66.501 -1v-64zM656.996 545.998
c-56.667 -16.667 -106.333 -33 -149 -49s-82.334 -36 -119.001 -60c-33.333 -22.667 -59.666 -49.5 -78.999 -80.5s-29 -67.833 -29 -110.5c0 -55.333 14.5 -96 43.5 -122s65.833 -39 110.5 -39c47.333 0 89 11.5 125 34.5s66.333 50.167 91 81.5zM750.997 1337
c0 -65.333 -23.6689 -118.833 -71.002 -160.5s-109.666 -62.5 -186.999 -62.5c-78 0 -140.5 20.333 -187.5 61s-70.5 94.667 -70.5 162c0 65.333 25 118.666 75 159.999s111 62 183 62c74.667 0 136.334 -20.167 185.001 -60.5s73 -94.166 73 -161.499zM624.995 1337
c0 45.333 -11.1699 83.001 -33.5029 113.001s-55.166 45 -98.499 45c-42 0 -74.5 -14.333 -97.5 -43s-34.5 -67 -34.5 -115c0 -46 11.333 -84 34 -114s55.334 -45 98.001 -45s75.334 14.667 98.001 44s34 67.666 34 114.999z" />
    <glyph glyph-name="ae" unicode="&#xe6;" horiz-adv-x="1509" 
d="M1468 233c-38.667 -82 -91.834 -145.669 -159.501 -191.002s-142.5 -68 -224.5 -68c-84.667 0 -156.334 15.167 -215.001 45.5s-111 77.833 -157 142.5h-6c-51.333 -66.667 -105.833 -114.667 -163.5 -144s-125.5 -44 -203.5 -44
c-75.333 0 -137.166 22.167 -185.499 66.5s-72.5 104.166 -72.5 179.499c0 40.667 5.66699 76.5 17 107.5s26.666 58.167 45.999 81.5c18.667 22 40.167 40.333 64.5 55s49.166 27.334 74.499 38.001c92 36.667 163.333 62.334 214 77.001l145 43v107
c0 9.33301 -1.83301 25.666 -5.5 48.999s-11.5 47.333 -23.5 72c-12 24 -29.5 45.167 -52.5 63.5s-53.833 27.5 -92.5 27.5c-33.333 0 -63.166 -5.16699 -89.499 -15.5s-44.833 -21.166 -55.5 -32.499c0 -13.333 3.16699 -33 9.5 -59s9.5 -50 9.5 -72
c0 -23.333 -10.5 -44.666 -31.5 -63.999s-50.167 -29 -87.5 -29c-33.333 0 -57.833 11.833 -73.5 35.5s-23.5 50.167 -23.5 79.5c0 32 10.667 61.5 32 88.5s49 51.5 83 73.5c30.667 20 67.834 36.333 111.501 49s83.5 19 119.5 19c66.667 0 127 -8.33301 181 -25
s97.333 -48.667 130 -96c34 35.333 75.833 64.333 125.5 87s101.167 34 154.5 34c69.333 0 128 -11.167 176 -33.5s86.667 -51.833 116 -88.5c30.667 -37.333 53 -80.166 67 -128.499s21 -100.5 21 -156.5v-58h-618c0 -152 24.833 -267.5 74.5 -346.5
s126.834 -118.5 231.501 -118.5c69.333 0 124 17.167 164 51.5s74.333 81.166 103 140.499zM1246 630.998c0 26.667 -2.66504 60.668 -7.99805 102.001s-13.666 74.666 -24.999 99.999c-14 30.667 -33.833 56 -59.5 76s-59.834 30 -102.501 30
c-66.667 0 -120.834 -30.167 -162.501 -90.5s-62.834 -132.833 -63.501 -217.5h421zM644.002 193.999l0.000976562 342.998c-53.333 -10.667 -100.333 -23 -141 -37s-79 -33.333 -115 -58c-34 -23.333 -60.333 -51 -79 -83s-28 -69 -28 -111
c0 -55.333 13.167 -96.166 39.5 -122.499s61.166 -39.5 104.499 -39.5c50.667 0 94 10.833 130 32.5s65.667 46.834 89 75.501z" />
    <glyph glyph-name="ccedilla" unicode="&#xe7;" horiz-adv-x="930" 
d="M459 -22c-121.333 15.333 -216.17 69.3389 -284.503 162.006s-102.5 211.667 -102.5 357c0 69.333 10.833 134.166 32.5 194.499s53.167 115.166 94.5 164.499c39.333 47.333 88.666 85.5 147.999 114.5s124 43.5 194 43.5c96.667 0 175.334 -23.167 236.001 -69.5
s91 -109.5 91 -189.5c0 -33.333 -8 -62.833 -24 -88.5s-42.333 -38.5 -79 -38.5c-39.333 0 -69.833 10 -91.5 30s-32.5 42.333 -32.5 67c0 30 4 60.833 12 92.5s12.667 54.834 14 69.501c-12 20.667 -29.833 34.5 -53.5 41.5s-49.167 10.5 -76.5 10.5
c-32 0 -62.5 -6.83301 -91.5 -20.5s-57.167 -38.834 -84.5 -75.501c-24.667 -33.333 -44.667 -78.333 -60 -135s-23 -124.334 -23 -203.001c0 -124 27.5 -225.167 82.5 -303.5s127.167 -117.5 216.5 -117.5c64.667 0 118.834 15.667 162.501 47s84.167 78.333 121.5 141
l64 -42c-42.667 -76.667 -99.167 -138 -169.5 -184s-142.833 -70 -217.5 -72v-73c30 0 57 -1.83301 81 -5.5s48.333 -11.834 73 -24.501c22.667 -10.667 41 -25.834 55 -45.501s21 -44.167 21 -73.5c0 -38.667 -10.667 -71.334 -32 -98.001s-51 -47.334 -89 -62.001
c-36.667 -13.333 -77.334 -22.666 -122.001 -27.999s-96.667 -8 -156 -8v72c27.333 0 57 0.333008 89 1s59.333 3.66699 82 9c26.667 6 47.334 15.167 62.001 27.5s22 29.833 22 52.5c0 16 -5 29.167 -15 39.5s-23.333 18.166 -40 23.499
c-13.333 4.66699 -31.166 7.83398 -53.499 9.50098s-41.166 2.5 -56.499 2.5v185z" />
    <glyph glyph-name="egrave" unicode="&#xe8;" horiz-adv-x="990" 
d="M948 232c-41.333 -78.667 -96.665 -141.332 -165.998 -187.999s-149 -70 -239 -70c-79.333 0 -148.833 14 -208.5 42s-108.834 66 -147.501 114s-67.5 104 -86.5 168s-28.5 131.667 -28.5 203c0 64 10.167 126.833 30.5 188.5s50.166 117.167 89.499 166.5
c38 47.333 85.167 85.5 141.5 114.5s119.5 43.5 189.5 43.5c72 0 133.667 -11.333 185 -34s93 -53.667 125 -93c30.667 -37.333 53.5 -81.333 68.5 -132s22.5 -105.667 22.5 -165v-66h-653c0 -64.667 6.16699 -123.334 18.5 -176.001s31.833 -99 58.5 -139
c26 -38.667 60 -69.167 102 -91.5s92 -33.5 150 -33.5c59.333 0 110.5 13.833 153.5 41.5s84.5 77.5 124.5 149.5zM727.001 608.002c0 37.333 -3.16699 77.332 -9.5 119.999s-16.5 78.334 -30.5 107.001c-15.333 30.667 -36.333 55.667 -63 75s-61 29 -103 29
c-70 0 -128.167 -29.167 -174.5 -87.5s-71.5 -139.5 -75.5 -243.5h456zM695.001 1142l-38.001 -31.9971l-184 143.5c-54 41 -94 72.167 -120 93.5c-25.333 21.333 -43.166 38.666 -53.499 51.999s-15.5 33.666 -15.5 60.999c0 19.333 7.66699 37.166 23 53.499
s35 24.5 59 24.5c26 0 48.333 -6 67 -18s38.667 -35.333 60 -70l80 -125.5z" />
    <glyph glyph-name="eacute" unicode="&#xe9;" horiz-adv-x="990" 
d="M948 232c-41.333 -78.667 -96.665 -141.332 -165.998 -187.999s-149 -70 -239 -70c-79.333 0 -148.833 14 -208.5 42s-108.834 66 -147.501 114s-67.5 104 -86.5 168s-28.5 131.667 -28.5 203c0 64 10.167 126.833 30.5 188.5s50.166 117.167 89.499 166.5
c38 47.333 85.167 85.5 141.5 114.5s119.5 43.5 189.5 43.5c72 0 133.667 -11.333 185 -34s93 -53.667 125 -93c30.667 -37.333 53.5 -81.333 68.5 -132s22.5 -105.667 22.5 -165v-66h-653c0 -64.667 6.16699 -123.334 18.5 -176.001s31.833 -99 58.5 -139
c26 -38.667 60 -69.167 102 -91.5s92 -33.5 150 -33.5c59.333 0 110.5 13.833 153.5 41.5s84.5 77.5 124.5 149.5zM727.001 608.002c0 37.333 -3.16699 77.332 -9.5 119.999s-16.5 78.334 -30.5 107.001c-15.333 30.667 -36.333 55.667 -63 75s-61 29 -103 29
c-70 0 -128.167 -29.167 -174.5 -87.5s-71.5 -139.5 -75.5 -243.5h456zM763.001 1460c0 -25.333 -5.83105 -46.001 -17.498 -62.001s-28.834 -33 -51.501 -51l-130.5 -102l-173.5 -135l-38 32l125.5 187.5l76.5 120.5c20.667 34 40.667 57.167 60 69.5
s41.666 18.5 66.999 18.5c24 0 43.667 -8.16699 59 -24.5s23 -34.166 23 -53.499z" />
    <glyph glyph-name="ecircumflex" unicode="&#xea;" horiz-adv-x="990" 
d="M948 232c-41.333 -78.667 -96.665 -141.332 -165.998 -187.999s-149 -70 -239 -70c-79.333 0 -148.833 14 -208.5 42s-108.834 66 -147.501 114s-67.5 104 -86.5 168s-28.5 131.667 -28.5 203c0 64 10.167 126.833 30.5 188.5s50.166 117.167 89.499 166.5
c38 47.333 85.167 85.5 141.5 114.5s119.5 43.5 189.5 43.5c72 0 133.667 -11.333 185 -34s93 -53.667 125 -93c30.667 -37.333 53.5 -81.333 68.5 -132s22.5 -105.667 22.5 -165v-66h-653c0 -64.667 6.16699 -123.334 18.5 -176.001s31.833 -99 58.5 -139
c26 -38.667 60 -69.167 102 -91.5s92 -33.5 150 -33.5c59.333 0 110.5 13.833 153.5 41.5s84.5 77.5 124.5 149.5zM727.001 608.002c0 37.333 -3.16699 77.332 -9.5 119.999s-16.5 78.334 -30.5 107.001c-15.333 30.667 -36.333 55.667 -63 75s-61 29 -103 29
c-70 0 -128.167 -29.167 -174.5 -87.5s-71.5 -139.5 -75.5 -243.5h456zM847.001 1150l-47.999 -32.001l-279 273l-275 -273l-48 32l237 347c11.333 16.667 22.166 28.334 32.499 35.001s29.5 10 57.5 10c26.667 0 45 -3.5 55 -10.5s19.667 -17.167 29 -30.5z" />
    <glyph glyph-name="edieresis" unicode="&#xeb;" horiz-adv-x="990" 
d="M948 232c-41.333 -78.667 -96.665 -141.332 -165.998 -187.999s-149 -70 -239 -70c-79.333 0 -148.833 14 -208.5 42s-108.834 66 -147.501 114s-67.5 104 -86.5 168s-28.5 131.667 -28.5 203c0 64 10.167 126.833 30.5 188.5s50.166 117.167 89.499 166.5
c38 47.333 85.167 85.5 141.5 114.5s119.5 43.5 189.5 43.5c72 0 133.667 -11.333 185 -34s93 -53.667 125 -93c30.667 -37.333 53.5 -81.333 68.5 -132s22.5 -105.667 22.5 -165v-66h-653c0 -64.667 6.16699 -123.334 18.5 -176.001s31.833 -99 58.5 -139
c26 -38.667 60 -69.167 102 -91.5s92 -33.5 150 -33.5c59.333 0 110.5 13.833 153.5 41.5s84.5 77.5 124.5 149.5zM727.001 608.002c0 37.333 -3.16699 77.332 -9.5 119.999s-16.5 78.334 -30.5 107.001c-15.333 30.667 -36.333 55.667 -63 75s-61 29 -103 29
c-70 0 -128.167 -29.167 -174.5 -87.5s-71.5 -139.5 -75.5 -243.5h456zM862.001 1364c0 -34 -11.5 -63 -34.5 -87s-50.833 -36 -83.5 -36s-60.5 12 -83.5 36s-34.5 53 -34.5 87s11.5 63 34.5 87s50.833 36 83.5 36s60.5 -12 83.5 -36s34.5 -53 34.5 -87zM432.001 1364
c0 -34 -11.5 -63 -34.5 -87s-50.833 -36 -83.5 -36s-60.5 12 -83.5 36s-34.5 53 -34.5 87s11.5 63 34.5 87s50.833 36 83.5 36s60.5 -12 83.5 -36s34.5 -53 34.5 -87z" />
    <glyph glyph-name="igrave" unicode="&#xec;" horiz-adv-x="600" 
d="M551 0l-477 -0.00195312v66l47.5 4c16.333 1.33301 30.5 4 42.5 8c18.667 6 32.5 16.5 41.5 31.5s13.5 34.5 13.5 58.5v609c0 21.333 -4.83301 40.833 -14.5 58.5s-23.167 32.5 -40.5 44.5c-12.667 8 -31 14.833 -55 20.5s-46 9.16699 -66 10.5v65l348 22l14 -14v-804
c0 -23.333 4.5 -42.666 13.5 -57.999s23.167 -26.666 42.5 -33.999c14.667 -6 29 -10.833 43 -14.5s29.667 -6.16699 47 -7.5v-66zM452 1142l-38.001 -31.9971l-184 143.5c-54 41 -94 72.167 -120 93.5c-25.333 21.333 -43.166 38.666 -53.499 51.999
s-15.5 33.666 -15.5 60.999c0 19.333 7.66699 37.166 23 53.499s35 24.5 59 24.5c26 0 48.333 -6 67 -18s38.667 -35.333 60 -70l80 -125.5z" />
    <glyph glyph-name="iacute" unicode="&#xed;" horiz-adv-x="600" 
d="M551 0l-477 -0.00195312v66l47.5 4c16.333 1.33301 30.5 4 42.5 8c18.667 6 32.5 16.5 41.5 31.5s13.5 34.5 13.5 58.5v609c0 21.333 -4.83301 40.833 -14.5 58.5s-23.167 32.5 -40.5 44.5c-12.667 8 -31 14.833 -55 20.5s-46 9.16699 -66 10.5v65l348 22l14 -14v-804
c0 -23.333 4.5 -42.666 13.5 -57.999s23.167 -26.666 42.5 -33.999c14.667 -6 29 -10.833 43 -14.5s29.667 -6.16699 47 -7.5v-66zM511 1460c0 -25.333 -5.83105 -46.001 -17.498 -62.001s-28.834 -33 -51.501 -51l-130.5 -102l-173.5 -135l-38 32l125.5 187.5l76.5 120.5
c20.667 34 40.667 57.167 60 69.5s41.666 18.5 66.999 18.5c24 0 43.667 -8.16699 59 -24.5s23 -34.166 23 -53.499z" />
    <glyph glyph-name="icircumflex" unicode="&#xee;" horiz-adv-x="600" 
d="M551 0l-477 -0.00195312v66l47.5 4c16.333 1.33301 30.5 4 42.5 8c18.667 6 32.5 16.5 41.5 31.5s13.5 34.5 13.5 58.5v609c0 21.333 -4.83301 40.833 -14.5 58.5s-23.167 32.5 -40.5 44.5c-12.667 8 -31 14.833 -55 20.5s-46 9.16699 -66 10.5v65l348 22l14 -14v-804
c0 -23.333 4.5 -42.666 13.5 -57.999s23.167 -26.666 42.5 -33.999c14.667 -6 29 -10.833 43 -14.5s29.667 -6.16699 47 -7.5v-66zM560 1150l-48 -28.999l-244 270l-240 -270l-48 29l202 343c7.33301 13.333 17.333 24.833 30 34.5s32.667 14.5 60 14.5
c29.333 0 49.5 -5.33301 60.5 -16s18.833 -20.334 23.5 -29.001z" />
    <glyph glyph-name="idieresis" unicode="&#xef;" horiz-adv-x="600" 
d="M551 0l-477 -0.00195312v66l47.5 4c16.333 1.33301 30.5 4 42.5 8c18.667 6 32.5 16.5 41.5 31.5s13.5 34.5 13.5 58.5v609c0 21.333 -4.83301 40.833 -14.5 58.5s-23.167 32.5 -40.5 44.5c-12.667 8 -31 14.833 -55 20.5s-46 9.16699 -66 10.5v65l348 22l14 -14v-804
c0 -23.333 4.5 -42.666 13.5 -57.999s23.167 -26.666 42.5 -33.999c14.667 -6 29 -10.833 43 -14.5s29.667 -6.16699 47 -7.5v-66zM566 1364c0 -34 -11 -63 -33 -87s-49.333 -36 -82 -36s-60 12 -82 36s-33 53 -33 87s11 63 33 87s49.333 36 82 36s60 -12 82 -36
s33 -53 33 -87zM216 1364c0 -34 -11 -63 -33 -87s-49.333 -36 -82 -36s-60 12 -82 36s-33 53 -33 87s11 63 33 87s49.333 36 82 36s60 -12 82 -36s33 -53 33 -87z" />
    <glyph glyph-name="eth" unicode="&#xf0;" horiz-adv-x="1089" 
d="M1014 611c0 -196 -42.668 -352 -128.001 -468s-203.333 -174 -354 -174c-59.333 0 -116.5 11.167 -171.5 33.5s-104.5 55.833 -148.5 100.5c-43.333 44 -77.833 98.333 -103.5 163s-38.5 138 -38.5 220c0 147.333 42.333 267.333 127 360s193.667 139 327 139
c62.667 0 117.834 -14.167 165.501 -42.5s82.834 -60.5 105.501 -96.5l8 2c-10 85.333 -31.5 164.666 -64.5 237.999s-69.5 139 -109.5 197l-231 -138l-50 78l228 131c-20.667 26.667 -45.834 52.5 -75.501 77.5s-59.834 47.833 -90.501 68.5l50 56
c30.667 -15.333 67.334 -37.666 110.001 -66.999s77 -56.333 103 -81l203 123l51 -78l-190 -110c91.333 -97.333 160.333 -205 207 -323s70 -254.333 70 -409zM745.999 190c20 42 34.8311 90.668 44.498 146.001s14.5 114 14.5 176c0 118 -23.333 213.167 -70 285.5
s-110 108.5 -190 108.5c-51.333 0 -94.166 -11.833 -128.499 -35.5s-62.166 -54.834 -83.499 -93.501c-18.667 -34 -32.667 -76 -42 -126s-14 -100.667 -14 -152c0 -152 23.333 -265.667 70 -341s112 -113 196 -113c47.333 0 88 13.333 122 40s61 61.667 81 105z" />
    <glyph glyph-name="ntilde" unicode="&#xf1;" horiz-adv-x="1210" 
d="M1161 0l-483.001 0.00195312v66c15.333 1.33301 32.166 2.66602 50.499 3.99902s33.5 4 45.5 8c18.667 6 32.5 16.5 41.5 31.5s13.5 34.5 13.5 58.5v507c0 70 -16.5 124 -49.5 162s-73.167 57 -120.5 57c-35.333 0 -67.666 -5.5 -96.999 -16.5s-55.333 -24.5 -78 -40.5
c-22 -15.333 -39.5 -31.833 -52.5 -49.5s-22.5 -31.834 -28.5 -42.501v-567c0 -22.667 4.66699 -41.334 14 -56.001s23.333 -26 42 -34c14 -6.66699 29.167 -11.667 45.5 -15s33.166 -5.66602 50.499 -6.99902v-66h-483v66l47.5 4c16.333 1.33301 30.5 4 42.5 8
c18.667 6 32.5 16.5 41.5 31.5s13.5 34.5 13.5 58.5v609c0 22.667 -4.83301 43.5 -14.5 62.5s-23.167 34.5 -40.5 46.5c-12.667 8 -27.667 13.833 -45 17.5s-36 6.16699 -56 7.5v65l328 22l14 -14v-139h5l60 57.5c24 22.333 46.667 40.5 68 54.5c24.667 16 54 29.333 88 40
s72.333 16 115 16c94.667 0 164.834 -29.5 210.501 -88.5s68.5 -137.5 68.5 -235.5v-513c0 -23.333 4 -42.166 12 -56.499s21.667 -25.5 41 -33.5c16 -6.66699 29.833 -11.334 41.5 -14.001s27.834 -4.66699 48.501 -6v-66zM985.999 1467
c-6.66699 -25.333 -16.665 -51.333 -29.998 -78s-31.666 -53 -54.999 -79c-24 -26 -49.167 -46.833 -75.5 -62.5s-57.833 -23.5 -94.5 -23.5c-38 0 -71.333 5.5 -100 16.5s-53.334 22.5 -74.001 34.5c-23.333 13.333 -45.5 25.333 -66.5 36s-44.167 16 -69.5 16
c-20.667 0 -36.167 -2.66699 -46.5 -8s-21.166 -14.333 -32.499 -27c-10.667 -12 -21.334 -27.833 -32.001 -47.5l-30 -53.5l-58 25c6.66699 21.333 18 47 34 77s33.333 56.333 52 79c20 24 44.333 44.5 73 61.5s58.667 25.5 90 25.5c37.333 0 69.5 -5.5 96.5 -16.5
s51.833 -22.833 74.5 -35.5l64 -36c17.333 -10 38.666 -15 63.999 -15c26.667 0 48.167 3.16699 64.5 9.5s29.166 15.166 38.499 26.499c10.667 12.667 19.5 26.334 26.5 41.001s15.5 33.667 25.5 57z" />
    <glyph glyph-name="ograve" unicode="&#xf2;" horiz-adv-x="1104" 
d="M1033 503c0 -69.333 -10.999 -137.5 -32.999 -204.5s-53.333 -123.833 -94 -170.5c-46 -53.333 -99.333 -93 -160 -119s-128.667 -39 -204 -39c-62.667 0 -122.334 11.833 -179.001 35.5s-107 58.167 -151 103.5c-43.333 44.667 -77.833 99.167 -103.5 163.5
s-38.5 136.5 -38.5 216.5c0 154 44.833 280 134.5 378s207.167 147 352.5 147c138 0 251.833 -46.5 341.5 -139.5s134.5 -216.833 134.5 -371.5zM826.001 501c0 50 -5.00098 102.832 -15.001 158.499s-25 102.834 -45 141.501c-21.333 41.333 -49.333 74.5 -84 99.5
s-77 37.5 -127 37.5c-51.333 0 -95.166 -12.667 -131.499 -38s-65.833 -60 -88.5 -104c-21.333 -40.667 -36.333 -87 -45 -139s-13 -102.333 -13 -151c0 -64 5.16699 -123.167 15.5 -177.5s26.833 -102.833 49.5 -145.5s51.167 -76.167 85.5 -100.5
s76.833 -36.5 127.5 -36.5c83.333 0 149.333 40.333 198 121s73 192 73 334zM786 1142l-38.001 -31.9971l-184 143.5c-54 41 -94 72.167 -120 93.5c-25.333 21.333 -43.166 38.666 -53.499 51.999s-15.5 33.666 -15.5 60.999c0 19.333 7.66699 37.166 23 53.499
s35 24.5 59 24.5c26 0 48.333 -6 67 -18s38.667 -35.333 60 -70l80 -125.5z" />
    <glyph glyph-name="oacute" unicode="&#xf3;" horiz-adv-x="1104" 
d="M1033 503c0 -69.333 -10.999 -137.5 -32.999 -204.5s-53.333 -123.833 -94 -170.5c-46 -53.333 -99.333 -93 -160 -119s-128.667 -39 -204 -39c-62.667 0 -122.334 11.833 -179.001 35.5s-107 58.167 -151 103.5c-43.333 44.667 -77.833 99.167 -103.5 163.5
s-38.5 136.5 -38.5 216.5c0 154 44.833 280 134.5 378s207.167 147 352.5 147c138 0 251.833 -46.5 341.5 -139.5s134.5 -216.833 134.5 -371.5zM826.001 501c0 50 -5.00098 102.832 -15.001 158.499s-25 102.834 -45 141.501c-21.333 41.333 -49.333 74.5 -84 99.5
s-77 37.5 -127 37.5c-51.333 0 -95.166 -12.667 -131.499 -38s-65.833 -60 -88.5 -104c-21.333 -40.667 -36.333 -87 -45 -139s-13 -102.333 -13 -151c0 -64 5.16699 -123.167 15.5 -177.5s26.833 -102.833 49.5 -145.5s51.167 -76.167 85.5 -100.5
s76.833 -36.5 127.5 -36.5c83.333 0 149.333 40.333 198 121s73 192 73 334zM743 1460c0 -25.333 -5.83105 -46.001 -17.498 -62.001s-28.834 -33 -51.501 -51l-130.5 -102l-173.5 -135l-38 32l125.5 187.5l76.5 120.5c20.667 34 40.667 57.167 60 69.5
s41.666 18.5 66.999 18.5c24 0 43.667 -8.16699 59 -24.5s23 -34.166 23 -53.499z" />
    <glyph glyph-name="ocircumflex" unicode="&#xf4;" horiz-adv-x="1104" 
d="M1033 503c0 -69.333 -10.999 -137.5 -32.999 -204.5s-53.333 -123.833 -94 -170.5c-46 -53.333 -99.333 -93 -160 -119s-128.667 -39 -204 -39c-62.667 0 -122.334 11.833 -179.001 35.5s-107 58.167 -151 103.5c-43.333 44.667 -77.833 99.167 -103.5 163.5
s-38.5 136.5 -38.5 216.5c0 154 44.833 280 134.5 378s207.167 147 352.5 147c138 0 251.833 -46.5 341.5 -139.5s134.5 -216.833 134.5 -371.5zM826.001 501c0 50 -5.00098 102.832 -15.001 158.499s-25 102.834 -45 141.501c-21.333 41.333 -49.333 74.5 -84 99.5
s-77 37.5 -127 37.5c-51.333 0 -95.166 -12.667 -131.499 -38s-65.833 -60 -88.5 -104c-21.333 -40.667 -36.333 -87 -45 -139s-13 -102.333 -13 -151c0 -64 5.16699 -123.167 15.5 -177.5s26.833 -102.833 49.5 -145.5s51.167 -76.167 85.5 -100.5
s76.833 -36.5 127.5 -36.5c83.333 0 149.333 40.333 198 121s73 192 73 334zM884 1150l-47.999 -32.001l-279 273l-275 -273l-48 32l237 347c11.333 16.667 22.166 28.334 32.499 35.001s29.5 10 57.5 10c26.667 0 45 -3.5 55 -10.5s19.667 -17.167 29 -30.5z" />
    <glyph glyph-name="otilde" unicode="&#xf5;" horiz-adv-x="1104" 
d="M1033 503c0 -69.333 -10.999 -137.5 -32.999 -204.5s-53.333 -123.833 -94 -170.5c-46 -53.333 -99.333 -93 -160 -119s-128.667 -39 -204 -39c-62.667 0 -122.334 11.833 -179.001 35.5s-107 58.167 -151 103.5c-43.333 44.667 -77.833 99.167 -103.5 163.5
s-38.5 136.5 -38.5 216.5c0 154 44.833 280 134.5 378s207.167 147 352.5 147c138 0 251.833 -46.5 341.5 -139.5s134.5 -216.833 134.5 -371.5zM826.001 501c0 50 -5.00098 102.832 -15.001 158.499s-25 102.834 -45 141.501c-21.333 41.333 -49.333 74.5 -84 99.5
s-77 37.5 -127 37.5c-51.333 0 -95.166 -12.667 -131.499 -38s-65.833 -60 -88.5 -104c-21.333 -40.667 -36.333 -87 -45 -139s-13 -102.333 -13 -151c0 -64 5.16699 -123.167 15.5 -177.5s26.833 -102.833 49.5 -145.5s51.167 -76.167 85.5 -100.5
s76.833 -36.5 127.5 -36.5c83.333 0 149.333 40.333 198 121s73 192 73 334zM941 1467c-6.66699 -25.333 -16.665 -51.333 -29.998 -78s-31.666 -53 -54.999 -79c-24 -26 -49.167 -46.833 -75.5 -62.5s-57.833 -23.5 -94.5 -23.5c-38 0 -71.333 5.5 -100 16.5
s-53.334 22.5 -74.001 34.5c-23.333 13.333 -45.5 25.333 -66.5 36s-44.167 16 -69.5 16c-20.667 0 -36.167 -2.66699 -46.5 -8s-21.166 -14.333 -32.499 -27c-10.667 -12 -21.334 -27.833 -32.001 -47.5l-30 -53.5l-58 25c6.66699 21.333 18 47 34 77s33.333 56.333 52 79
c20 24 44.333 44.5 73 61.5s58.667 25.5 90 25.5c37.333 0 69.5 -5.5 96.5 -16.5s51.833 -22.833 74.5 -35.5l64 -36c17.333 -10 38.666 -15 63.999 -15c26.667 0 48.167 3.16699 64.5 9.5s29.166 15.166 38.499 26.499c10.667 12.667 19.5 26.334 26.5 41.001
s15.5 33.667 25.5 57z" />
    <glyph glyph-name="odieresis" unicode="&#xf6;" horiz-adv-x="1104" 
d="M1033 503c0 -69.333 -10.999 -137.5 -32.999 -204.5s-53.333 -123.833 -94 -170.5c-46 -53.333 -99.333 -93 -160 -119s-128.667 -39 -204 -39c-62.667 0 -122.334 11.833 -179.001 35.5s-107 58.167 -151 103.5c-43.333 44.667 -77.833 99.167 -103.5 163.5
s-38.5 136.5 -38.5 216.5c0 154 44.833 280 134.5 378s207.167 147 352.5 147c138 0 251.833 -46.5 341.5 -139.5s134.5 -216.833 134.5 -371.5zM826.001 501c0 50 -5.00098 102.832 -15.001 158.499s-25 102.834 -45 141.501c-21.333 41.333 -49.333 74.5 -84 99.5
s-77 37.5 -127 37.5c-51.333 0 -95.166 -12.667 -131.499 -38s-65.833 -60 -88.5 -104c-21.333 -40.667 -36.333 -87 -45 -139s-13 -102.333 -13 -151c0 -64 5.16699 -123.167 15.5 -177.5s26.833 -102.833 49.5 -145.5s51.167 -76.167 85.5 -100.5
s76.833 -36.5 127.5 -36.5c83.333 0 149.333 40.333 198 121s73 192 73 334zM892 1364c0 -34 -11.5 -63 -34.5 -87s-50.833 -36 -83.5 -36s-60.5 12 -83.5 36s-34.5 53 -34.5 87s11.5 63 34.5 87s50.833 36 83.5 36s60.5 -12 83.5 -36s34.5 -53 34.5 -87zM462 1364
c0 -34 -11.5 -63 -34.5 -87s-50.833 -36 -83.5 -36s-60.5 12 -83.5 36s-34.5 53 -34.5 87s11.5 63 34.5 87s50.833 36 83.5 36s60.5 -12 83.5 -36s34.5 -53 34.5 -87z" />
    <glyph glyph-name="divide" unicode="&#xf7;" horiz-adv-x="1317" 
d="M788 966c0 -35.333 -12.667 -65.666 -38 -90.999s-55.666 -38 -90.999 -38s-65.666 12.667 -90.999 38s-38 55.666 -38 90.999s12.667 65.333 38 90s55.666 37 90.999 37s65.666 -12.333 90.999 -37s38 -54.667 38 -90zM1173 497h-1029v125h1029v-125zM788 153
c0 -35.333 -12.667 -65.333 -38 -90s-55.666 -37 -90.999 -37s-65.666 12.333 -90.999 37s-38 54.667 -38 90s12.667 65.666 38 90.999s55.666 38 90.999 38s65.666 -12.667 90.999 -38s38 -55.666 38 -90.999z" />
    <glyph glyph-name="oslash" unicode="&#xf8;" horiz-adv-x="1104" 
d="M1033 503c0 -69.333 -10.998 -137.5 -32.998 -204.5s-53.333 -123.833 -94 -170.5c-46 -53.333 -99.333 -93 -160 -119s-128.667 -39 -204 -39c-52.667 0 -103.334 9 -152.001 27s-93.667 44 -135 78l-83 -102c-26.667 -33.333 -41 -51.333 -43 -54l-58 43l133 163
c-40.667 45.333 -73.167 98.166 -97.5 158.499s-36.5 128.833 -36.5 205.5c0 154 44.833 280 134.5 378s207.167 147 352.5 147c58.667 0 111.667 -8.33301 159 -25s90.666 -40.667 129.999 -72l111 141l58 -44l-118 -145c42.667 -46 76 -100.167 100 -162.5
s36 -130.166 36 -203.499zM763.002 815c-22 38.667 -49.167 68.834 -81.5 90.501s-74.5 32.5 -126.5 32.5c-54 0 -99.167 -13.167 -135.5 -39.5s-65.5 -60.5 -87.5 -102.5c-21.333 -40.667 -36.5 -87 -45.5 -139s-13.5 -102.333 -13.5 -151c0 -46 2.83301 -91.333 8.5 -136
s14.167 -85.334 25.5 -122.001zM763.002 180c23.333 44.667 40.333 92.667 51 144s16 110.333 16 177c0 42 -2.66699 84.667 -8 128s-14 83 -26 119l-456 -569c22.667 -41.333 51 -73.833 85 -97.5s77.333 -35.5 130 -35.5c46.667 0 87.5 12.167 122.5 36.5
s63.5 56.833 85.5 97.5z" />
    <glyph glyph-name="ugrave" unicode="&#xf9;" horiz-adv-x="1178" 
d="M1129 18l-321.001 -22l-15 14v125h-6c-16 -16.667 -34 -34.5 -54 -53.5s-43 -36.167 -69 -51.5c-30 -18 -59 -31.667 -87 -41s-67.667 -14 -119 -14c-87.333 0 -153.833 28.5 -199.5 85.5s-68.5 139.833 -68.5 248.5v472c0 24 -4.5 44.167 -13.5 60.5
s-22.167 30.5 -39.5 42.5c-12 8 -27 13.833 -45 17.5s-37 6.16699 -57 7.5v65l329 24l15 -14v-685c0 -71.333 16 -125 48 -161s70.333 -54 115 -54c36.667 0 69.334 5.66699 98.001 17s52.667 24.666 72 39.999c18 14 33.833 28.833 47.5 44.5s24.167 30.167 31.5 43.5v559
c0 22 -4.66699 41.5 -14 58.5s-22.333 31.5 -39 43.5c-12 8 -29.833 12.833 -53.5 14.5s-50.167 3.16699 -79.5 4.5v65l358 24l15 -14v-783c0 -22.667 4.66699 -42 14 -58s22.333 -29.667 39 -41c12 -7.33301 26.333 -12.166 43 -14.499s35 -3.83301 55 -4.5v-65z
M768.999 1142l-38.001 -31.9971l-184 143.5c-54 41 -94 72.167 -120 93.5c-25.333 21.333 -43.166 38.666 -53.499 51.999s-15.5 33.666 -15.5 60.999c0 19.333 7.66699 37.166 23 53.499s35 24.5 59 24.5c26 0 48.333 -6 67 -18s38.667 -35.333 60 -70l80 -125.5z" />
    <glyph glyph-name="uacute" unicode="&#xfa;" horiz-adv-x="1178" 
d="M1129 18l-321.001 -22l-15 14v125h-6c-16 -16.667 -34 -34.5 -54 -53.5s-43 -36.167 -69 -51.5c-30 -18 -59 -31.667 -87 -41s-67.667 -14 -119 -14c-87.333 0 -153.833 28.5 -199.5 85.5s-68.5 139.833 -68.5 248.5v472c0 24 -4.5 44.167 -13.5 60.5
s-22.167 30.5 -39.5 42.5c-12 8 -27 13.833 -45 17.5s-37 6.16699 -57 7.5v65l329 24l15 -14v-685c0 -71.333 16 -125 48 -161s70.333 -54 115 -54c36.667 0 69.334 5.66699 98.001 17s52.667 24.666 72 39.999c18 14 33.833 28.833 47.5 44.5s24.167 30.167 31.5 43.5v559
c0 22 -4.66699 41.5 -14 58.5s-22.333 31.5 -39 43.5c-12 8 -29.833 12.833 -53.5 14.5s-50.167 3.16699 -79.5 4.5v65l358 24l15 -14v-783c0 -22.667 4.66699 -42 14 -58s22.333 -29.667 39 -41c12 -7.33301 26.333 -12.166 43 -14.499s35 -3.83301 55 -4.5v-65z
M807.999 1460c0 -25.333 -5.83105 -46.001 -17.498 -62.001s-28.834 -33 -51.501 -51l-130.5 -102l-173.5 -135l-38 32l125.5 187.5l76.5 120.5c20.667 34 40.667 57.167 60 69.5s41.666 18.5 66.999 18.5c24 0 43.667 -8.16699 59 -24.5s23 -34.166 23 -53.499z" />
    <glyph glyph-name="ucircumflex" unicode="&#xfb;" horiz-adv-x="1178" 
d="M1129 18l-321.001 -22l-15 14v125h-6c-16 -16.667 -34 -34.5 -54 -53.5s-43 -36.167 -69 -51.5c-30 -18 -59 -31.667 -87 -41s-67.667 -14 -119 -14c-87.333 0 -153.833 28.5 -199.5 85.5s-68.5 139.833 -68.5 248.5v472c0 24 -4.5 44.167 -13.5 60.5
s-22.167 30.5 -39.5 42.5c-12 8 -27 13.833 -45 17.5s-37 6.16699 -57 7.5v65l329 24l15 -14v-685c0 -71.333 16 -125 48 -161s70.333 -54 115 -54c36.667 0 69.334 5.66699 98.001 17s52.667 24.666 72 39.999c18 14 33.833 28.833 47.5 44.5s24.167 30.167 31.5 43.5v559
c0 22 -4.66699 41.5 -14 58.5s-22.333 31.5 -39 43.5c-12 8 -29.833 12.833 -53.5 14.5s-50.167 3.16699 -79.5 4.5v65l358 24l15 -14v-783c0 -22.667 4.66699 -42 14 -58s22.333 -29.667 39 -41c12 -7.33301 26.333 -12.166 43 -14.499s35 -3.83301 55 -4.5v-65z
M897.999 1150l-47.999 -32.001l-279 273l-275 -273l-48 32l237 347c11.333 16.667 22.166 28.334 32.499 35.001s29.5 10 57.5 10c26.667 0 45 -3.5 55 -10.5s19.667 -17.167 29 -30.5z" />
    <glyph glyph-name="udieresis" unicode="&#xfc;" horiz-adv-x="1178" 
d="M1129 18l-321.001 -22l-15 14v125h-6c-16 -16.667 -34 -34.5 -54 -53.5s-43 -36.167 -69 -51.5c-30 -18 -59 -31.667 -87 -41s-67.667 -14 -119 -14c-87.333 0 -153.833 28.5 -199.5 85.5s-68.5 139.833 -68.5 248.5v472c0 24 -4.5 44.167 -13.5 60.5
s-22.167 30.5 -39.5 42.5c-12 8 -27 13.833 -45 17.5s-37 6.16699 -57 7.5v65l329 24l15 -14v-685c0 -71.333 16 -125 48 -161s70.333 -54 115 -54c36.667 0 69.334 5.66699 98.001 17s52.667 24.666 72 39.999c18 14 33.833 28.833 47.5 44.5s24.167 30.167 31.5 43.5v559
c0 22 -4.66699 41.5 -14 58.5s-22.333 31.5 -39 43.5c-12 8 -29.833 12.833 -53.5 14.5s-50.167 3.16699 -79.5 4.5v65l358 24l15 -14v-783c0 -22.667 4.66699 -42 14 -58s22.333 -29.667 39 -41c12 -7.33301 26.333 -12.166 43 -14.499s35 -3.83301 55 -4.5v-65z
M905.999 1364c0 -34 -11.5 -63 -34.5 -87s-50.833 -36 -83.5 -36s-60.5 12 -83.5 36s-34.5 53 -34.5 87s11.5 63 34.5 87s50.833 36 83.5 36s60.5 -12 83.5 -36s34.5 -53 34.5 -87zM475.999 1364c0 -34 -11.5 -63 -34.5 -87s-50.833 -36 -83.5 -36s-60.5 12 -83.5 36
s-34.5 53 -34.5 87s11.5 63 34.5 87s50.833 36 83.5 36s60.5 -12 83.5 -36s34.5 -53 34.5 -87z" />
    <glyph glyph-name="yacute" unicode="&#xfd;" horiz-adv-x="1008" 
d="M-3 -322c0 33.333 9.16895 60.498 27.502 81.498s41.166 31.5 68.499 31.5c21.333 0 39.666 -4 54.999 -12s29 -18.333 41 -31c10 -10 20.667 -23.667 32 -41s20.333 -31.666 27 -42.999c33.333 18 73.166 65 119.499 141s79.833 142.667 100.5 200l-172 424l-161 387
c-12.667 30.667 -34 54.5 -64 71.5s-60 27.833 -90 32.5v66h450v-70c-20 -0.666992 -44 -4.83398 -72 -12.501s-42 -16.5 -42 -26.5c0 -4 1.5 -10.667 4.5 -20s6.5 -19 10.5 -29c25.333 -66 64 -161.167 116 -285.5s92.333 -223.833 121 -298.5l93.5 221.5
c32.333 76.333 68.5 166.5 108.5 270.5l20 52.5c8.66699 22.333 13 41.5 13 57.5c0 17.333 -15.167 33.5 -45.5 48.5s-59.166 24.167 -86.499 27.5v64h366v-62c-20 -3.33301 -46.333 -14.833 -79 -34.5s-57 -47.5 -73 -83.5l-211.5 -503
c-61.667 -151.333 -108.5 -262.666 -140.5 -333.999c-42 -93.333 -79.5 -166.166 -112.5 -218.499s-65.167 -93.5 -96.5 -123.5c-30.667 -28 -58.5 -46.833 -83.5 -56.5s-50.833 -14.5 -77.5 -14.5c-52 0 -92.833 12.333 -122.5 37s-44.5 53 -44.5 85zM759.002 1460
c0 -25.333 -5.83105 -46.001 -17.498 -62.001s-28.834 -33 -51.501 -51l-130.5 -102l-173.5 -135l-38 32l125.5 187.5l76.5 120.5c20.667 34 40.667 57.167 60 69.5s41.666 18.5 66.999 18.5c24 0 43.667 -8.16699 59 -24.5s23 -34.166 23 -53.499z" />
    <glyph glyph-name="thorn" unicode="&#xfe;" horiz-adv-x="1145" 
d="M948 869c39.333 -46.667 69.8359 -100.832 91.5029 -162.499s32.5 -132.167 32.5 -211.5c0 -78 -12.833 -149.333 -38.5 -214s-60.167 -119.334 -103.5 -164.001c-44.667 -46 -94.334 -81.333 -149.001 -106s-112.667 -37 -174 -37c-59.333 0 -108 6.66699 -146 20
s-69 29 -93 47h-8v-296c0 -24 4.66699 -44 14 -60s23.666 -27.667 42.999 -35c15.333 -6 38 -11.833 68 -17.5s54.667 -8.83398 74 -9.50098v-67h-551v67c20.667 1.33301 40.667 2.83301 60 4.5s36.666 5.16699 51.999 10.5c20 6.66699 34 18.334 42 35.001
s12 36.334 12 59.001v1584c-2 21.333 -7.66699 43.666 -17 66.999s-22.333 40.666 -39 51.999c-12 8 -33.167 14 -63.5 18s-54.833 6.66699 -73.5 8v64l365 23l14 -15v-656l6 -4c34.667 40 77.667 73.333 129 100s102.333 40 153 40c61.333 0 117.5 -13.167 168.5 -39.5
s94.833 -61.166 131.5 -104.499zM863.003 487.002c0 49.333 -5.33301 99.667 -16 151s-27.334 96 -50.001 134c-22.667 38.667 -52.334 70 -89.001 94s-80.667 36 -132 36c-49.333 0 -91.333 -10.833 -126 -32.5s-64.667 -47.5 -90 -77.5v-583
c6 -18 15.833 -36.667 29.5 -56s28.834 -36 45.501 -50c20.667 -16.667 43 -30.167 67 -40.5s53.333 -15.5 88 -15.5c37.333 0 73.333 9.83301 108 29.5s63.667 47.5 87 83.5c26.667 41.333 46.334 89.333 59.001 144s19 115.667 19 183z" />
    <glyph glyph-name="ydieresis" unicode="&#xff;" horiz-adv-x="1008" 
d="M-3 -322c0 33.333 9.16895 60.498 27.502 81.498s41.166 31.5 68.499 31.5c21.333 0 39.666 -4 54.999 -12s29 -18.333 41 -31c10 -10 20.667 -23.667 32 -41s20.333 -31.666 27 -42.999c33.333 18 73.166 65 119.499 141s79.833 142.667 100.5 200l-172 424l-161 387
c-12.667 30.667 -34 54.5 -64 71.5s-60 27.833 -90 32.5v66h450v-70c-20 -0.666992 -44 -4.83398 -72 -12.501s-42 -16.5 -42 -26.5c0 -4 1.5 -10.667 4.5 -20s6.5 -19 10.5 -29c25.333 -66 64 -161.167 116 -285.5s92.333 -223.833 121 -298.5l93.5 221.5
c32.333 76.333 68.5 166.5 108.5 270.5l20 52.5c8.66699 22.333 13 41.5 13 57.5c0 17.333 -15.167 33.5 -45.5 48.5s-59.166 24.167 -86.499 27.5v64h366v-62c-20 -3.33301 -46.333 -14.833 -79 -34.5s-57 -47.5 -73 -83.5l-211.5 -503
c-61.667 -151.333 -108.5 -262.666 -140.5 -333.999c-42 -93.333 -79.5 -166.166 -112.5 -218.499s-65.167 -93.5 -96.5 -123.5c-30.667 -28 -58.5 -46.833 -83.5 -56.5s-50.833 -14.5 -77.5 -14.5c-52 0 -92.833 12.333 -122.5 37s-44.5 53 -44.5 85zM876.002 1364
c0 -34 -11.5 -63 -34.5 -87s-50.833 -36 -83.5 -36s-60.5 12 -83.5 36s-34.5 53 -34.5 87s11.5 63 34.5 87s50.833 36 83.5 36s60.5 -12 83.5 -36s34.5 -53 34.5 -87zM446.002 1364c0 -34 -11.5 -63 -34.5 -87s-50.833 -36 -83.5 -36s-60.5 12 -83.5 36s-34.5 53 -34.5 87
s11.5 63 34.5 87s50.833 36 83.5 36s60.5 -12 83.5 -36s34.5 -53 34.5 -87z" />
    <glyph glyph-name="Amacron" unicode="&#x100;" horiz-adv-x="1374" 
d="M1421 0l-591.002 0.000976562v71c52 3.33301 95.167 10 129.5 20s51.5 22.333 51.5 37c0 6 -0.666992 13.333 -2 22s-3.33301 16.334 -6 23.001l-118 318h-497c-18.667 -46.667 -33.834 -87.334 -45.501 -122.001l-31.5 -96c-8.66699 -28.667 -14.667 -52 -18 -70
s-5 -32.667 -5 -44c0 -26.667 21 -47.334 63 -62.001s89.333 -23.334 142 -26.001v-71h-534v71c17.333 1.33301 39 5.16602 65 11.499s47.333 14.833 64 25.5c26.667 18 47.334 36.833 62.001 56.5s29 46.834 43 81.501l236 600l230 593h80l473 -1224
c10 -26 21.333 -47 34 -63s30.334 -31.667 53.001 -47c15.333 -9.33301 35.333 -17.166 60 -23.499s45.334 -9.83301 62.001 -10.5v-71zM848.998 580.001l-215 550l-211 -550h426zM1043 1645h-686v128h686v-128z" />
    <glyph glyph-name="amacron" unicode="&#x101;" horiz-adv-x="1032" 
d="M1006 18c-31.333 -11.333 -58.8369 -20.502 -82.5039 -27.502s-50.5 -10.5 -80.5 -10.5c-52 0 -93.5 12.167 -124.5 36.5s-50.833 59.833 -59.5 106.5h-6c-43.333 -48 -89.833 -84.667 -139.5 -110s-109.5 -38 -179.5 -38c-74 0 -134.833 22.667 -182.5 68
s-71.5 104.666 -71.5 177.999c0 38 5.33301 72 16 102s26.667 57 48 81c16.667 20 38.667 37.833 66 53.5s53 28.167 77 37.5c30 11.333 90.833 32.333 182.5 63s153.5 54.667 185.5 72v99c0 8.66699 -1.83301 25.334 -5.5 50.001s-11.5 48 -23.5 70
c-13.333 24.667 -32.166 46.167 -56.499 64.5s-58.833 27.5 -103.5 27.5c-30.667 0 -59.167 -5.16699 -85.5 -15.5s-44.833 -21.166 -55.5 -32.499c0 -13.333 3.16699 -33 9.5 -59s9.5 -50 9.5 -72c0 -23.333 -10.5 -44.666 -31.5 -63.999s-50.167 -29 -87.5 -29
c-33.333 0 -57.833 11.833 -73.5 35.5s-23.5 50.167 -23.5 79.5c0 30.667 10.833 60 32.5 88s49.834 53 84.501 75c30 18.667 66.333 34.5 109 47.5s84.334 19.5 125.001 19.5c56 0 104.833 -3.83301 146.5 -11.5s79.5 -24.167 113.5 -49.5
c34 -24.667 59.833 -58.167 77.5 -100.5s26.5 -96.833 26.5 -163.5c0 -95.333 -1 -179.833 -3 -253.5s-3 -154.167 -3 -241.5c0 -26 4.5 -46.667 13.5 -62s22.833 -28.333 41.5 -39c10 -6 25.833 -9.33301 47.5 -10s43.834 -1 66.501 -1v-64zM656.996 545.998
c-56.667 -16.667 -106.333 -33 -149 -49s-82.334 -36 -119.001 -60c-33.333 -22.667 -59.666 -49.5 -78.999 -80.5s-29 -67.833 -29 -110.5c0 -55.333 14.5 -96 43.5 -122s65.833 -39 110.5 -39c47.333 0 89 11.5 125 34.5s66.333 50.167 91 81.5zM845.997 1291h-686v128
h686v-128z" />
    <glyph glyph-name="Abreve" unicode="&#x102;" horiz-adv-x="1374" 
d="M1421 0l-591.002 0.000976562v71c52 3.33301 95.167 10 129.5 20s51.5 22.333 51.5 37c0 6 -0.666992 13.333 -2 22s-3.33301 16.334 -6 23.001l-118 318h-497c-18.667 -46.667 -33.834 -87.334 -45.501 -122.001l-31.5 -96c-8.66699 -28.667 -14.667 -52 -18 -70
s-5 -32.667 -5 -44c0 -26.667 21 -47.334 63 -62.001s89.333 -23.334 142 -26.001v-71h-534v71c17.333 1.33301 39 5.16602 65 11.499s47.333 14.833 64 25.5c26.667 18 47.334 36.833 62.001 56.5s29 46.834 43 81.501l236 600l230 593h80l473 -1224
c10 -26 21.333 -47 34 -63s30.334 -31.667 53.001 -47c15.333 -9.33301 35.333 -17.166 60 -23.499s45.334 -9.83301 62.001 -10.5v-71zM848.998 580.001l-215 550l-211 -550h426zM1016 1851c-18 -107.333 -52.999 -187.666 -104.999 -240.999s-123 -80 -213 -80
c-88 0 -158.833 27.167 -212.5 81.5s-88.834 134.166 -105.501 239.499l55 16c19.333 -61.333 49 -108.166 89 -140.499s98 -48.5 174 -48.5s134 16.167 174 48.5s69.667 79.166 89 140.499z" />
    <glyph glyph-name="abreve" unicode="&#x103;" horiz-adv-x="1032" 
d="M1006 18c-31.333 -11.333 -58.8369 -20.502 -82.5039 -27.502s-50.5 -10.5 -80.5 -10.5c-52 0 -93.5 12.167 -124.5 36.5s-50.833 59.833 -59.5 106.5h-6c-43.333 -48 -89.833 -84.667 -139.5 -110s-109.5 -38 -179.5 -38c-74 0 -134.833 22.667 -182.5 68
s-71.5 104.666 -71.5 177.999c0 38 5.33301 72 16 102s26.667 57 48 81c16.667 20 38.667 37.833 66 53.5s53 28.167 77 37.5c30 11.333 90.833 32.333 182.5 63s153.5 54.667 185.5 72v99c0 8.66699 -1.83301 25.334 -5.5 50.001s-11.5 48 -23.5 70
c-13.333 24.667 -32.166 46.167 -56.499 64.5s-58.833 27.5 -103.5 27.5c-30.667 0 -59.167 -5.16699 -85.5 -15.5s-44.833 -21.166 -55.5 -32.499c0 -13.333 3.16699 -33 9.5 -59s9.5 -50 9.5 -72c0 -23.333 -10.5 -44.666 -31.5 -63.999s-50.167 -29 -87.5 -29
c-33.333 0 -57.833 11.833 -73.5 35.5s-23.5 50.167 -23.5 79.5c0 30.667 10.833 60 32.5 88s49.834 53 84.501 75c30 18.667 66.333 34.5 109 47.5s84.334 19.5 125.001 19.5c56 0 104.833 -3.83301 146.5 -11.5s79.5 -24.167 113.5 -49.5
c34 -24.667 59.833 -58.167 77.5 -100.5s26.5 -96.833 26.5 -163.5c0 -95.333 -1 -179.833 -3 -253.5s-3 -154.167 -3 -241.5c0 -26 4.5 -46.667 13.5 -62s22.833 -28.333 41.5 -39c10 -6 25.833 -9.33301 47.5 -10s43.834 -1 66.501 -1v-64zM656.996 545.998
c-56.667 -16.667 -106.333 -33 -149 -49s-82.334 -36 -119.001 -60c-33.333 -22.667 -59.666 -49.5 -78.999 -80.5s-29 -67.833 -29 -110.5c0 -55.333 14.5 -96 43.5 -122s65.833 -39 110.5 -39c47.333 0 89 11.5 125 34.5s66.333 50.167 91 81.5zM806.997 1495
c-18.667 -126 -53.8301 -218.833 -105.497 -278.5s-120.834 -89.5 -207.501 -89.5c-88 0 -158 31.5 -210 94.5s-86.333 154.167 -103 273.5l55 12c9.33301 -31.333 20.666 -61.333 33.999 -90s29 -53 47 -73c20.667 -21.333 44.167 -37.833 70.5 -49.5
s61.833 -17.5 106.5 -17.5c40.667 0 75.167 5.66699 103.5 17s52.166 27.333 71.499 48s35.5 45 48.5 73s24.5 58.667 34.5 92z" />
    <glyph glyph-name="Aogonek" unicode="&#x104;" horiz-adv-x="1374" 
d="M1114 0l-284.003 0.000976562v71c52 3.33301 95.167 10 129.5 20s51.5 22.333 51.5 37c0 6 -0.666992 13.333 -2 22s-3.33301 16.334 -6 23.001l-118 318h-497c-18.667 -46.667 -33.834 -87.334 -45.501 -122.001l-31.5 -96c-8.66699 -28.667 -14.667 -52 -18 -70
s-5 -32.667 -5 -44c0 -26.667 21 -47.334 63 -62.001s89.333 -23.334 142 -26.001v-71h-534v71c17.333 1.33301 39 5.16602 65 11.499s47.333 14.833 64 25.5c26.667 18 47.334 36.833 62.001 56.5s29 46.834 43 81.501l236 600l230 593h80l473 -1224
c10 -26 21.333 -47 34 -63s30.334 -31.667 53.001 -47c15.333 -9.33301 35.333 -17.166 60 -23.499s45.334 -9.83301 62.001 -10.5v-71h-230c-30.667 -29.333 -53.834 -61.333 -69.501 -96s-23.5 -75 -23.5 -121c0 -24 3.16699 -45.167 9.5 -63.5s18.166 -34.5 35.499 -48.5
c17.333 -14.667 40.833 -25.667 70.5 -33s65.834 -10.666 108.501 -9.99902v-72h-115c-85.333 0 -151.166 17.5 -197.499 52.5s-69.5 82.167 -69.5 141.5c0 41.333 14.333 83.166 43 125.499s72.334 83.833 131.001 124.5zM848.997 580.001l-215 550l-211 -550h426z" />
    <glyph glyph-name="aogonek" unicode="&#x105;" horiz-adv-x="1032" 
d="M548 -250c0 42.667 14.9941 85.4971 44.9941 128.497s76.333 85.833 139 128.5c-20.667 13.333 -36.667 29 -48 47s-19.666 41 -24.999 69h-6c-43.333 -48 -89.833 -84.667 -139.5 -110s-109.5 -38 -179.5 -38c-74 0 -134.833 22.667 -182.5 68
s-71.5 104.666 -71.5 177.999c0 38 5.33301 72 16 102s26.667 57 48 81c16.667 20 38.667 37.833 66 53.5s53 28.167 77 37.5c30 11.333 90.833 32.333 182.5 63s153.5 54.667 185.5 72v99c0 8.66699 -1.83301 25.334 -5.5 50.001s-11.5 48 -23.5 70
c-13.333 24.667 -32.166 46.167 -56.499 64.5s-58.833 27.5 -103.5 27.5c-30.667 0 -59.167 -5.16699 -85.5 -15.5s-44.833 -21.166 -55.5 -32.499c0 -13.333 3.16699 -33 9.5 -59s9.5 -50 9.5 -72c0 -23.333 -10.5 -44.666 -31.5 -63.999s-50.167 -29 -87.5 -29
c-33.333 0 -57.833 11.833 -73.5 35.5s-23.5 50.167 -23.5 79.5c0 30.667 10.833 60 32.5 88s49.834 53 84.501 75c30 18.667 66.333 34.5 109 47.5s84.334 19.5 125.001 19.5c56 0 104.833 -3.83301 146.5 -11.5s79.5 -24.167 113.5 -49.5
c34 -24.667 59.833 -58.167 77.5 -100.5s26.5 -96.833 26.5 -163.5c0 -95.333 -1 -179.833 -3 -253.5s-3 -154.167 -3 -241.5c0 -26 4.5 -46.667 13.5 -62s22.833 -28.333 41.5 -39c10 -6 25.833 -9.33301 47.5 -10s43.834 -1 66.501 -1v-64
c-31.333 -11.333 -58.833 -20.5 -82.5 -27.5s-50.5 -10.5 -80.5 -10.5c-10 0 -19.833 0.5 -29.5 1.5s-18.5 2.5 -26.5 4.5c-26 -28 -46 -57.667 -60 -89s-21 -69.333 -21 -114c0 -24 3.16699 -45.167 9.5 -63.5s18.166 -34.5 35.499 -48.5
c17.333 -14.667 40.833 -25.667 70.5 -33s65.834 -10.666 108.501 -9.99902v-72h-115c-85.333 0 -151.166 17.5 -197.499 52.5s-69.5 82.167 -69.5 141.5zM656.994 545.997c-56.667 -16.667 -106.333 -33 -149 -49s-82.334 -36 -119.001 -60
c-33.333 -22.667 -59.666 -49.5 -78.999 -80.5s-29 -67.833 -29 -110.5c0 -55.333 14.5 -96 43.5 -122s65.833 -39 110.5 -39c47.333 0 89 11.5 125 34.5s66.333 50.167 91 81.5z" />
    <glyph glyph-name="Cacute" unicode="&#x106;" horiz-adv-x="1315" 
d="M723 -33c-84.667 0 -165.83 16.6699 -243.497 50.0029s-146.5 81.333 -206.5 144c-59.333 62.667 -106.666 139.167 -141.999 229.5s-53 192.166 -53 305.499s17.333 216.166 52 308.499s82.667 171.833 144 238.5c60.667 66 132.334 117 215.001 153s171 54 265 54
c70 0 133.333 -8.66699 190 -26s110.667 -41.666 162 -72.999l41 68h80l9 -506h-82c-10.667 49.333 -26.667 102.833 -48 160.5s-46.333 106.5 -75 146.5c-32 45.333 -70 80.833 -114 106.5s-94.333 38.5 -151 38.5c-64.667 0 -124.834 -14.333 -180.501 -43
s-103.834 -71 -144.501 -127c-38.667 -54 -69 -122.667 -91 -206s-33 -176.333 -33 -279c0 -90.667 11.5 -173.834 34.5 -249.501s55.833 -142.167 98.5 -199.5c42.667 -56.667 93.167 -101 151.5 -133s123.5 -48 195.5 -48c54 0 103.667 8.5 149 25.5
s84.666 39.5 117.999 67.5c33.333 29.333 62.666 62.666 87.999 99.999s46 78 62 122l75 -36c-57.333 -140.667 -133.333 -241.167 -228 -301.5s-207.334 -90.5 -338.001 -90.5zM879.004 1675l-136.5 -66.5l-209.5 -101.5l-31 39l148.5 143.5l113.5 115.5
c21.333 22.667 40.833 38.834 58.5 48.501s36.5 14.5 56.5 14.5c25.333 0 47 -7.66699 65 -23s27 -34.333 27 -57c0 -28.667 -8.66699 -51.334 -26 -68.001s-39.333 -31.667 -66 -45z" />
    <glyph glyph-name="cacute" unicode="&#x107;" horiz-adv-x="930" 
d="M528 -26c-142.667 0 -254.334 47.3359 -335.001 142.003s-121 221.667 -121 381c0 69.333 10.833 134.166 32.5 194.499s53.167 115.166 94.5 164.499c39.333 47.333 88.666 85.5 147.999 114.5s124 43.5 194 43.5c96.667 0 175.334 -23.167 236.001 -69.5
s91 -109.5 91 -189.5c0 -33.333 -8 -62.833 -24 -88.5s-42.333 -38.5 -79 -38.5c-39.333 0 -69.833 10 -91.5 30s-32.5 42.333 -32.5 67c0 30 4 60.833 12 92.5s12.667 54.834 14 69.501c-12 20.667 -29.833 34.5 -53.5 41.5s-49.167 10.5 -76.5 10.5
c-32 0 -62.5 -6.83301 -91.5 -20.5s-57.167 -38.834 -84.5 -75.501c-24.667 -33.333 -44.667 -78.333 -60 -135s-23 -124.334 -23 -203.001c0 -124 27.5 -225.167 82.5 -303.5s127.167 -117.5 216.5 -117.5c64.667 0 118.834 15.667 162.501 47s84.167 78.333 121.5 141
l64 -42c-44 -78.667 -102 -141 -174 -187s-146.333 -69 -223 -69zM721 1460c0 -25.333 -5.83105 -46.001 -17.498 -62.001s-28.834 -33 -51.501 -51l-130.5 -102l-173.5 -135l-38 32l125.5 187.5l76.5 120.5c20.667 34 40.667 57.167 60 69.5s41.666 18.5 66.999 18.5
c24 0 43.667 -8.16699 59 -24.5s23 -34.166 23 -53.499z" />
    <glyph glyph-name="Ccircumflex" unicode="&#x108;" horiz-adv-x="1315" 
d="M723 -33c-84.667 0 -165.83 16.6699 -243.497 50.0029s-146.5 81.333 -206.5 144c-59.333 62.667 -106.666 139.167 -141.999 229.5s-53 192.166 -53 305.499s17.333 216.166 52 308.499s82.667 171.833 144 238.5c60.667 66 132.334 117 215.001 153s171 54 265 54
c70 0 133.333 -8.66699 190 -26s110.667 -41.666 162 -72.999l41 68h80l9 -506h-82c-10.667 49.333 -26.667 102.833 -48 160.5s-46.333 106.5 -75 146.5c-32 45.333 -70 80.833 -114 106.5s-94.333 38.5 -151 38.5c-64.667 0 -124.834 -14.333 -180.501 -43
s-103.834 -71 -144.501 -127c-38.667 -54 -69 -122.667 -91 -206s-33 -176.333 -33 -279c0 -90.667 11.5 -173.834 34.5 -249.501s55.833 -142.167 98.5 -199.5c42.667 -56.667 93.167 -101 151.5 -133s123.5 -48 195.5 -48c54 0 103.667 8.5 149 25.5
s84.666 39.5 117.999 67.5c33.333 29.333 62.666 62.666 87.999 99.999s46 78 62 122l75 -36c-57.333 -140.667 -133.333 -241.167 -228 -301.5s-207.334 -90.5 -338.001 -90.5zM1062 1539l-48 -32.001l-279 212l-275 -212l-48 32l234 284
c12 14.667 23.833 25.834 35.5 33.501s30.834 11.5 57.501 11.5c27.333 0 46.166 -3.66699 56.499 -11s20.5 -17.333 30.5 -30z" />
    <glyph glyph-name="ccircumflex" unicode="&#x109;" horiz-adv-x="930" 
d="M528 -26c-142.667 0 -254.334 47.3359 -335.001 142.003s-121 221.667 -121 381c0 69.333 10.833 134.166 32.5 194.499s53.167 115.166 94.5 164.499c39.333 47.333 88.666 85.5 147.999 114.5s124 43.5 194 43.5c96.667 0 175.334 -23.167 236.001 -69.5
s91 -109.5 91 -189.5c0 -33.333 -8 -62.833 -24 -88.5s-42.333 -38.5 -79 -38.5c-39.333 0 -69.833 10 -91.5 30s-32.5 42.333 -32.5 67c0 30 4 60.833 12 92.5s12.667 54.834 14 69.501c-12 20.667 -29.833 34.5 -53.5 41.5s-49.167 10.5 -76.5 10.5
c-32 0 -62.5 -6.83301 -91.5 -20.5s-57.167 -38.834 -84.5 -75.501c-24.667 -33.333 -44.667 -78.333 -60 -135s-23 -124.334 -23 -203.001c0 -124 27.5 -225.167 82.5 -303.5s127.167 -117.5 216.5 -117.5c64.667 0 118.834 15.667 162.501 47s84.167 78.333 121.5 141
l64 -42c-44 -78.667 -102 -141 -174 -187s-146.333 -69 -223 -69zM847 1150l-47.999 -32.001l-279 273l-275 -273l-48 32l237 347c11.333 16.667 22.166 28.334 32.499 35.001s29.5 10 57.5 10c26.667 0 45 -3.5 55 -10.5s19.667 -17.167 29 -30.5z" />
    <glyph glyph-name="Cdotaccent" unicode="&#x10a;" horiz-adv-x="1315" 
d="M723 -33c-84.667 0 -165.83 16.6699 -243.497 50.0029s-146.5 81.333 -206.5 144c-59.333 62.667 -106.666 139.167 -141.999 229.5s-53 192.166 -53 305.499s17.333 216.166 52 308.499s82.667 171.833 144 238.5c60.667 66 132.334 117 215.001 153s171 54 265 54
c70 0 133.333 -8.66699 190 -26s110.667 -41.666 162 -72.999l41 68h80l9 -506h-82c-10.667 49.333 -26.667 102.833 -48 160.5s-46.333 106.5 -75 146.5c-32 45.333 -70 80.833 -114 106.5s-94.333 38.5 -151 38.5c-64.667 0 -124.834 -14.333 -180.501 -43
s-103.834 -71 -144.501 -127c-38.667 -54 -69 -122.667 -91 -206s-33 -176.333 -33 -279c0 -90.667 11.5 -173.834 34.5 -249.501s55.833 -142.167 98.5 -199.5c42.667 -56.667 93.167 -101 151.5 -133s123.5 -48 195.5 -48c54 0 103.667 8.5 149 25.5
s84.666 39.5 117.999 67.5c33.333 29.333 62.666 62.666 87.999 99.999s46 78 62 122l75 -36c-57.333 -140.667 -133.333 -241.167 -228 -301.5s-207.334 -90.5 -338.001 -90.5zM877.004 1738c0 -38 -12.5 -70.834 -37.5 -98.501s-55.833 -41.5 -92.5 -41.5
c-34 0 -63.5 13 -88.5 39s-37.5 56.667 -37.5 92c0 36.667 12.5 68.334 37.5 95.001s54.5 40 88.5 40c38 0 69.167 -12.5 93.5 -37.5s36.5 -54.5 36.5 -88.5z" />
    <glyph glyph-name="cdotaccent" unicode="&#x10b;" horiz-adv-x="930" 
d="M528 -26c-142.667 0 -254.334 47.3359 -335.001 142.003s-121 221.667 -121 381c0 69.333 10.833 134.166 32.5 194.499s53.167 115.166 94.5 164.499c39.333 47.333 88.666 85.5 147.999 114.5s124 43.5 194 43.5c96.667 0 175.334 -23.167 236.001 -69.5
s91 -109.5 91 -189.5c0 -33.333 -8 -62.833 -24 -88.5s-42.333 -38.5 -79 -38.5c-39.333 0 -69.833 10 -91.5 30s-32.5 42.333 -32.5 67c0 30 4 60.833 12 92.5s12.667 54.834 14 69.501c-12 20.667 -29.833 34.5 -53.5 41.5s-49.167 10.5 -76.5 10.5
c-32 0 -62.5 -6.83301 -91.5 -20.5s-57.167 -38.834 -84.5 -75.501c-24.667 -33.333 -44.667 -78.333 -60 -135s-23 -124.334 -23 -203.001c0 -124 27.5 -225.167 82.5 -303.5s127.167 -117.5 216.5 -117.5c64.667 0 118.834 15.667 162.501 47s84.167 78.333 121.5 141
l64 -42c-44 -78.667 -102 -141 -174 -187s-146.333 -69 -223 -69zM646 1387c0 -38 -12.5 -70.834 -37.5 -98.501s-55.833 -41.5 -92.5 -41.5c-34 0 -63.5 13 -88.5 39s-37.5 56.667 -37.5 92c0 36.667 12.5 68.334 37.5 95.001s54.5 40 88.5 40
c38 0 69.167 -12.5 93.5 -37.5s36.5 -54.5 36.5 -88.5z" />
    <glyph glyph-name="Ccaron" unicode="&#x10c;" horiz-adv-x="1315" 
d="M723 -33c-84.667 0 -165.83 16.6699 -243.497 50.0029s-146.5 81.333 -206.5 144c-59.333 62.667 -106.666 139.167 -141.999 229.5s-53 192.166 -53 305.499s17.333 216.166 52 308.499s82.667 171.833 144 238.5c60.667 66 132.334 117 215.001 153s171 54 265 54
c70 0 133.333 -8.66699 190 -26s110.667 -41.666 162 -72.999l41 68h80l9 -506h-82c-10.667 49.333 -26.667 102.833 -48 160.5s-46.333 106.5 -75 146.5c-32 45.333 -70 80.833 -114 106.5s-94.333 38.5 -151 38.5c-64.667 0 -124.834 -14.333 -180.501 -43
s-103.834 -71 -144.501 -127c-38.667 -54 -69 -122.667 -91 -206s-33 -176.333 -33 -279c0 -90.667 11.5 -173.834 34.5 -249.501s55.833 -142.167 98.5 -199.5c42.667 -56.667 93.167 -101 151.5 -133s123.5 -48 195.5 -48c54 0 103.667 8.5 149 25.5
s84.666 39.5 117.999 67.5c33.333 29.333 62.666 62.666 87.999 99.999s46 78 62 122l75 -36c-57.333 -140.667 -133.333 -241.167 -228 -301.5s-207.334 -90.5 -338.001 -90.5zM1075 1836l-234 -284.001c-14 -17.333 -24.833 -29.166 -32.5 -35.499
s-27.834 -9.5 -60.501 -9.5c-27.333 0 -46.166 3.66699 -56.499 11s-20.5 17.333 -30.5 30l-236 288l48 32l279 -214l275 214z" />
    <glyph glyph-name="ccaron" unicode="&#x10d;" horiz-adv-x="930" 
d="M528 -26c-142.667 0 -254.334 47.3359 -335.001 142.003s-121 221.667 -121 381c0 69.333 10.833 134.166 32.5 194.499s53.167 115.166 94.5 164.499c39.333 47.333 88.666 85.5 147.999 114.5s124 43.5 194 43.5c96.667 0 175.334 -23.167 236.001 -69.5
s91 -109.5 91 -189.5c0 -33.333 -8 -62.833 -24 -88.5s-42.333 -38.5 -79 -38.5c-39.333 0 -69.833 10 -91.5 30s-32.5 42.333 -32.5 67c0 30 4 60.833 12 92.5s12.667 54.834 14 69.501c-12 20.667 -29.833 34.5 -53.5 41.5s-49.167 10.5 -76.5 10.5
c-32 0 -62.5 -6.83301 -91.5 -20.5s-57.167 -38.834 -84.5 -75.501c-24.667 -33.333 -44.667 -78.333 -60 -135s-23 -124.334 -23 -203.001c0 -124 27.5 -225.167 82.5 -303.5s127.167 -117.5 216.5 -117.5c64.667 0 118.834 15.667 162.501 47s84.167 78.333 121.5 141
l64 -42c-44 -78.667 -102 -141 -174 -187s-146.333 -69 -223 -69zM847 1510l-238.999 -350.999c-11.333 -14.667 -21 -25.167 -29 -31.5s-26.333 -9.5 -55 -9.5c-30 0 -49.833 3.66699 -59.5 11s-19.834 18.666 -30.501 33.999l-237 347l48 32l275 -273l279 273z" />
    <glyph glyph-name="Dcaron" unicode="&#x10e;" horiz-adv-x="1534" 
d="M1457 701c0 -120.667 -22.667 -225.333 -68 -314s-104.333 -161.334 -177 -218.001c-73.333 -56.667 -155.666 -99 -246.999 -127s-185.666 -42 -282.999 -42h-588v71c19.333 0 44.5 1.83301 75.5 5.5s51.5 7.83398 61.5 12.501c20 8.66699 34.5 21.5 43.5 38.5
s13.5 37.5 13.5 61.5v1024c0 22.667 -3.83301 43 -11.5 61s-22.834 32.333 -45.501 43c-20.667 10 -43 17.333 -67 22s-44.667 7.66699 -62 9v71h620c85.333 0 169.333 -13.167 252 -39.5s154.667 -61.833 216 -106.5c83.333 -59.333 148.666 -137 195.999 -233
s71 -209 71 -339zM1212 702.001c0 95.333 -12.666 181.499 -37.999 258.499s-62.333 144.167 -111 201.5c-46 54.667 -102.5 97.667 -169.5 129s-141.5 47 -223.5 47c-27.333 0 -58.166 -0.5 -92.499 -1.5s-59.833 -1.83301 -76.5 -2.5v-1091
c0 -60.667 17.667 -102.667 53 -126s89.666 -35 162.999 -35c84.667 0 158.667 15 222 45s114.666 71.667 153.999 125c41.333 56 71.5 120.833 90.5 194.5s28.5 158.834 28.5 255.501zM1036 1836l-234 -284.001c-14 -17.333 -24.833 -29.166 -32.5 -35.499
s-27.834 -9.5 -60.501 -9.5c-27.333 0 -46.166 3.66699 -56.499 11s-20.5 17.333 -30.5 30l-236 288l48 32l279 -214l275 214z" />
    <glyph glyph-name="dcaron" unicode="&#x10f;" horiz-adv-x="1362" 
d="M1152 18l-343.998 -22.0039l-15 14v92l-8 2c-34.667 -38.667 -77.5 -70.334 -128.5 -95.001s-103.5 -37 -157.5 -37c-56 0 -110.167 12.5 -162.5 37.5s-97.833 60.167 -136.5 105.5c-39.333 46 -70.5 101.333 -93.5 166s-34.5 136 -34.5 214c0 71.333 12.333 139 37 203
s58.667 120 102 168c40.667 44.667 90.5 80.334 149.5 107.001s119.167 40 180.5 40c46 0 91.167 -5.83301 135.5 -17.5s82.5 -26.5 114.5 -44.5v343c0 28 -4.66699 53.5 -14 76.5s-22.333 40.5 -39 52.5c-18.667 12.667 -43.834 21.834 -75.501 27.501
s-65.834 9.83398 -102.501 12.501v62l403 23l15 -15v-1330c0 -23.333 4.5 -43.166 13.5 -59.499s22.167 -30.166 39.5 -41.499c12.667 -8 31 -13 55 -15s46 -3.33301 66 -4v-65zM791.002 190.996l0.000976562 577.001c-5.33301 17.333 -14 36 -26 56s-27 38.333 -45 55
c-19.333 16.667 -42 30.5 -68 41.5s-56.333 16.5 -91 16.5c-40 0 -76.833 -10.333 -110.5 -31s-63.5 -50.334 -89.5 -89.001c-24.667 -37.333 -44.167 -84.833 -58.5 -142.5s-21.5 -121.5 -21.5 -191.5c0 -56 5.33301 -106.833 16 -152.5s28.667 -88.167 54 -127.5
c23.333 -37.333 53.166 -67.333 89.499 -90s79.5 -34 129.5 -34c53.333 0 97.5 11.667 132.5 35s64.5 49 88.5 77zM1384 1340c0 -44 -9.50195 -84.165 -28.502 -120.498s-41.833 -67.833 -68.5 -94.5c-26.667 -27.333 -56 -51.833 -88 -73.5s-57.667 -37.5 -77 -47.5l-34 59
c27.333 16 53.5 32.5 78.5 49.5s44.167 33.167 57.5 48.5c18 20 32.333 40.833 43 62.5s17.334 50.167 20.001 85.5h-48c-42 0 -74.667 10.667 -98 32s-35 51 -35 89c0 27.333 10.667 53.166 32 77.499s50.333 36.5 87 36.5c56.667 0 97.334 -18.833 122.001 -56.5
s37 -86.834 37 -147.501z" />
    <glyph glyph-name="Dcroat" unicode="&#x110;" horiz-adv-x="1534" 
d="M1457 701c0 -120.667 -22.667 -225.333 -68 -314s-104.333 -161.334 -177 -218.001c-73.333 -56.667 -155.666 -99 -246.999 -127s-185.666 -42 -282.999 -42h-588v71c19.333 0 44.5 1.83301 75.5 5.5s51.5 7.83398 61.5 12.501c20 8.66699 34.5 21.5 43.5 38.5
s13.5 37.5 13.5 61.5v512h-186v98h186v414c0 22.667 -3.83301 43 -11.5 61s-22.834 32.333 -45.501 43c-20.667 10 -43 17.333 -67 22s-44.667 7.66699 -62 9v71h620c85.333 0 169.333 -13.167 252 -39.5s154.667 -61.833 216 -106.5
c83.333 -59.333 148.666 -137 195.999 -233s71 -209 71 -339zM1212 702.001c0 95.333 -12.666 181.499 -37.999 258.499s-62.333 144.167 -111 201.5c-46 54.667 -102.5 97.667 -169.5 129s-141.5 47 -223.5 47c-27.333 0 -58.166 -0.5 -92.499 -1.5
s-59.833 -1.83301 -76.5 -2.5v-535h301v-98h-301v-458c0 -60.667 17.667 -102.667 53 -126s89.666 -35 162.999 -35c84.667 0 158.667 15 222 45s114.666 71.667 153.999 125c41.333 56 71.5 120.833 90.5 194.5s28.5 158.834 28.5 255.501z" />
    <glyph glyph-name="dcroat" unicode="&#x111;" horiz-adv-x="1176" 
d="M1152 18l-343.997 -22.0049l-15 14v92l-8 2c-34.667 -38.667 -77.5 -70.334 -128.5 -95.001s-103.5 -37 -157.5 -37c-56 0 -110.167 12.5 -162.5 37.5s-97.833 60.167 -136.5 105.5c-39.333 46 -70.5 101.333 -93.5 166s-34.5 136 -34.5 214c0 71.333 12.333 139 37 203
s58.667 120 102 168c40.667 44.667 90.5 80.334 149.5 107.001s119.167 40 180.5 40c46 0 91.167 -5.83301 135.5 -17.5s82.5 -26.5 114.5 -44.5v219h-361v85h362v39c0 36.667 -4.83301 64.334 -14.5 83.001s-22.834 34 -39.501 46
c-18.667 12.667 -43.834 21.834 -75.501 27.501s-65.834 9.83398 -102.501 12.501v62l403 23l15 -15v-278h217v-85h-217v-967c0 -23.333 4.5 -43.166 13.5 -59.499s22.167 -30.166 39.5 -41.499c12.667 -8 31 -13 55 -15s46 -3.33301 66 -4v-65zM791.003 190.995
l0.000976562 577.001c-5.33301 17.333 -14 36 -26 56s-27 38.333 -45 55c-19.333 16.667 -42 30.5 -68 41.5s-56.333 16.5 -91 16.5c-40 0 -76.833 -10.333 -110.5 -31s-63.5 -50.334 -89.5 -89.001c-24.667 -37.333 -44.167 -84.833 -58.5 -142.5
s-21.5 -121.5 -21.5 -191.5c0 -56 5.33301 -106.833 16 -152.5s28.667 -88.167 54 -127.5c23.333 -37.333 53.166 -67.333 89.499 -90s79.5 -34 129.5 -34c53.333 0 97.5 11.667 132.5 35s64.5 49 88.5 77z" />
    <glyph glyph-name="Emacron" unicode="&#x112;" horiz-adv-x="1338" 
d="M1291 418l-26.998 -417.997h-1178v71c20 1.33301 46.667 4.16602 80 8.49902s55 8.83301 65 13.5c21.333 10 36.166 23 44.499 39s12.5 36.333 12.5 61v1020c0 22 -3.66699 41.5 -11 58.5s-22.666 30.833 -45.999 41.5c-18 8.66699 -42.167 16.334 -72.5 23.001
s-54.5 10.667 -72.5 12v71h1098v-342h-75c-13.333 50.667 -42.166 104.5 -86.499 161.5s-86.5 88.167 -126.5 93.5c-20.667 2.66699 -45.334 4.66699 -74.001 6s-61.334 2 -98.001 2h-223v-564h160c51.333 0 88.833 4.83301 112.5 14.5s44.5 25.834 62.5 48.501
c14.667 19.333 27.167 45.166 37.5 77.499s17.166 62.833 20.499 91.5h75v-555h-75c-2.66699 32 -9.83398 65.833 -21.501 101.5s-23.834 61.5 -36.501 77.5c-20.667 26 -44.167 43 -70.5 51s-61.166 12 -104.499 12h-160v-426c0 -42.667 3 -76.334 9 -101.001
s17.667 -43.334 35 -56.001s41 -20.834 71 -24.501s72.667 -5.5 128 -5.5h87c36 0 66.333 1.33301 91 4c25.333 2.66699 51.5 7.5 78.5 14.5s46.167 16.5 57.5 28.5c30.667 32 62.834 80.5 96.501 145.5s55.167 112.833 64.5 143.5h72zM1062 1657h-686v128h686v-128z" />
    </font>
</defs>
</svg>
